<svg width="1920" height="521" viewBox="0 0 1920 521" fill="none" xmlns="http://www.w3.org/2000/svg">
<g clip-path="url(#clip0_248_26)">
<rect width="1920" height="521" fill="white"/>
<path opacity="0.79" d="M1721.49 77.1211C1716.12 88.563 1708.65 98.9894 1701.71 109.372C1694.46 120.224 1687.76 131.068 1684.27 143.264L1683.94 144.448C1676.27 173.107 1691.81 200.427 1711.59 221.565L1711.94 221.931L1711.99 222.43C1713.17 233.388 1712.46 244.553 1710.54 255.432L1710.08 258.019L1708.08 256.309C1693.1 243.459 1678.94 229.694 1665.21 215.555L1664.91 215.244L1664.82 214.82C1663.72 209.592 1662.27 201.604 1660.92 194.572C1660.25 191.046 1659.6 187.758 1659.04 185.152C1658.53 182.81 1658.11 181.155 1657.83 180.346L1657.71 180.051V180.05C1647.63 156.936 1632.02 136.242 1612.72 119.987L1612.72 119.986C1612.19 119.541 1610.87 118.647 1608.85 117.383C1606.86 116.14 1604.28 114.592 1601.32 112.858C1595.4 109.391 1587.96 105.194 1580.68 101.234C1573.38 97.2723 1566.26 93.5586 1560.95 91.0518C1558.28 89.794 1556.12 88.8613 1554.64 88.3496C1554.41 88.2689 1554.2 88.204 1554.02 88.1494C1551.46 121.018 1558.26 155.314 1577.58 181.709L1578.53 182.976C1598.71 209.709 1629.01 216.739 1660.88 218.412L1661.46 218.442L1661.87 218.862C1699.25 257.196 1739.55 292.713 1789.2 313.377L1791.57 314.35H1791.57C1808.98 321.396 1826.96 326.756 1845.09 331.812L1852.87 333.964L1852.87 333.965C1853.27 334.075 1853.66 334.185 1854.06 334.295L1855.24 334.625C1863.63 336.933 1872.03 339.223 1880.4 341.638L1883.98 342.681C1889.04 344.165 1894.07 345.72 1899.06 347.376L1898.59 350.3C1889.61 350.32 1880.67 351.464 1871.93 353.723L1871.75 353.77H1871.5L1871.44 353.767C1848.34 352.15 1827.2 347.456 1807.72 363.034L1806.79 363.791C1796.01 372.794 1789.76 386.022 1784.46 399.509L1783.41 402.208C1777.23 418.276 1771.71 434.592 1766.85 451.103C1782.04 449.066 1795.83 441.011 1809.23 432.567L1812.04 430.793C1833.47 417.19 1855.59 402.523 1865.46 379.812H1865.46C1867.01 376.254 1868.27 372.65 1869.68 368.979C1871.08 365.346 1872.62 361.712 1874.66 358.3L1874.99 357.752L1875.61 357.608L1877.13 357.271C1892.3 354.012 1908.05 354.27 1923.34 358.031L1924.87 358.418C1925.59 358.607 1926.11 358.489 1926.48 358.273L1927.14 357.895L1927.83 358.191C1944.15 365.191 1959.85 373.595 1974.58 384.084L1976 385.105C1999.88 402.402 2020.41 423.918 2036.7 448.33L2036.82 448.446L2036.93 448.702C2040.36 456.432 2044.39 463.924 2049 471.1C2049.38 471.686 2049.83 471.979 2050.28 472.113L2050.89 472.297L2051.18 472.865C2051.78 474.033 2052.39 475.212 2052.97 476.393C2053.34 477.128 2053.81 477.408 2054.24 477.5C2054.72 477.603 2055.32 477.506 2055.89 477.173C2057.07 476.496 2057.66 475.206 2057 473.868L2057 473.867C2052.29 464.411 2047.03 455.333 2041.26 446.673C2041.22 446.609 2041.19 446.56 2041.18 446.543C2041.15 446.491 2041.13 446.441 2041.13 446.44L2041.11 446.409L2041.1 446.376C2030.02 421.31 2025.37 393.831 2027.61 366.193L2027.72 364.877L2027.73 364.868L2027.74 364.665C2027.75 364.214 2027.65 363.903 2027.52 363.685L2027 362.783L2027.66 361.978C2033.56 354.805 2037.94 346.727 2040.71 337.845L2040.83 337.432L2041.16 337.15L2042.29 336.21C2046.45 332.787 2051.16 329.645 2054.41 327.553L2057.28 325.725L2057.29 325.723L2057.88 325.342C2069.82 317.55 2075.34 306.945 2078.6 292.556L2078.91 291.128C2083.92 267.56 2080.2 243.089 2075.75 219.013C2067.82 227.496 2058.47 235.017 2050.12 242.783C2041.25 251.038 2033.36 259.679 2028.74 270.444L2028.3 271.492V271.493C2023.84 282.511 2023.47 294.561 2025.13 306.381L2025.3 307.524C2026.33 314.254 2026.95 320.937 2028.52 327.335L2028.85 328.609C2029.46 330.87 2030.26 333.091 2031.11 335.353C2031.96 337.593 2032.88 339.904 2033.68 342.244L2033.87 342.794L2033.63 343.327C2031.24 348.846 2028.11 353.965 2024.25 358.68L2023 360.205L2021.86 358.597C2019.89 355.807 2017.91 353.017 2015.94 350.227C2013.96 347.437 2011.99 344.646 2010.01 341.856L2009.65 341.348L2009.76 340.732C2010.92 334.062 2012.68 328.548 2012.06 321.685L2012 321.016C2011.09 312.847 2009.09 304.771 2006.96 296.724L2006.96 296.723C2003.37 283.201 1997.08 270.416 1987.57 260.223L1986.64 259.244L1986.64 259.243C1979.83 252.214 1971.68 246.641 1963.31 241.241L1959.71 238.934L1959.71 238.933C1950.67 233.137 1941.63 227.351 1932.58 221.564C1931.21 238.118 1932.62 254.856 1935.53 271.301L1935.83 272.97C1937.73 283.35 1940.24 293.616 1944.78 302.964L1945.23 303.866C1951.19 315.741 1960.79 325.667 1972.19 332.518L1973.3 333.171C1978.88 336.391 1985.49 340.14 1991.56 341.296L1992.15 341.399C1994.22 341.737 1996.22 341.87 1998.28 342.029C2000.31 342.187 2002.39 342.37 2004.45 342.825L2005.02 342.95L2005.35 343.423C2008.2 347.448 2011.05 351.474 2013.9 355.499C2016.75 359.524 2019.59 363.549 2022.44 367.573L2022.75 368.01L2022.71 368.544C2021.41 387.384 2023.32 406.246 2028.23 424.307L2025.62 425.657C1996.09 390.011 1957.1 363.032 1912.78 347L1910.67 346.245L1910.67 346.244C1892.56 339.856 1874.02 334.871 1855.42 329.776L1855.15 329.701L1854.92 329.53C1840.88 319.017 1830.05 304.932 1823.31 289.035L1823.16 288.688L1823.19 288.314C1823.9 280.617 1826.6 274.3 1829.6 268.184C1832.53 262.217 1835.68 256.514 1837.8 249.705L1838 249.042V249.041L1838.45 247.496C1842.91 231.741 1844.18 214.471 1840.68 198.51L1840.51 197.726C1838.15 187.463 1833.76 177.834 1829.2 168.073C1825.17 159.434 1821.02 150.682 1818.21 141.451C1811.64 152.645 1803.35 163.092 1796.07 173.604C1788.3 184.807 1781.58 196.197 1778.71 209.12L1778.45 210.376C1775.84 223.315 1778.09 236.961 1783.86 248.844C1790.67 262.858 1803.86 274.045 1816.45 284.789L1816.75 285.047L1816.89 285.42C1821.91 299.29 1829.8 311.938 1840.15 322.616L1844.04 326.641L1838.66 325.103C1830.27 322.709 1821.91 320.202 1813.61 317.433L1813.61 317.432C1779.92 306.201 1749.31 289.294 1721.48 267.352L1720.15 266.304C1718.38 264.888 1716.62 263.463 1714.87 262.019L1714.17 261.443L1714.35 260.557C1716.76 248.898 1717.79 237.079 1716.91 225.473L1716.87 224.849L1717.28 224.376C1726.47 213.795 1731.21 205.679 1736.54 192.295L1737.06 190.983C1752.25 152.164 1743.68 111.908 1721.49 77.1211Z" stroke="#44838E" stroke-width="3"/>
<path opacity="0.79" d="M-26 -144.5C108.177 -144.5 216.5 -43.5253 216.5 80.5C216.5 204.525 108.177 305.5 -26 305.5C-160.177 305.5 -268.5 204.525 -268.5 80.5C-268.5 -43.5253 -160.177 -144.5 -26 -144.5Z" stroke="#03606E" stroke-width="7"/>
</g>
<defs>
<clipPath id="clip0_248_26">
<rect width="1920" height="521" fill="white"/>
</clipPath>
</defs>
</svg>
