<svg width="115" height="99" viewBox="0 0 115 99" fill="none" xmlns="http://www.w3.org/2000/svg">
<path fill-rule="evenodd" clip-rule="evenodd" d="M114.4 40.1788L70.1844 59.7313C69.681 59.9521 69.1586 60.0587 68.64 60.0587V64.7765C68.64 66.8821 66.9316 68.5842 64.8267 68.5842H49.5733C47.4684 68.5842 45.76 66.8821 45.76 64.7765V60.0435C45.2414 60.0435 44.7151 59.9369 44.2118 59.716L0 40.1788V87.5769C0 90.6078 1.20501 93.5131 3.35192 95.653C5.49501 97.7968 8.40459 99 11.44 99C31.0939 99 83.3061 99 102.96 99C105.995 99 108.905 97.7968 111.048 95.653C113.195 93.5131 114.4 90.6078 114.4 87.5769V40.1788ZM61.0133 49.5V60.9688H53.3867V49.5H61.0133ZM22.88 15.2308H11.44C8.40459 15.2308 5.49501 16.434 3.35192 18.5777C1.20501 20.7177 0 23.6229 0 26.6538V31.8513L45.76 52.074V45.6923C45.76 43.5905 47.4684 41.8846 49.5733 41.8846H64.8267C66.9316 41.8846 68.64 43.5905 68.64 45.6923V52.0854L114.4 31.8475V26.6538C114.4 23.6229 113.195 20.7177 111.048 18.5777C108.905 16.434 105.995 15.2308 102.96 15.2308H91.52V11.4231C91.52 5.11373 86.3987 0 80.08 0H34.32C28.0013 0 22.88 5.11373 22.88 11.4231V15.2308ZM83.8933 15.2308H30.5067V11.4231C30.5067 9.32123 32.215 7.61538 34.32 7.61538H80.08C82.185 7.61538 83.8933 9.32123 83.8933 11.4231V15.2308Z" fill="#77AC98"/>
</svg>
