<svg width="118" height="99" viewBox="0 0 118 99" fill="none" xmlns="http://www.w3.org/2000/svg">
<path d="M80.5374 17.194C91.7225 17.194 101.625 24.0805 105.923 33.5552C109.794 31.8448 112.81 27.9514 112.81 23.6529C112.81 18.0491 108.939 13.7507 103.335 12.8955C101.602 7.71927 96.8762 4.29849 91.2949 4.29849C90.4397 4.29849 89.1344 4.29849 88.2792 4.72609C86.1187 1.71039 82.2478 0 78.3769 0C71.0627 0 65.4592 5.60379 65.4592 12.918C65.4592 12.918 65.4592 12.918 65.4592 13.3456C64.604 13.3456 63.2985 13.7732 62.4435 14.2008C65.0316 15.4836 67.1696 17.6441 69.3303 19.8046C72.7956 18.0717 76.6665 17.194 80.5374 17.194Z" fill="#77AC98"/>
<path d="M56.0067 77.4628C54.2963 72.2866 49.5478 68.8659 43.9665 68.8659C43.1113 68.8659 41.806 68.8659 40.9508 69.2932C38.7903 66.2778 34.9194 64.5671 31.0485 64.5671C23.7343 64.5671 18.1305 70.1709 18.1305 77.4851C18.1305 77.4851 18.1305 77.4851 18.1305 77.9127C13.4045 78.7679 9.53357 83.0889 9.53357 88.2424C9.53357 94.2737 14.2597 98.9998 20.291 98.9998H54.7239C60.7553 98.9998 65.4814 94.2737 65.4814 88.2424C65.4589 82.6163 61.588 78.3178 56.0067 77.4628Z" fill="#77AC98"/>
<path d="M104.213 44.7403C104.213 31.8224 93.4554 21.4925 80.5376 21.4925C75.8115 21.4925 71.9406 22.7753 68.0472 24.9358C62.466 17.6216 53.8465 12.8955 43.9442 12.8955C27.1554 12.8955 13.8098 26.2411 13.8098 43.0299C13.8098 43.4575 13.8098 44.3127 13.8098 44.7403C6.06779 48.1836 0.891602 55.4978 0.891602 64.5449C0.891602 70.5763 3.4797 76.1575 7.35058 80.0509C9.08348 77.4628 11.2215 75.7522 13.8096 74.4471C15.5425 66.2778 22.4065 60.2464 31.026 60.2464C35.3245 60.2464 39.623 61.9568 42.6387 64.5449C43.0663 64.5449 43.4939 64.5449 43.9215 64.5449C50.3805 64.5449 56.4119 68.4158 59.4275 74.0195C65.0311 75.7524 68.9022 80.4785 69.7572 86.0598H95.5931C107.633 86.0598 117.108 76.5851 117.108 64.5449C117.131 55.4978 111.955 48.1836 104.213 44.7403Z" fill="#77AC98"/>
</svg>
