<svg width="142" height="131" viewBox="0 0 142 131" fill="none" xmlns="http://www.w3.org/2000/svg">
<path d="M29.844 22.925C36.1745 22.925 41.3065 17.7931 41.3065 11.4625C41.3065 5.13194 36.1745 0 29.844 0C23.5134 0 18.3815 5.13194 18.3815 11.4625C18.3815 17.7931 23.5134 22.925 29.844 22.925Z" fill="#77AC98"/>
<path d="M78.969 22.925C85.2996 22.925 90.4315 17.7931 90.4315 11.4625C90.4315 5.13194 85.2996 0 78.969 0C72.6385 0 67.5065 5.13194 67.5065 11.4625C67.5065 17.7931 72.6385 22.925 78.969 22.925Z" fill="#77AC98"/>
<path d="M123.182 86.7876C127.703 86.7876 131.369 83.1219 131.369 78.6001C131.369 74.0783 127.703 70.4126 123.182 70.4126C118.66 70.4126 114.994 74.0783 114.994 78.6001C114.994 83.1219 118.66 86.7876 123.182 86.7876Z" fill="#77AC98"/>
<path d="M140.867 108.402L135.135 94.6474C133.17 91.8636 130.059 89.7349 126.62 88.7524C125.638 88.5886 124.328 88.4249 123.182 88.4249H114.994L108.117 76.7986C108.28 75.9799 108.444 75.1611 108.28 74.3424L100.584 35.6973C97.4728 32.2586 93.5428 29.6386 88.9578 28.0011C85.8466 26.8548 82.4078 26.1998 78.8053 26.1998C75.2028 26.1998 71.9278 26.8548 68.6528 28.0011C64.2316 29.6386 60.3015 32.2586 57.0265 35.6973L54.4065 50.2711L51.459 35.6973C48.3478 32.2586 44.4178 29.6386 39.8328 28.0011C36.7215 26.8548 33.2828 26.1998 29.6803 26.1998C26.0778 26.1998 22.8028 26.8548 19.5278 28.0011C15.1065 29.6386 11.1765 32.2586 7.90152 35.6973L0.532764 74.3424C0.0415138 76.9624 1.67901 79.5824 4.46277 80.0736C4.62652 80.2374 4.95402 80.2374 5.28152 80.2374C7.57402 80.2374 9.70277 78.5999 10.0303 76.3074L16.744 43.0661V131H26.569V80.2374H33.119V131H42.944V43.0661L49.6578 76.3074C49.9853 78.5999 52.114 80.2374 54.4065 80.2374C56.699 80.2374 58.8278 78.5999 59.1553 76.3074L65.869 43.0661V60.9148L59.6465 91.8636H65.869V131H75.6941V91.6999H82.2441V131H92.0691V91.8636H98.2916L92.0691 60.9148V43.0661L98.7828 76.3074C99.1103 78.2724 100.748 79.7461 102.549 80.0736L114.994 101.197V131H121.544V111.35H124.819V131H131.369V102.507L134.972 111.022C135.463 112.332 136.773 112.987 137.919 112.987C138.41 112.987 138.738 112.987 139.229 112.66C140.867 112.005 141.685 110.04 140.867 108.402Z" fill="#77AC98"/>
</svg>
