<svg width="118" height="129" viewBox="0 0 118 129" fill="none" xmlns="http://www.w3.org/2000/svg">
<path d="M51.6741 0C77.9503 0 99.6405 19.5822 102.922 44.9243L117.455 67.7508C118.411 69.2536 118.217 71.4918 116.002 72.4464L103.348 77.8515V96.75C103.348 103.877 97.5671 109.65 90.4296 109.65H77.5176L77.5111 129H19.3778V105.174C19.3778 97.5627 16.5615 90.358 11.3425 83.8565C4.24373 75.02 0 63.8034 0 51.6C0 23.1039 23.1371 0 51.6741 0ZM48.2507 37.1713C43.8325 32.7595 36.6757 32.7595 32.264 37.1713C27.8459 41.5767 27.8459 48.7233 32.264 53.1287L51.6741 72.5173L71.0841 53.1287C75.5023 48.7233 75.5023 41.5767 71.0841 37.1713C66.6725 32.7595 59.5156 32.7595 55.0975 37.1713L51.6741 40.5899L48.2507 37.1713Z" fill="#77AC98"/>
</svg>
