<svg width="119" height="144" viewBox="0 0 119 144" fill="none" xmlns="http://www.w3.org/2000/svg">
<path d="M37.6155 84.5063H43.891L40.1257 78.2778H28.9553L25.0645 84.5063H30.9635C29.8025 89.9563 25.0018 91.7626 25.0018 101.105C25.0018 111.912 31.2773 112.348 31.2773 120.85C31.2773 129.352 25.0645 129.757 25.0645 140.563C25.0645 141.389 25.3951 142.181 25.9836 142.765C26.572 143.349 27.3701 143.677 28.2023 143.677C29.0345 143.677 29.8325 143.349 30.421 142.765C31.0094 142.181 31.34 141.389 31.34 140.563C31.34 132.155 37.6155 131.656 37.6155 120.85C37.6155 110.043 31.34 109.639 31.34 101.105C31.34 93.4443 36.2976 92.6969 37.6155 84.5063ZM52.2687 16.6775C43.891 16.6775 40.0629 21.9095 34.4777 27.484C28.8612 21.8783 26.602 18.8886 21.4875 17.3626C17.9165 16.3288 14.1007 16.5015 10.6393 17.8536C7.1779 19.2056 4.26701 21.6605 2.36376 24.8326C0.460506 28.0047 -0.327299 31.7145 0.124063 35.3792C0.575426 39.0439 2.24039 42.456 4.85748 45.0797L32.0303 72.0492H36.9252C65.9179 43.2734 65.4159 44.0208 66.9534 41.3114C68.3444 38.7779 69.0487 35.9294 68.9974 33.0447C68.9461 30.1599 68.1409 27.3378 66.6606 24.8547C65.1804 22.3716 63.0759 20.3125 60.5531 18.8791C58.0303 17.4457 55.1757 16.6871 52.2687 16.6775Z" fill="#77AC98"/>
<path d="M114.13 5.60018C112.584 4.04256 110.746 2.8067 108.722 1.96344C106.699 1.12018 104.529 0.686107 102.338 0.686107C100.147 0.686107 97.9779 1.12018 95.9544 1.96344C93.9309 2.8067 92.0931 4.04256 90.5464 5.60018L84.6426 11.5576C78.8013 5.66289 75.2715 0.67749 66.9313 0.67749C63.8133 0.678205 60.7586 1.56107 58.1176 3.22482C55.4767 4.88857 53.3564 7.26582 52 10.0839H52.3748C56.5047 10.1017 60.5534 11.2358 64.0957 13.367C67.638 15.4983 70.5429 18.5479 72.5053 22.1954C74.4676 25.843 75.4149 29.9538 75.2476 34.0958C75.0802 38.2378 73.8044 42.2581 71.5543 45.7342L82.2061 56.4262H87.0791L114.13 29.273C117.249 26.1292 119 21.8732 119 17.4366C119 13 117.249 8.74399 114.13 5.60018ZM90.234 62.6971H78.9262L75.2715 68.9681C87.3602 68.9681 77.052 67.6512 85.1736 80.5693C86.9446 82.9434 87.8588 85.8512 87.7663 88.8156C87.7663 97.3127 81.5189 97.8144 81.5189 108.694C81.5189 119.575 87.7663 119.951 87.7663 128.542C87.7663 129.374 88.0954 130.171 88.6812 130.759C89.267 131.347 90.0615 131.677 90.89 131.677C91.7184 131.677 92.513 131.347 93.0988 130.759C93.6846 130.171 94.0137 129.374 94.0137 128.542C94.0137 117.631 87.7663 117.286 87.7663 108.694C87.7663 100.103 94.0137 99.7584 94.0137 88.8156C94.0137 77.8728 87.7663 77.5279 87.7663 68.9681H94.0137L90.234 62.6971Z" fill="#77AC98"/>
</svg>
