<svg width="44" height="44" viewBox="0 0 44 44" fill="none" xmlns="http://www.w3.org/2000/svg">
<path d="M33.3492 7.52204C32.8332 7.52204 32.3288 7.67504 31.8998 7.9617C31.4708 8.24836 31.1364 8.6558 30.9389 9.1325C30.7415 9.60919 30.6898 10.1337 30.7905 10.6398C30.8911 11.1458 31.1396 11.6107 31.5045 11.9755C31.8693 12.3404 32.3342 12.5889 32.8402 12.6895C33.3463 12.7902 33.8708 12.7385 34.3475 12.5411C34.8242 12.3436 35.2316 12.0092 35.5183 11.5802C35.805 11.1512 35.958 10.6468 35.958 10.1308C35.958 9.43894 35.6831 8.77538 35.1939 8.28614C34.7046 7.7969 34.0411 7.52204 33.3492 7.52204ZM43.3496 12.7831C43.3073 10.9793 42.9694 9.19472 42.3495 7.5003C41.7967 6.05053 40.9364 4.73775 39.8277 3.65232C38.7512 2.53798 37.4353 1.68306 35.9797 1.15222C34.2898 0.513414 32.5031 0.167855 30.6969 0.13044C28.3924 -1.21482e-07 27.6533 0 21.74 0C15.8267 0 15.0876 -1.21482e-07 12.7831 0.13044C10.9769 0.167855 9.19024 0.513414 7.5003 1.15222C6.04736 1.68843 4.73265 2.54262 3.65232 3.65232C2.53798 4.72884 1.68306 6.04468 1.15222 7.5003C0.513414 9.19024 0.167855 10.9769 0.13044 12.7831C-1.21482e-07 15.0876 0 15.8267 0 21.74C0 27.6533 -1.21482e-07 28.3924 0.13044 30.6969C0.167855 32.5031 0.513414 34.2898 1.15222 35.9797C1.68306 37.4353 2.53798 38.7512 3.65232 39.8277C4.73265 40.9374 6.04736 41.7916 7.5003 42.3278C9.19024 42.9666 10.9769 43.3121 12.7831 43.3496C15.0876 43.48 15.8267 43.48 21.74 43.48C27.6533 43.48 28.3924 43.48 30.6969 43.3496C32.5031 43.3121 34.2898 42.9666 35.9797 42.3278C37.4353 41.7969 38.7512 40.942 39.8277 39.8277C40.9413 38.7463 41.8024 37.4324 42.3495 35.9797C42.9694 34.2853 43.3073 32.5007 43.3496 30.6969C43.3496 28.3924 43.48 27.6533 43.48 21.74C43.48 15.8267 43.48 15.0876 43.3496 12.7831ZM39.4364 30.436C39.4205 31.816 39.1706 33.1833 38.6972 34.4796C38.3501 35.4258 37.7926 36.2806 37.0667 36.9797C36.3616 37.6983 35.5084 38.2546 34.5666 38.6102C33.2702 39.0836 31.903 39.3336 30.523 39.3494C28.349 39.4581 27.5446 39.4798 21.827 39.4798C16.1093 39.4798 15.305 39.4798 13.131 39.3494C11.6981 39.3762 10.2713 39.1556 8.9134 38.6972C8.01289 38.3234 7.19889 37.7684 6.522 37.0667C5.80042 36.3683 5.24987 35.5127 4.91324 34.5666C4.38247 33.2517 4.08808 31.8533 4.04364 30.436C4.04364 28.262 3.9132 27.4576 3.9132 21.74C3.9132 16.0224 3.9132 15.218 4.04364 13.044C4.05338 11.6332 4.31093 10.2351 4.80454 8.9134C5.18727 7.99578 5.77472 7.17781 6.522 6.522C7.18249 5.77451 7.99877 5.18085 8.9134 4.7828C10.2386 4.30461 11.6352 4.05468 13.044 4.04364C15.218 4.04364 16.0224 3.9132 21.74 3.9132C27.4576 3.9132 28.262 3.9132 30.436 4.04364C31.816 4.05947 33.1833 4.3094 34.4796 4.7828C35.4676 5.14945 36.3543 5.74555 37.0667 6.522C37.7791 7.18981 38.3358 8.00626 38.6972 8.9134C39.1804 10.2372 39.4305 11.6348 39.4364 13.044C39.5451 15.218 39.5668 16.0224 39.5668 21.74C39.5668 27.4576 39.5451 28.262 39.4364 30.436ZM21.74 10.5874C19.5352 10.5917 17.381 11.2494 15.5499 12.4775C13.7187 13.7056 12.2926 15.4489 11.4518 17.4871C10.6111 19.5254 10.3933 21.7671 10.8261 23.9291C11.2589 26.091 12.3227 28.0762 13.8833 29.6337C15.4439 31.1913 17.4312 32.2513 19.594 32.6799C21.7568 33.1085 23.9981 32.8863 26.0347 32.0416C28.0713 31.1968 29.8118 29.7674 31.0363 27.9338C32.2608 26.1002 32.9144 23.9449 32.9144 21.74C32.9172 20.2728 32.63 18.8195 32.0692 17.4636C31.5084 16.1078 30.685 14.8763 29.6466 13.8398C28.6081 12.8033 27.3749 11.9824 26.018 11.4242C24.6611 10.866 23.2072 10.5816 21.74 10.5874ZM21.74 28.9794C20.3082 28.9794 18.9085 28.5548 17.718 27.7594C16.5275 26.9639 15.5996 25.8332 15.0516 24.5104C14.5037 23.1876 14.3603 21.732 14.6397 20.3277C14.919 18.9233 15.6085 17.6334 16.621 16.621C17.6334 15.6085 18.9233 14.919 20.3277 14.6397C21.732 14.3603 23.1876 14.5037 24.5104 15.0516C25.8332 15.5996 26.9639 16.5275 27.7594 17.718C28.5548 18.9085 28.9794 20.3082 28.9794 21.74C28.9794 22.6907 28.7922 23.6321 28.4284 24.5104C28.0645 25.3887 27.5313 26.1868 26.859 26.859C26.1868 27.5313 25.3887 28.0645 24.5104 28.4284C23.6321 28.7922 22.6907 28.9794 21.74 28.9794Z" fill="#77AC98"/>
</svg>
