<svg width="75" height="76" viewBox="0 0 75 76" fill="none" xmlns="http://www.w3.org/2000/svg">
<path fill-rule="evenodd" clip-rule="evenodd" d="M56 3H19C10.1634 3 3 10.1634 3 19V57C3 65.8366 10.1634 73 19 73H56C64.8366 73 72 65.8366 72 57V19C72 10.1634 64.8366 3 56 3ZM19 0C8.50659 0 0 8.50659 0 19V57C0 67.4934 8.50659 76 19 76H56C66.4934 76 75 67.4934 75 57V19C75 8.50659 66.4934 0 56 0H19Z" fill="#77AC98"/>
<path d="M37.4492 16C32.8214 16 28.3831 17.8324 25.1108 21.094C21.8384 24.3556 20 28.7793 20 33.3919C20 45.1315 35.3771 58.3929 36.0315 58.9581C36.4265 59.2949 36.9293 59.48 37.4492 59.48C37.9691 59.48 38.4719 59.2949 38.867 58.9581C39.6304 58.3929 54.8984 45.1315 54.8984 33.3919C54.8984 28.7793 53.06 24.3556 49.7877 21.094C46.5153 17.8324 42.077 16 37.4492 16ZM37.4492 54.371C32.8034 50.023 24.3623 40.6531 24.3623 33.3919C24.3623 29.9325 25.7411 26.6147 28.1954 24.1685C30.6496 21.7223 33.9783 20.348 37.4492 20.348C40.9201 20.348 44.2488 21.7223 46.7031 24.1685C49.1573 26.6147 50.5361 29.9325 50.5361 33.3919C50.5361 40.6531 42.0951 50.0447 37.4492 54.371ZM37.4492 24.696C35.7236 24.696 34.0368 25.206 32.6021 26.1615C31.1673 27.117 30.0491 28.4752 29.3887 30.0641C28.7284 31.6531 28.5556 33.4016 28.8922 35.0884C29.2289 36.7753 30.0598 38.3248 31.28 39.5409C32.5001 40.7571 34.0547 41.5853 35.7471 41.9208C37.4395 42.2564 39.1938 42.0842 40.788 41.426C42.3822 40.7678 43.7448 39.6532 44.7035 38.2232C45.6621 36.7931 46.1738 35.1118 46.1738 33.3919C46.1738 31.0856 45.2546 28.8738 43.6184 27.243C41.9823 25.6122 39.7631 24.696 37.4492 24.696ZM37.4492 37.7399C36.5864 37.7399 35.743 37.4849 35.0256 37.0072C34.3083 36.5294 33.7491 35.8503 33.419 35.0558C33.0888 34.2614 33.0024 33.3871 33.1707 32.5437C33.3391 31.7003 33.7545 30.9255 34.3646 30.3175C34.9747 29.7094 35.752 29.2953 36.5982 29.1275C37.4444 28.9597 38.3215 29.0458 39.1186 29.3749C39.9157 29.704 40.597 30.2613 41.0763 30.9763C41.5557 31.6914 41.8115 32.532 41.8115 33.3919C41.8115 34.5451 41.3519 35.651 40.5338 36.4664C39.7157 37.2818 38.6062 37.7399 37.4492 37.7399Z" fill="#77AC98"/>
</svg>
