<svg width="75" height="76" viewBox="0 0 75 76" fill="none" xmlns="http://www.w3.org/2000/svg">
<path fill-rule="evenodd" clip-rule="evenodd" d="M56 3H19C10.1634 3 3 10.1634 3 19V57C3 65.8366 10.1634 73 19 73H56C64.8366 73 72 65.8366 72 57V19C72 10.1634 64.8366 3 56 3ZM19 0C8.50659 0 0 8.50659 0 19V57C0 67.4934 8.50659 76 19 76H56C66.4934 76 75 67.4934 75 57V19C75 8.50659 66.4934 0 56 0H19Z" fill="#77AC98"/>
<path d="M47.8885 43.1087C47.4517 42.8915 44.6123 41.5888 44.1755 41.3717C43.7387 41.1546 43.3018 41.1546 42.865 41.5888C42.4282 42.0231 41.5545 43.3258 41.1177 43.76C40.8993 44.1943 40.4624 44.1943 40.0256 43.9771C38.4967 43.3258 36.9678 42.4573 35.6573 41.3717C34.5653 40.2861 33.4732 38.9834 32.5995 37.6807C32.3811 37.2464 32.5995 36.8122 32.8179 36.5951C33.0363 36.3779 33.2548 35.9437 33.6916 35.7266C33.91 35.5095 34.1284 35.0752 34.1284 34.8581C34.3468 34.641 34.3468 34.2067 34.1284 33.9896C33.91 33.7725 32.8179 31.1671 32.3811 30.0815C32.1627 28.5616 31.7259 28.5616 31.289 28.5616H30.197C29.7601 28.5616 29.1049 28.9959 28.8865 29.213C27.576 30.5157 26.9207 32.0356 26.9207 33.7725C27.1391 35.7266 27.7944 37.6807 29.1049 39.4176C31.5074 42.8915 34.5652 45.7141 38.2783 47.4511C39.3704 47.8853 40.244 48.3195 41.3361 48.5367C42.4282 48.9709 43.5203 48.9709 44.8307 48.7538C46.3596 48.5367 47.6701 47.4511 48.5438 46.1483C48.9806 45.2799 48.9806 44.4114 48.7622 43.5429L47.8885 43.1087ZM53.3489 23.3508C44.8307 14.8831 31.0706 14.8831 22.5524 23.3508C15.5632 30.2986 14.2527 40.9375 19.0578 49.4051L16 60.4783L27.576 57.4386C30.8522 59.1755 34.3468 60.044 37.8415 60.044C49.8543 60.044 59.4645 50.4907 59.4645 38.5491C59.6829 32.904 57.2804 27.476 53.3489 23.3508ZM47.4517 53.7475C44.6123 55.4845 41.3361 56.5701 37.8415 56.5701C34.5652 56.5701 31.5074 55.7016 28.6681 54.1818L28.0128 53.7475L21.242 55.4845L22.9893 48.9709L22.5524 48.3195C17.3105 39.6348 19.9315 28.7788 28.4496 23.3508C36.9678 17.9228 47.8885 20.7453 53.1305 28.9959C58.3725 37.4636 55.9699 48.5367 47.4517 53.7475Z" fill="#77AC98"/>
</svg>
