<svg width="1080" height="649" viewBox="0 0 1080 649" fill="none" xmlns="http://www.w3.org/2000/svg">
<mask id="mask0_315_8" style="mask-type:alpha" maskUnits="userSpaceOnUse" x="0" y="0" width="1080" height="649">
<rect width="1080" height="649" fill="#77AC98"/>
</mask>
<g mask="url(#mask0_315_8)">
<rect width="1080" height="649" fill="#77AC98"/>
<path opacity="0.14" d="M913.328 258.88C933.928 286.16 964.808 293.23 996.798 294.91C1034.81 333.89 1075.97 370.11 1127.01 390.74C1147 398.83 1167.71 404.7 1188.47 410.41C1189.26 410.63 1190.05 410.85 1190.84 411.07C1200.43 413.71 1210.02 416.32 1219.56 419.12C1224.61 420.6 1229.62 422.15 1234.59 423.8C1225.48 423.82 1216.42 424.98 1207.56 427.27H1207.55C1184.4 425.65 1162.15 420.67 1141.83 437.64C1130 447.52 1123.54 462.28 1118.01 476.67C1111.55 493.48 1105.8 510.56 1100.78 527.85C1118.33 526.2 1133.96 516.5 1148.84 507.06C1170.21 493.5 1192.75 478.61 1202.84 455.41C1205.96 448.22 1208 440.67 1211.95 434.07C1227.85 430.4 1244.45 430.67 1260.49 434.87C1261.57 435.15 1262.5 435 1263.24 434.57C1280.01 441.76 1296.09 450.43 1311.12 461.32C1334.9 478.54 1355.33 499.97 1371.54 524.29L1371.56 524.31C1375.02 532.11 1379.09 539.67 1383.74 546.91C1384.31 547.79 1385.05 548.31 1385.85 548.55C1386.45 549.72 1387.05 550.89 1387.63 552.06C1389.85 556.53 1396.55 552.64 1394.34 548.2C1389.6 538.68 1384.31 529.54 1378.5 520.82C1378.49 520.81 1378.48 520.79 1378.47 520.77C1367.32 495.54 1362.74 467.84 1365.22 440.01C1365.3 439.17 1365.14 438.48 1364.82 437.93C1370.84 430.61 1375.32 422.36 1378.14 413.29C1383.94 408.33 1391.26 403.79 1394.09 401.99C1407.3 393.62 1413.06 382.03 1416.38 366.44C1421.67 341.57 1417.35 315.77 1412.67 290.77C1396.14 309.47 1372.27 322.79 1362.91 345.93C1358.17 357.64 1357.94 370.41 1359.82 382.75C1360.9 389.8 1361.55 397.11 1363.4 404C1364.66 408.67 1366.68 413.11 1368.26 417.73C1365.92 423.12 1362.86 428.12 1359.09 432.73C1355.14 427.15 1351.19 421.57 1347.24 415.99C1348.4 409.33 1350.32 403.31 1349.49 395.85C1348.57 387.56 1346.54 379.39 1344.41 371.34C1340.65 357.19 1333.97 343.77 1323.72 333.2C1315.8 325.02 1306.11 318.8 1296.52 312.67C1286.79 306.43 1277.05 300.2 1267.31 293.97C1265.51 312.06 1267.08 330.36 1270.36 348.24C1272.33 359 1274.97 369.76 1279.89 379.54C1286.19 392.08 1296.43 402.47 1308.55 409.47C1314.25 412.76 1321.36 416.81 1327.91 417.88C1332.2 418.58 1336.23 418.43 1340.13 419.29C1345.83 427.34 1351.52 435.39 1357.22 443.44C1355.9 462.45 1357.83 481.48 1362.78 499.7C1332.6 463.27 1292.61 435.85 1247.17 419.83C1229 413.42 1210.4 408.42 1191.82 403.33C1178 392.98 1167.33 379.11 1160.69 363.45C1162.04 348.62 1171.12 338.99 1175.44 324.47C1180.4 307.85 1181.87 289.39 1177.97 272.39C1173.18 251.51 1160.11 233.33 1154.67 212.6C1141.17 237.2 1118.51 257.57 1112.98 285.08C1110.3 298.38 1112.62 312.36 1118.51 324.5C1125.49 338.85 1138.95 350.24 1151.48 360.93C1156.57 375 1164.58 387.83 1175.07 398.66C1166.7 396.27 1158.36 393.77 1150.09 391.01C1116.04 379.66 1085.15 362.48 1057.09 340.13C1055.32 338.72 1053.57 337.3 1051.82 335.86C1054.25 324.09 1055.3 312.13 1054.41 300.36C1064.03 289.29 1068.86 280.84 1074.46 266.53C1090.21 226.28 1080.73 184.59 1057.26 149C1046.57 173.57 1025.42 193.18 1018.49 219.06C1010.61 248.5 1026.62 276.35 1046.5 297.59C1047.66 308.38 1046.97 319.4 1045.06 330.17C1030.12 317.36 1016 303.63 1002.29 289.51C1000.09 279.09 996.508 257.7 995.088 254.45C984.908 231.12 969.158 210.24 949.688 193.84C944.688 189.63 888.918 158.3 888.628 161.7C885.718 195.76 892.738 231.6 913.328 258.88Z" fill="#ECECEC"/>
<path opacity="0.14" d="M-35 386.5C99.1768 386.5 207.5 487.475 207.5 611.5C207.5 735.525 99.1768 836.5 -35 836.5C-169.177 836.5 -277.5 735.525 -277.5 611.5C-277.5 487.475 -169.177 386.5 -35 386.5Z" stroke="#ECECEC" stroke-width="7"/>
</g>
</svg>
