<svg width="1080" height="1985" viewBox="0 0 1080 1985" fill="none" xmlns="http://www.w3.org/2000/svg">
<mask id="mask0_334_11" style="mask-type:alpha" maskUnits="userSpaceOnUse" x="0" y="0" width="1080" height="1985">
<rect width="1080" height="1985" fill="#ECECEC"/>
</mask>
<g mask="url(#mask0_334_11)">
<rect width="1080" height="1985" fill="#ECECEC"/>
<path d="M902.035 1786.69C915.89 1805.02 936.658 1809.77 958.173 1810.9C983.737 1837.09 1011.42 1861.42 1045.75 1875.28C1059.19 1880.72 1073.12 1884.66 1087.08 1888.5C1087.61 1888.65 1088.15 1888.79 1088.68 1888.94C1095.13 1890.72 1101.58 1892.47 1107.99 1894.35C1111.39 1895.34 1114.76 1896.39 1118.1 1897.49C1111.97 1897.51 1105.88 1898.29 1099.92 1899.83H1099.92C1084.35 1898.74 1069.38 1895.39 1055.71 1906.79C1047.76 1913.43 1043.41 1923.35 1039.69 1933.02C1035.35 1944.31 1031.48 1955.79 1028.11 1967.4C1039.91 1966.29 1050.42 1959.78 1060.43 1953.44C1074.8 1944.32 1089.96 1934.32 1096.75 1918.73C1098.85 1913.9 1100.22 1908.83 1102.87 1904.39C1113.57 1901.93 1124.73 1902.11 1135.52 1904.93C1136.25 1905.12 1136.87 1905.02 1137.37 1904.73C1148.65 1909.56 1159.46 1915.39 1169.57 1922.7C1185.57 1934.27 1199.31 1948.67 1210.21 1965.01L1210.22 1965.03C1212.55 1970.27 1215.29 1975.35 1218.41 1980.21C1218.8 1980.8 1219.29 1981.15 1219.83 1981.31C1220.24 1982.1 1220.64 1982.88 1221.03 1983.67C1222.52 1986.67 1227.03 1984.06 1225.54 1981.08C1222.35 1974.68 1218.8 1968.54 1214.89 1962.68C1214.88 1962.67 1214.88 1962.66 1214.87 1962.65C1207.37 1945.7 1204.29 1927.08 1205.96 1908.39C1206.01 1907.82 1205.9 1907.36 1205.69 1906.99C1209.74 1902.07 1212.75 1896.53 1214.65 1890.43C1218.55 1887.1 1223.47 1884.05 1225.37 1882.84C1234.26 1877.22 1238.13 1869.43 1240.37 1858.96C1243.92 1842.25 1241.02 1824.91 1237.87 1808.11C1226.75 1820.68 1210.7 1829.63 1204.4 1845.18C1201.22 1853.04 1201.06 1861.62 1202.33 1869.91C1203.05 1874.65 1203.49 1879.56 1204.73 1884.19C1205.58 1887.33 1206.94 1890.31 1208 1893.42C1206.43 1897.04 1204.37 1900.4 1201.83 1903.49C1199.18 1899.75 1196.52 1896 1193.86 1892.25C1194.65 1887.77 1195.94 1883.73 1195.38 1878.72C1194.76 1873.15 1193.39 1867.66 1191.96 1862.25C1189.43 1852.74 1184.94 1843.72 1178.05 1836.62C1172.72 1831.13 1166.2 1826.95 1159.75 1822.83C1153.21 1818.64 1146.66 1814.45 1140.11 1810.26C1138.9 1822.42 1139.95 1834.71 1142.16 1846.73C1143.48 1853.96 1145.26 1861.19 1148.57 1867.76C1152.81 1876.18 1159.69 1883.16 1167.84 1887.87C1171.68 1890.08 1176.46 1892.8 1180.86 1893.52C1183.75 1893.99 1186.46 1893.89 1189.08 1894.46C1192.92 1899.87 1196.74 1905.28 1200.58 1910.69C1199.69 1923.46 1200.99 1936.25 1204.32 1948.49C1184.02 1924.01 1157.12 1905.59 1126.56 1894.83C1114.34 1890.52 1101.83 1887.16 1089.34 1883.74C1080.04 1876.79 1072.86 1867.47 1068.4 1856.95C1069.31 1846.98 1075.41 1840.51 1078.32 1830.76C1081.66 1819.59 1082.64 1807.19 1080.02 1795.77C1076.8 1781.74 1068.01 1769.52 1064.35 1755.59C1055.27 1772.12 1040.03 1785.81 1036.31 1804.29C1034.51 1813.23 1036.07 1822.62 1040.03 1830.78C1044.72 1840.42 1053.78 1848.07 1062.2 1855.25C1065.63 1864.71 1071.02 1873.33 1078.07 1880.6C1072.44 1879 1066.83 1877.32 1061.27 1875.46C1038.37 1867.84 1017.59 1856.3 998.722 1841.28C997.532 1840.33 996.355 1839.38 995.178 1838.41C996.812 1830.5 997.518 1822.47 996.92 1814.56C1003.39 1807.12 1006.64 1801.44 1010.4 1791.83C1021 1764.79 1014.62 1736.77 998.836 1712.86C991.647 1729.37 977.422 1742.55 972.761 1759.93C967.461 1779.71 978.229 1798.43 991.6 1812.7C992.38 1819.95 991.916 1827.35 990.631 1834.59C980.583 1825.98 971.087 1816.76 961.866 1807.27C960.386 1800.27 957.978 1785.9 957.023 1783.71C950.177 1768.04 939.584 1754.01 926.489 1742.99C923.126 1740.16 885.618 1719.11 885.423 1721.4C883.466 1744.28 888.187 1768.36 902.035 1786.69Z" fill="#77AC98"/>
<path opacity="0.16" d="M1063.5 1575.79C1152.48 1575.79 1224 1642.87 1224 1724.87C1224 1806.87 1152.48 1873.95 1063.5 1873.95C974.516 1873.95 903 1806.87 903 1724.87C903 1642.87 974.516 1575.79 1063.5 1575.79Z" stroke="#77AC98" stroke-width="10"/>
<path d="M208.519 173.737C200.589 196.56 181.63 207.65 160.81 215.282C143.804 249.63 124.137 282.731 94.6705 307.176C83.1321 316.757 70.653 324.967 58.1073 333.077C57.6304 333.387 57.1536 333.698 56.6767 334.008C50.8818 337.757 45.0806 341.484 39.3522 345.331C36.3194 347.366 33.3277 349.441 30.3834 351.576C36.4169 349.744 42.6556 348.701 48.9983 348.471L49.0049 348.469C63.9876 342.67 77.6721 334.757 94.6689 342.239C104.564 346.595 111.926 355.376 118.595 364.092C126.385 374.273 133.762 384.784 140.7 395.585C128.74 398.014 116.367 394.551 104.545 391.113C87.5664 386.175 69.5352 380.564 58.0062 366.75C54.4379 362.467 51.509 357.72 47.5147 354.009C36.2242 354.722 25.2943 358.271 15.5567 364.392C14.9004 364.803 14.2536 364.888 13.6739 364.745C4.07841 373.058 -4.75097 382.243 -12.4212 392.733C-24.5589 409.323 -33.5991 428.113 -39.2421 448.022L-39.2512 448.04C-39.9102 454.073 -41.023 460.066 -42.5867 465.957C-42.7799 466.674 -43.1609 467.179 -43.6402 467.506C-43.7927 468.427 -43.9451 469.348 -44.0843 470.266C-44.6189 473.771 -49.8666 472.47 -49.3323 468.987C-48.1859 461.519 -46.596 454.199 -44.5741 447.061C-44.5695 447.052 -44.5671 447.036 -44.5647 447.02C-42.4608 427.514 -45.2217 407.651 -52.6823 389.13C-52.9108 388.572 -52.9492 388.068 -52.8525 387.627C-58.3673 383.843 -63.0574 379.111 -66.8203 373.483C-71.696 371.268 -77.49 369.648 -79.7393 368.991C-90.2323 365.946 -96.4679 359.191 -101.925 349.207C-110.626 333.278 -113.162 314.767 -115.292 296.729C-100.442 306.162 -81.8588 310.43 -70.8255 324.351C-65.2399 331.395 -62.4174 340.078 -61.0814 348.894C-60.322 353.932 -59.2237 359.061 -59.0074 364.145C-58.8648 367.593 -59.2733 371.037 -59.353 374.516C-56.6772 377.726 -53.6065 380.524 -50.1475 382.911C-48.7 378.296 -47.2525 373.681 -45.8051 369.067C-47.9654 364.749 -50.4949 361.023 -51.5055 355.755C-52.63 349.902 -52.9948 343.906 -53.2684 337.971C-53.7387 327.537 -52.1237 317.01 -47.5501 307.707C-44.0189 300.51 -38.9063 294.295 -33.8411 288.161C-28.7063 281.924 -23.5627 275.691 -18.4191 269.459C-13.4452 281.46 -10.6578 294.287 -9.0899 307.174C-8.1438 314.929 -7.64113 322.819 -8.85235 330.502C-10.3998 340.35 -15.0044 349.528 -21.5621 356.769C-24.6466 360.173 -28.5054 364.382 -32.6167 366.441C-35.3096 367.789 -38.0081 368.503 -40.4094 369.881C-42.4986 376.539 -44.5812 383.195 -46.6704 389.853C-41.8218 402.58 -39.12 415.98 -38.5862 429.438C-26.2296 398.419 -5.49646 371.571 21.2274 351.412C31.9126 343.348 43.1772 336.161 54.4097 328.916C61.3921 319.041 65.5536 307.397 66.6736 295.347C62.6792 285.483 54.6562 280.74 48.7609 271.69C42.003 261.334 37.1701 249.013 36.1966 236.602C35.0008 221.358 39.8495 206.282 39.1152 191.01C53.1938 205.09 72.4503 214.422 81.8625 232.106C86.4173 240.655 87.805 250.681 86.4453 260.174C84.8263 271.397 78.2997 281.911 72.2422 291.758C71.8155 302.407 69.197 312.801 64.5189 322.329C69.5587 319 74.5556 315.6 79.4519 312.038C99.614 297.379 116.466 279.375 130.363 258.411C131.24 257.088 132.101 255.763 132.958 254.424C128.889 246.871 125.693 238.908 123.821 230.682C115.14 225.064 110.176 220.267 103.478 211.62C84.6374 187.298 82.1942 156.878 90.2856 127.794C102.498 142.423 120.596 151.542 130.594 167.828C141.965 186.356 137.193 208.638 128.477 227.186C129.965 234.796 132.726 242.19 136.242 249.165C143.452 237.38 149.926 225.133 156.047 212.703C155.324 205.134 153.221 189.787 153.481 187.278C155.34 169.267 161.398 151.802 170.855 136.646C173.284 132.755 203.643 100.036 204.546 102.302C213.594 124.995 216.442 150.917 208.519 173.737Z" fill="#77AC98"/>
<path opacity="0.17" d="M68.5 44.0186C162.053 44.0186 237 114.374 237 200.101C237 285.827 162.053 356.183 68.5 356.183C-25.0526 356.183 -100 285.827 -100 200.101C-99.9999 114.374 -25.0526 44.0186 68.5 44.0186Z" stroke="#77AC98" stroke-width="14"/>
</g>
</svg>
