<svg width="1920" height="548" viewBox="0 0 1920 548" fill="none" xmlns="http://www.w3.org/2000/svg">
<mask id="mask0_333_21" style="mask-type:alpha" maskUnits="userSpaceOnUse" x="0" y="0" width="1920" height="548">
<rect width="1920" height="548" fill="#ECECEC"/>
</mask>
<g mask="url(#mask0_333_21)">
<rect width="1920" height="548" fill="#ECECEC"/>
<path opacity="0.79" d="M1763.88 449.401C1758.61 461.529 1750.75 472.428 1743.22 483.705C1735.72 494.921 1728.57 506.472 1725.04 519.672L1724.85 520.38C1717.25 550.161 1733.4 578.11 1753.06 599.241C1754.04 608.838 1753.54 618.635 1752.02 628.289C1737.98 616.113 1724.64 603.129 1711.67 589.776C1710.58 584.585 1709.19 576.901 1707.87 570.01C1707.2 566.48 1706.54 563.16 1705.97 560.516C1705.41 557.943 1704.89 555.829 1704.46 554.85C1694.19 531.303 1678.3 510.237 1658.66 493.692H1658.65L1658.35 493.446C1657.55 492.83 1656.17 491.925 1654.44 490.839C1652.42 489.575 1649.81 488.012 1646.84 486.27C1640.89 482.785 1633.42 478.572 1626.11 474.599C1618.8 470.627 1611.61 466.882 1606.23 464.339C1603.55 463.072 1601.26 462.082 1599.62 461.515C1598.82 461.238 1598.07 461.024 1597.46 460.962C1597.18 460.933 1596.75 460.914 1596.32 461.066C1596.08 461.15 1595.79 461.305 1595.54 461.59C1595.29 461.888 1595.16 462.237 1595.13 462.572L1595 464.183C1592.43 498.026 1599.59 533.565 1620.13 560.783L1620.13 560.784C1641.02 588.442 1672.23 595.633 1704.14 597.375C1742.07 636.234 1783.29 672.454 1834.45 693.13L1834.45 693.131C1854.52 701.257 1875.31 707.146 1896.07 712.854L1896.07 712.855C1896.46 712.965 1896.86 713.075 1897.25 713.185C1897.65 713.295 1898.04 713.405 1898.44 713.515L1898.44 713.517C1908.04 716.158 1917.61 718.764 1927.14 721.56H1927.14C1929.46 722.24 1931.77 722.935 1934.07 723.647C1927.8 724.147 1921.56 725.184 1915.43 726.756C1892.67 725.14 1869.7 720.092 1848.87 737.488L1848.3 737.969C1836.5 748.118 1830.05 762.98 1824.61 777.132L1823.4 780.294C1817.42 796.122 1812.06 812.184 1807.34 828.432L1806.72 830.55L1808.92 830.344C1826.89 828.655 1842.81 818.733 1857.64 809.326H1857.64C1878.94 795.81 1901.91 780.696 1912.21 757.008L1912.21 757.007C1913.79 753.376 1915.11 749.609 1916.48 746.059C1917.79 742.675 1919.16 739.423 1920.91 736.392C1936.38 732.927 1952.51 733.237 1968.11 737.321L1968.11 737.322C1969.24 737.615 1970.31 737.561 1971.26 737.211C1987.2 744.089 2002.5 752.314 2016.84 762.527L2018.24 763.535C2041.85 780.637 2062.15 801.918 2078.26 826.073C2081.73 833.888 2085.82 841.464 2090.48 848.721L2090.48 848.726C2091.09 849.673 2091.89 850.341 2092.78 850.745C2093.29 851.744 2093.79 852.736 2094.28 853.727L2094.29 853.728C2095.03 855.227 2096.23 856.137 2097.61 856.434C2098.94 856.72 2100.3 856.405 2101.4 855.77C2103.58 854.509 2105.23 851.633 2103.68 848.531L2102.78 846.74C2098.26 837.835 2093.26 829.265 2087.8 821.063C2076.78 796.094 2072.26 768.685 2074.71 741.144V741.143C2074.78 740.443 2074.72 739.785 2074.54 739.183C2080.31 732.005 2084.64 723.963 2087.44 715.159C2093.09 710.388 2100.09 706.038 2102.89 704.256V704.255C2116.13 695.864 2122.1 684.321 2125.52 669.225L2125.85 667.752C2131.21 642.548 2126.82 616.464 2122.14 591.494L2121.58 588.477L2119.54 590.776C2111.34 600.057 2101.4 607.913 2092.08 616.587C2082.83 625.186 2074.32 634.484 2069.52 646.367L2069.07 647.5C2064.63 659.231 2064.49 671.871 2066.34 683.976V683.978C2067.4 690.898 2068.07 698.393 2069.95 705.389V705.391C2070.6 707.8 2071.44 710.134 2072.31 712.415C2073.11 714.53 2073.92 716.576 2074.65 718.663C2072.66 723.127 2070.16 727.315 2067.16 731.229C2065.57 728.983 2063.98 726.738 2062.39 724.493C2060.53 721.874 2058.68 719.255 2056.83 716.637C2057.96 710.408 2059.81 704.181 2058.98 696.685L2058.79 695.109C2057.79 687.241 2055.86 679.506 2053.86 671.956V671.955L2053.49 670.612C2049.62 656.762 2042.93 643.611 2032.8 633.156L2032.04 632.382C2024.12 624.436 2014.59 618.33 2005.33 612.406C1995.6 606.166 1985.86 599.936 1976.12 593.706L1974.06 592.39L1973.82 594.821C1972 613.093 1973.59 631.541 1976.88 649.511C1978.86 660.315 1981.53 671.24 1986.55 681.212L1986.55 681.213C1992.99 694.035 2003.45 704.634 2015.8 711.769L2015.8 711.77C2021.26 714.923 2028.34 718.975 2035.02 720.246L2035.67 720.36C2037.89 720.723 2040.04 720.865 2042.05 721.021C2043.88 721.162 2045.59 721.316 2047.25 721.64C2049.98 725.503 2052.72 729.368 2055.45 733.231C2058.19 737.112 2060.94 740.992 2063.69 744.872C2062.57 761.706 2063.98 778.547 2067.76 794.831C2037.93 760.627 1999.29 734.794 1955.67 719.415L1953.96 718.816C1936.36 712.702 1918.39 707.861 1900.5 702.961C1887.11 692.869 1876.73 679.408 1870.22 664.211C1870.92 657.245 1873.39 651.434 1876.3 645.504C1879.23 639.511 1882.67 633.314 1884.88 625.898V625.899C1889.89 609.082 1891.4 590.354 1887.43 573.055L1887.2 572.062C1884.71 561.819 1880.32 552.232 1875.92 542.805C1871.36 533.027 1866.8 523.428 1864.12 513.22L1863.16 509.579L1861.35 512.878C1854.65 525.088 1845.73 536.167 1837.6 547.895C1829.53 559.541 1822.34 571.719 1819.51 585.784L1819.38 586.425C1816.83 599.892 1819.24 613.951 1825.16 626.154V626.156C1832.25 640.726 1845.82 652.251 1858.21 662.817C1862.76 675.257 1869.57 686.731 1878.33 696.729C1871.71 694.793 1865.11 692.772 1858.56 690.587H1858.56L1856.98 690.054C1823.73 678.761 1793.52 661.856 1766.02 639.957L1763.39 637.841C1762.75 637.32 1762.11 636.796 1761.47 636.271C1763.75 624.883 1764.75 613.303 1763.95 601.87C1773.13 591.23 1777.97 582.864 1783.33 569.414L1783.86 568.076C1799.83 527.252 1790.17 485.049 1766.51 449.174L1764.99 446.864L1763.88 449.401Z" stroke="#44838E" stroke-width="3"/>
<path opacity="0.79" d="M107.622 155.402C112.599 166.862 120.007 177.161 127.122 187.827C133.975 198.101 140.527 208.682 143.966 220.693L144.288 221.86L144.464 222.531C151.646 250.723 136.398 277.17 117.843 297.155C116.927 306.163 117.386 315.359 118.804 324.425C132.005 312.948 144.544 300.713 156.749 288.132C157.771 283.224 159.09 275.972 160.33 269.465C160.966 266.127 161.582 262.987 162.124 260.485C162.65 258.055 163.142 256.047 163.55 255.112C173.252 232.836 188.26 212.907 206.809 197.254L207.1 197.02C207.859 196.433 209.161 195.574 210.8 194.548C212.708 193.353 215.166 191.874 217.974 190.227C223.591 186.931 230.636 182.947 237.541 179.188C244.441 175.433 251.223 171.891 256.309 169.485C258.842 168.287 260.999 167.349 262.555 166.811C263.312 166.549 264.03 166.344 264.612 166.284C264.881 166.256 265.305 166.237 265.73 166.388C265.964 166.47 266.253 166.624 266.495 166.906C266.749 167.202 266.873 167.55 266.901 167.882L267.024 169.404C269.42 200.912 262.909 233.98 244.206 259.571L243.292 260.804C223.564 286.977 194.089 293.785 163.975 295.436C128.175 332.173 89.2633 366.422 40.9766 385.976L40.9775 385.977C22.0207 393.663 2.39663 399.232 -17.1934 404.63L-17.1924 404.631C-17.5651 404.735 -17.9379 404.838 -18.3105 404.942L-19.4287 405.255L-19.4336 405.256C-28.4912 407.754 -37.527 410.217 -46.5156 412.86L-46.5166 412.861C-48.5731 413.465 -50.6218 414.081 -52.6631 414.712C-46.8796 415.196 -41.1381 416.164 -35.4814 417.614C-14.0232 416.087 7.69871 411.309 27.3887 427.783L27.9238 428.238C39.0791 437.85 45.1759 451.922 50.3086 465.303L51.4463 468.294C57.0977 483.262 62.1584 498.452 66.6113 513.817L67.2246 515.936L65.0303 515.729C49.1098 514.229 34.8857 505.879 21.6406 497.514L19.0049 495.843C-1.09673 483.064 -22.7987 468.76 -32.5342 446.334V446.333C-34.0223 442.897 -35.2712 439.332 -36.5635 435.978C-37.7911 432.791 -39.0798 429.731 -40.7207 426.879C-55.2969 423.614 -70.4932 423.91 -85.1904 427.766L-85.1934 427.767C-86.2612 428.044 -87.2784 427.997 -88.1807 427.671C-103.707 434.383 -118.577 442.45 -132.477 452.539V452.54C-154.755 468.703 -173.901 488.816 -189.099 511.645C-192.381 519.037 -196.236 526.203 -200.637 533.067L-200.64 533.072C-201.221 533.971 -201.971 534.61 -202.815 535C-203.294 535.936 -203.767 536.865 -204.227 537.793V537.794C-204.939 539.232 -206.091 540.111 -207.422 540.397C-208.704 540.673 -210.004 540.37 -211.057 539.761C-213.145 538.552 -214.727 535.79 -213.247 532.811L-212.397 531.116C-208.131 522.696 -203.408 514.592 -198.255 506.836C-187.866 483.239 -183.598 457.336 -185.913 431.308V431.307C-185.974 430.652 -185.923 430.034 -185.764 429.466C-191.192 422.685 -195.276 415.09 -197.912 406.777C-203.237 402.277 -209.831 398.174 -212.475 396.489V396.488C-224.997 388.538 -230.635 377.6 -233.868 363.313L-234.174 361.92C-239.238 338.07 -235.09 313.39 -230.679 289.78L-230.114 286.758L-228.08 289.063C-220.34 297.835 -210.971 305.255 -202.161 313.463C-193.432 321.596 -185.391 330.399 -180.848 341.652H-180.849C-176.239 353.062 -176.042 365.433 -177.84 377.256V377.258C-178.839 383.795 -179.478 390.892 -181.253 397.513V397.515C-181.867 399.797 -182.663 402.006 -183.479 404.164C-184.231 406.156 -184.991 408.079 -185.678 410.04C-183.822 414.209 -181.496 418.125 -178.7 421.786C-177.222 419.694 -175.745 417.602 -174.267 415.511C-172.524 413.044 -170.781 410.577 -169.038 408.11C-170.109 402.241 -171.851 396.342 -171.063 389.252C-170.182 381.293 -168.24 373.473 -166.229 365.858L-166.228 365.857L-165.882 364.587C-162.224 351.48 -155.908 339.031 -146.327 329.134C-139.662 322.238 -131.711 316.804 -123.78 311.681L-120.387 309.501C-111.203 303.6 -102.01 297.709 -92.8174 291.818L-90.7568 290.498L-90.5146 292.934C-88.7978 310.22 -90.2989 327.672 -93.4111 344.669C-95.2786 354.888 -97.8014 365.228 -102.541 374.667L-102.54 374.668C-108.628 386.807 -118.508 396.841 -130.181 403.595V403.596C-135.501 406.672 -142.458 410.665 -148.962 411.729H-148.963C-151.065 412.073 -153.102 412.208 -154.993 412.354C-156.705 412.487 -158.304 412.632 -159.856 412.933C-162.432 416.577 -165.005 420.221 -167.578 423.865C-170.164 427.527 -172.75 431.189 -175.338 434.851C-174.296 450.654 -175.601 466.464 -179.107 481.759C-150.973 449.532 -114.575 425.187 -73.498 410.679L-71.8838 410.112C-55.2794 404.332 -38.3166 399.754 -21.4365 395.122C-8.81983 385.594 0.951996 372.887 7.09277 358.542C6.42919 351.979 4.10801 346.5 1.36816 340.9C-1.40263 335.238 -4.64957 329.37 -6.73438 322.35V322.351C-11.4747 306.437 -12.8959 288.715 -9.14648 272.341L-8.92578 271.401C-6.57866 261.707 -2.42949 252.635 1.7207 243.722C6.02645 234.474 10.3291 225.404 12.8555 215.759L13.8115 212.112L15.6221 215.419C21.944 226.96 30.36 237.426 38.0361 248.522C45.6562 259.538 52.4539 271.063 55.126 284.38L55.3555 285.594C57.5833 298.161 55.2922 311.235 49.7861 322.604L49.7852 322.605C43.091 336.393 30.2735 347.297 18.5898 357.282C14.3214 368.959 7.959 379.738 -0.225586 389.145C5.93432 387.339 12.0667 385.454 18.1543 383.419L19.6504 382.914C51.021 372.239 79.5284 356.26 105.472 335.558L107.955 333.558C108.548 333.076 109.138 332.59 109.73 332.104C107.584 321.356 106.647 310.425 107.396 299.633C98.7421 289.576 94.1697 281.66 89.1143 268.946L88.6152 267.681C73.5258 229.048 82.6534 189.114 104.993 155.175L106.518 152.859L107.622 155.402Z" stroke="#44838E" stroke-width="3"/>
</g>
</svg>
