<svg width="1920" height="1080" viewBox="0 0 1920 1080" fill="none" xmlns="http://www.w3.org/2000/svg">
<mask id="mask0_333_12" style="mask-type:alpha" maskUnits="userSpaceOnUse" x="0" y="0" width="1920" height="1080">
<rect width="1920" height="1080" fill="#ECECEC"/>
</mask>
<g mask="url(#mask0_333_12)">
<rect width="1920" height="1080" fill="#ECECEC"/>
<path opacity="0.16" d="M1979 629C2111.97 629 2219 729.026 2219 851.5C2219 973.974 2111.97 1074 1979 1074C1846.03 1074 1739 973.974 1739 851.5C1739 729.026 1846.03 629 1979 629Z" stroke="#77AC98" stroke-width="12"/>
<path d="M1741.33 942.88C1761.93 970.16 1792.81 977.23 1824.8 978.91C1862.81 1017.89 1903.97 1054.11 1955.01 1074.74C1975 1082.83 1995.71 1088.7 2016.47 1094.41C2017.26 1094.63 2018.05 1094.85 2018.84 1095.07C2028.43 1097.71 2038.02 1100.32 2047.56 1103.12C2052.61 1104.6 2057.62 1106.15 2062.59 1107.8C2053.48 1107.82 2044.42 1108.98 2035.56 1111.27H2035.55C2012.4 1109.65 1990.15 1104.67 1969.83 1121.64C1958 1131.52 1951.54 1146.28 1946.01 1160.67C1939.55 1177.48 1933.8 1194.56 1928.78 1211.85C1946.33 1210.2 1961.96 1200.5 1976.84 1191.06C1998.21 1177.5 2020.75 1162.61 2030.84 1139.41C2033.96 1132.22 2036 1124.67 2039.95 1118.07C2055.85 1114.4 2072.45 1114.67 2088.49 1118.87C2089.57 1119.15 2090.5 1119 2091.24 1118.57C2108.01 1125.76 2124.09 1134.43 2139.12 1145.32C2162.9 1162.54 2183.33 1183.97 2199.54 1208.29L2199.56 1208.31C2203.02 1216.11 2207.09 1223.67 2211.74 1230.91C2212.31 1231.79 2213.05 1232.31 2213.85 1232.55C2214.45 1233.72 2215.05 1234.89 2215.63 1236.06C2217.85 1240.53 2224.55 1236.64 2222.34 1232.2C2217.6 1222.68 2212.31 1213.54 2206.5 1204.82C2206.49 1204.81 2206.48 1204.79 2206.47 1204.77C2195.32 1179.54 2190.74 1151.84 2193.22 1124.01C2193.3 1123.17 2193.14 1122.48 2192.82 1121.93C2198.84 1114.61 2203.32 1106.36 2206.14 1097.29C2211.94 1092.33 2219.26 1087.79 2222.09 1085.99C2235.3 1077.62 2241.06 1066.03 2244.38 1050.44C2249.67 1025.57 2245.35 999.77 2240.67 974.77C2224.14 993.47 2200.27 1006.79 2190.91 1029.93C2186.17 1041.64 2185.94 1054.41 2187.82 1066.75C2188.9 1073.8 2189.55 1081.11 2191.4 1088C2192.66 1092.67 2194.68 1097.11 2196.26 1101.73C2193.92 1107.12 2190.86 1112.12 2187.09 1116.73C2183.14 1111.15 2179.19 1105.57 2175.24 1099.99C2176.4 1093.33 2178.32 1087.31 2177.49 1079.85C2176.57 1071.56 2174.54 1063.39 2172.41 1055.34C2168.65 1041.19 2161.97 1027.77 2151.72 1017.2C2143.8 1009.02 2134.11 1002.8 2124.52 996.67C2114.79 990.43 2105.05 984.2 2095.31 977.97C2093.51 996.06 2095.08 1014.36 2098.36 1032.24C2100.33 1043 2102.97 1053.76 2107.89 1063.54C2114.19 1076.08 2124.43 1086.47 2136.55 1093.47C2142.25 1096.76 2149.36 1100.81 2155.91 1101.88C2160.2 1102.58 2164.23 1102.43 2168.13 1103.29C2173.83 1111.34 2179.52 1119.39 2185.22 1127.44C2183.9 1146.45 2185.83 1165.48 2190.78 1183.7C2160.6 1147.27 2120.61 1119.85 2075.17 1103.83C2057 1097.42 2038.4 1092.42 2019.82 1087.33C2006 1076.98 1995.33 1063.11 1988.69 1047.45C1990.04 1032.62 1999.12 1022.99 2003.44 1008.47C2008.4 991.85 2009.87 973.39 2005.97 956.39C2001.18 935.51 1988.11 917.33 1982.67 896.6C1969.17 921.2 1946.51 941.57 1940.98 969.08C1938.3 982.38 1940.62 996.36 1946.51 1008.5C1953.49 1022.85 1966.95 1034.24 1979.48 1044.93C1984.57 1059 1992.58 1071.83 2003.07 1082.66C1994.7 1080.27 1986.36 1077.77 1978.09 1075.01C1944.04 1063.66 1913.15 1046.48 1885.09 1024.13C1883.32 1022.72 1881.57 1021.3 1879.82 1019.86C1882.25 1008.09 1883.3 996.13 1882.41 984.36C1892.03 973.29 1896.86 964.84 1902.46 950.53C1918.21 910.28 1908.73 868.59 1885.26 833C1874.57 857.57 1853.42 877.18 1846.49 903.06C1838.61 932.5 1854.62 960.35 1874.5 981.59C1875.66 992.38 1874.97 1003.4 1873.06 1014.17C1858.12 1001.36 1844 987.63 1830.29 973.51C1828.09 963.09 1824.51 941.7 1823.09 938.45C1812.91 915.12 1797.16 894.24 1777.69 877.84C1772.69 873.63 1716.92 842.3 1716.63 845.7C1713.72 879.76 1720.74 915.6 1741.33 942.88Z" fill="#77AC98"/>
<path opacity="0.17" d="M-25 52C107.973 52 215 152.026 215 274.5C215 396.974 107.973 497 -25 497C-157.973 497 -265 396.974 -265 274.5C-265 152.026 -157.973 52 -25 52Z" stroke="#77AC98" stroke-width="12"/>
<path d="M171.369 237.25C160.271 269.175 133.737 284.689 104.597 295.364C80.7967 343.413 53.271 389.716 12.0313 423.911C-4.11741 437.314 -21.5827 448.798 -39.1411 460.143C-39.8085 460.577 -40.4758 461.012 -41.1432 461.446C-49.2536 466.689 -57.3728 471.903 -65.39 477.285C-69.6346 480.132 -73.8216 483.034 -77.9423 486.021C-69.4981 483.458 -60.7666 481.998 -51.8896 481.676L-51.8804 481.674C-30.9112 473.562 -11.759 462.493 12.0291 472.959C25.8782 479.053 36.1814 491.336 45.5149 503.528C56.418 517.771 66.7425 532.473 76.4523 547.583C59.7133 550.98 42.397 546.136 25.8514 541.327C2.08868 534.419 -23.147 526.57 -39.2825 507.246C-44.2766 501.256 -48.3757 494.615 -53.966 489.423C-69.7677 490.421 -85.0649 495.385 -98.6932 503.948C-99.6116 504.522 -100.517 504.643 -101.328 504.441C-114.758 516.07 -127.115 528.919 -137.85 543.593C-154.837 566.801 -167.49 593.084 -175.387 620.934L-175.4 620.959C-176.322 629.399 -177.88 637.781 -180.068 646.023C-180.339 647.026 -180.872 647.733 -181.543 648.189C-181.756 649.478 -181.969 650.767 -182.164 652.05C-182.913 656.953 -190.257 655.133 -189.509 650.261C-187.905 639.814 -185.679 629.575 -182.85 619.589C-182.843 619.577 -182.84 619.555 -182.837 619.533C-179.892 592.247 -183.756 564.461 -194.198 538.553C-194.518 537.772 -194.571 537.067 -194.436 536.45C-202.154 531.157 -208.718 524.538 -213.985 516.665C-220.809 513.566 -228.917 511.3 -232.066 510.381C-246.751 506.122 -255.478 496.673 -263.116 482.706C-275.294 460.425 -278.843 434.53 -281.824 409.297C-261.04 422.493 -235.032 428.463 -219.59 447.936C-211.773 457.79 -207.823 469.936 -205.953 482.269C-204.89 489.316 -203.353 496.49 -203.05 503.603C-202.85 508.426 -203.422 513.244 -203.534 518.11C-199.789 522.6 -195.491 526.514 -190.65 529.853C-188.624 523.398 -186.598 516.943 -184.573 510.487C-187.596 504.447 -191.136 499.235 -192.551 491.867C-194.124 483.679 -194.635 475.291 -195.018 466.99C-195.676 452.393 -193.416 437.667 -187.015 424.654C-182.073 414.587 -174.917 405.892 -167.828 397.312C-160.642 388.587 -153.443 379.869 -146.244 371.15C-139.283 387.938 -135.382 405.882 -133.188 423.909C-131.863 434.756 -131.16 445.794 -132.855 456.54C-135.021 470.317 -141.465 483.155 -150.643 493.285C-154.96 498.046 -160.361 503.935 -166.115 506.815C-169.883 508.7 -173.66 509.699 -177.021 511.627C-179.945 520.94 -182.86 530.251 -185.784 539.564C-178.998 557.368 -175.216 576.112 -174.469 594.938C-157.176 551.547 -128.158 513.991 -90.7566 485.791C-75.8021 474.511 -60.0366 464.457 -44.3161 454.323C-34.5439 440.508 -28.7196 424.22 -27.1519 407.364C-32.7424 393.566 -43.9711 386.931 -52.2219 374.272C-61.68 359.785 -68.4439 342.55 -69.8064 325.189C-71.48 303.865 -64.6939 282.776 -65.7216 261.411C-46.0178 281.107 -19.0672 294.162 -5.89419 318.9C0.480429 330.858 2.42268 344.883 0.519664 358.162C-1.74624 373.862 -10.8806 388.569 -19.3584 402.343C-19.9556 417.24 -23.6204 431.779 -30.1676 445.109C-23.1142 440.451 -16.1207 435.696 -9.26809 430.712C18.95 410.207 42.5349 385.022 61.9855 355.696C63.2124 353.846 64.4178 351.992 65.6173 350.119C59.922 339.553 55.4494 328.414 52.8293 316.907C40.679 309.049 33.7322 302.338 24.3573 290.242C-2.01057 256.219 -5.42997 213.667 5.89437 172.982C22.9866 193.446 48.3161 206.201 62.3089 228.984C78.2234 254.901 71.544 286.07 59.3455 312.016C61.4287 322.663 65.2928 333.005 70.2138 342.762C80.3035 326.277 89.3644 309.146 97.9315 291.757C96.9199 281.17 93.9762 259.701 94.3404 256.191C96.9425 230.997 105.421 206.566 118.656 185.364C122.055 179.921 164.545 134.153 165.809 137.322C178.472 169.066 182.458 205.327 171.369 237.25Z" fill="#77AC98"/>
</g>
</svg>
