<svg width="1920" height="548" viewBox="0 0 1920 548" fill="none" xmlns="http://www.w3.org/2000/svg">
<mask id="mask0_356_36" style="mask-type:alpha" maskUnits="userSpaceOnUse" x="0" y="0" width="1920" height="548">
<path d="M0 0H1920V548H0V0Z" fill="#ECECEC"/>
</mask>
<g mask="url(#mask0_356_36)">
<path d="M0 0H1920V548H0V0Z" fill="#ECECEC"/>
<path opacity="0.79" d="M1763.88 339.401C1758.61 351.529 1750.75 362.428 1743.22 373.705C1735.72 384.921 1728.57 396.472 1725.04 409.672L1724.85 410.38C1717.25 440.161 1733.4 468.11 1753.06 489.241C1754.04 498.838 1753.54 508.635 1752.02 518.289C1737.98 506.113 1724.64 493.129 1711.67 479.776C1710.58 474.585 1709.19 466.901 1707.87 460.01C1707.2 456.48 1706.54 453.16 1705.97 450.516C1705.41 447.943 1704.89 445.829 1704.46 444.85C1694.19 421.303 1678.3 400.237 1658.66 383.692H1658.65L1658.35 383.446C1657.55 382.83 1656.17 381.925 1654.44 380.839C1652.42 379.575 1649.81 378.012 1646.84 376.27C1640.89 372.785 1633.42 368.572 1626.11 364.599C1618.8 360.627 1611.61 356.882 1606.23 354.339C1603.55 353.072 1601.26 352.082 1599.62 351.515C1598.82 351.238 1598.07 351.024 1597.46 350.962C1597.18 350.933 1596.75 350.914 1596.32 351.066C1596.08 351.15 1595.79 351.305 1595.54 351.59C1595.29 351.888 1595.16 352.237 1595.13 352.572L1595 354.183C1592.43 388.026 1599.59 423.565 1620.13 450.783L1620.13 450.784C1641.02 478.442 1672.23 485.633 1704.14 487.375C1742.07 526.234 1783.29 562.454 1834.45 583.13L1834.45 583.131C1854.52 591.257 1875.31 597.146 1896.07 602.854L1896.07 602.855C1896.46 602.965 1896.86 603.075 1897.25 603.185C1897.65 603.295 1898.04 603.405 1898.44 603.515L1898.44 603.517C1908.04 606.158 1917.61 608.764 1927.14 611.56H1927.14C1929.46 612.24 1931.77 612.935 1934.07 613.647C1927.8 614.147 1921.56 615.184 1915.43 616.756C1892.67 615.14 1869.7 610.092 1848.87 627.488L1848.3 627.969C1836.5 638.118 1830.05 652.98 1824.61 667.132L1823.4 670.294C1817.42 686.122 1812.06 702.184 1807.34 718.432L1806.72 720.55L1808.92 720.344C1826.89 718.655 1842.81 708.733 1857.64 699.326H1857.64C1878.94 685.81 1901.91 670.696 1912.21 647.008L1912.21 647.007C1913.79 643.376 1915.11 639.609 1916.48 636.059C1917.79 632.675 1919.16 629.423 1920.91 626.392C1936.38 622.927 1952.51 623.237 1968.11 627.321L1968.11 627.322C1969.24 627.615 1970.31 627.561 1971.26 627.211C1987.2 634.089 2002.5 642.314 2016.84 652.527L2018.24 653.535C2041.85 670.637 2062.15 691.918 2078.26 716.073C2081.73 723.888 2085.82 731.464 2090.48 738.721L2090.48 738.726C2091.09 739.673 2091.89 740.341 2092.78 740.745C2093.29 741.744 2093.79 742.736 2094.28 743.727L2094.29 743.728C2095.03 745.227 2096.23 746.137 2097.61 746.434C2098.94 746.72 2100.3 746.405 2101.4 745.77C2103.58 744.509 2105.23 741.633 2103.68 738.531L2102.78 736.74C2098.26 727.835 2093.26 719.265 2087.8 711.063C2076.78 686.094 2072.26 658.685 2074.71 631.144V631.143C2074.78 630.443 2074.72 629.785 2074.54 629.183C2080.31 622.005 2084.64 613.963 2087.44 605.159C2093.09 600.388 2100.09 596.038 2102.89 594.256V594.255C2116.13 585.864 2122.1 574.321 2125.52 559.225L2125.85 557.752C2131.21 532.548 2126.82 506.464 2122.14 481.494L2121.58 478.477L2119.54 480.776C2111.34 490.057 2101.4 497.913 2092.08 506.587C2082.83 515.186 2074.32 524.484 2069.52 536.367L2069.07 537.5C2064.63 549.231 2064.49 561.871 2066.34 573.976V573.978C2067.4 580.898 2068.07 588.393 2069.95 595.389V595.391C2070.6 597.8 2071.44 600.134 2072.31 602.415C2073.11 604.53 2073.92 606.576 2074.65 608.663C2072.66 613.127 2070.16 617.315 2067.16 621.229C2065.57 618.983 2063.98 616.738 2062.39 614.493C2060.53 611.874 2058.68 609.255 2056.83 606.637C2057.96 600.408 2059.81 594.181 2058.98 586.685L2058.79 585.109C2057.79 577.241 2055.86 569.506 2053.86 561.956V561.955L2053.49 560.612C2049.62 546.762 2042.93 533.611 2032.8 523.156L2032.04 522.382C2024.12 514.436 2014.59 508.33 2005.33 502.406C1995.6 496.166 1985.86 489.936 1976.12 483.706L1974.06 482.39L1973.82 484.821C1972 503.093 1973.59 521.541 1976.88 539.511C1978.86 550.315 1981.53 561.24 1986.55 571.212L1986.55 571.213C1992.99 584.035 2003.45 594.634 2015.8 601.769L2015.8 601.77C2021.26 604.923 2028.34 608.975 2035.02 610.246L2035.67 610.36C2037.89 610.723 2040.04 610.865 2042.05 611.021C2043.88 611.162 2045.59 611.316 2047.25 611.64C2049.98 615.503 2052.72 619.368 2055.45 623.231C2058.19 627.112 2060.94 630.992 2063.69 634.872C2062.57 651.706 2063.98 668.547 2067.76 684.831C2037.93 650.627 1999.29 624.794 1955.67 609.415L1953.96 608.816C1936.36 602.702 1918.39 597.861 1900.5 592.961C1887.11 582.869 1876.73 569.408 1870.22 554.211C1870.92 547.245 1873.39 541.434 1876.3 535.504C1879.23 529.511 1882.67 523.314 1884.88 515.898V515.899C1889.89 499.082 1891.4 480.354 1887.43 463.055L1887.2 462.062C1884.71 451.819 1880.32 442.232 1875.92 432.805C1871.36 423.027 1866.8 413.428 1864.12 403.22L1863.16 399.579L1861.35 402.878C1854.65 415.088 1845.73 426.167 1837.6 437.895C1829.53 449.541 1822.34 461.719 1819.51 475.784L1819.38 476.425C1816.83 489.892 1819.24 503.951 1825.16 516.154V516.156C1832.25 530.726 1845.82 542.251 1858.21 552.817C1862.76 565.257 1869.57 576.731 1878.33 586.729C1871.71 584.793 1865.11 582.772 1858.56 580.587H1858.56L1856.98 580.054C1823.73 568.761 1793.52 551.856 1766.02 529.957L1763.39 527.841C1762.75 527.32 1762.11 526.796 1761.47 526.271C1763.75 514.883 1764.75 503.303 1763.95 491.87C1773.13 481.23 1777.97 472.864 1783.33 459.414L1783.86 458.076C1799.83 417.252 1790.17 375.049 1766.51 339.174L1764.99 336.864L1763.88 339.401Z" stroke="#44838E" stroke-width="3"/>
<path opacity="0.79" d="M107.622 45.4023C112.599 56.8618 120.007 67.1605 127.122 77.8271C133.975 88.1015 140.527 98.682 143.966 110.693L144.288 111.86L144.464 112.531C151.646 140.723 136.398 167.17 117.843 187.155C116.927 196.163 117.386 205.359 118.804 214.425C132.005 202.948 144.544 190.713 156.749 178.132C157.771 173.224 159.09 165.972 160.33 159.465C160.966 156.127 161.582 152.987 162.124 150.485C162.65 148.055 163.142 146.047 163.55 145.112C173.252 122.836 188.26 102.907 206.809 87.2539L207.1 87.0195C207.859 86.4334 209.161 85.5743 210.8 84.5479C212.708 83.3526 215.166 81.8738 217.974 80.2266C223.591 76.9309 230.636 72.9466 237.541 69.1885C244.441 65.4328 251.223 61.8909 256.309 59.4854C258.842 58.287 260.999 57.3486 262.555 56.8105C263.312 56.5487 264.03 56.3442 264.612 56.2842C264.881 56.2565 265.305 56.2375 265.73 56.3877C265.964 56.4703 266.253 56.6238 266.495 56.9062C266.749 57.2023 266.873 57.5503 266.901 57.8818L267.024 59.4043C269.42 90.9119 262.909 123.98 244.206 149.571L243.292 150.804C223.564 176.977 194.089 183.785 163.975 185.436C128.175 222.173 89.2633 256.422 40.9766 275.976L40.9775 275.977C22.0207 283.663 2.39663 289.232 -17.1934 294.63L-17.1924 294.631C-17.5651 294.735 -17.9379 294.838 -18.3105 294.942L-19.4287 295.255L-19.4336 295.256C-28.4912 297.754 -37.527 300.217 -46.5156 302.86L-46.5166 302.861C-48.5731 303.465 -50.6218 304.081 -52.6631 304.712C-46.8796 305.196 -41.1381 306.164 -35.4814 307.614C-14.0232 306.087 7.69871 301.309 27.3887 317.783L27.9238 318.238C39.0791 327.85 45.1759 341.922 50.3086 355.303L51.4463 358.294C57.0977 373.262 62.1584 388.452 66.6113 403.817L67.2246 405.936L65.0303 405.729C49.1098 404.229 34.8857 395.879 21.6406 387.514L19.0049 385.843C-1.09673 373.064 -22.7987 358.76 -32.5342 336.334V336.333C-34.0223 332.897 -35.2712 329.332 -36.5635 325.978C-37.7911 322.791 -39.0798 319.731 -40.7207 316.879C-55.2969 313.614 -70.4932 313.91 -85.1904 317.766L-85.1934 317.767C-86.2612 318.044 -87.2784 317.997 -88.1807 317.671C-103.707 324.383 -118.577 332.45 -132.477 342.539V342.54C-154.755 358.703 -173.901 378.816 -189.099 401.645C-192.381 409.037 -196.236 416.203 -200.637 423.067L-200.64 423.072C-201.221 423.971 -201.971 424.61 -202.815 425C-203.294 425.936 -203.767 426.865 -204.227 427.793V427.794C-204.939 429.232 -206.091 430.111 -207.422 430.397C-208.704 430.673 -210.004 430.37 -211.057 429.761C-213.145 428.552 -214.727 425.79 -213.247 422.811L-212.397 421.116C-208.131 412.696 -203.408 404.592 -198.255 396.836C-187.866 373.239 -183.598 347.336 -185.913 321.308V321.307C-185.974 320.652 -185.923 320.034 -185.764 319.466C-191.192 312.685 -195.276 305.09 -197.912 296.777C-203.237 292.277 -209.831 288.174 -212.475 286.489V286.488C-224.997 278.538 -230.635 267.6 -233.868 253.313L-234.174 251.92C-239.238 228.07 -235.09 203.39 -230.679 179.78L-230.114 176.758L-228.08 179.063C-220.34 187.835 -210.971 195.255 -202.161 203.463C-193.432 211.596 -185.391 220.399 -180.848 231.652H-180.849C-176.239 243.062 -176.042 255.433 -177.84 267.256V267.258C-178.839 273.795 -179.478 280.892 -181.253 287.513V287.515C-181.867 289.797 -182.663 292.006 -183.479 294.164C-184.231 296.156 -184.991 298.079 -185.678 300.04C-183.822 304.209 -181.496 308.125 -178.7 311.786C-177.222 309.694 -175.745 307.602 -174.267 305.511C-172.524 303.044 -170.781 300.577 -169.038 298.11C-170.109 292.241 -171.851 286.342 -171.063 279.252C-170.182 271.293 -168.24 263.473 -166.229 255.858L-166.228 255.857L-165.882 254.587C-162.224 241.48 -155.908 229.031 -146.327 219.134C-139.662 212.238 -131.711 206.804 -123.78 201.681L-120.387 199.501C-111.203 193.6 -102.01 187.709 -92.8174 181.818L-90.7568 180.498L-90.5146 182.934C-88.7978 200.22 -90.2989 217.672 -93.4111 234.669C-95.2786 244.888 -97.8014 255.228 -102.541 264.667L-102.54 264.668C-108.628 276.807 -118.508 286.841 -130.181 293.595V293.596C-135.501 296.672 -142.458 300.665 -148.962 301.729H-148.963C-151.065 302.073 -153.102 302.208 -154.993 302.354C-156.705 302.487 -158.304 302.632 -159.856 302.933C-162.432 306.577 -165.005 310.221 -167.578 313.865C-170.164 317.527 -172.75 321.189 -175.338 324.851C-174.296 340.654 -175.601 356.464 -179.107 371.759C-150.973 339.532 -114.575 315.187 -73.498 300.679L-71.8838 300.112C-55.2794 294.332 -38.3166 289.754 -21.4365 285.122C-8.81983 275.594 0.951996 262.887 7.09277 248.542C6.42919 241.979 4.10801 236.5 1.36816 230.9C-1.40263 225.238 -4.64957 219.37 -6.73438 212.35V212.351C-11.4747 196.437 -12.8959 178.715 -9.14648 162.341L-8.92578 161.401C-6.57866 151.707 -2.42949 142.635 1.7207 133.722C6.02645 124.474 10.3291 115.404 12.8555 105.759L13.8115 102.112L15.6221 105.419C21.944 116.96 30.36 127.426 38.0361 138.522C45.6562 149.538 52.4539 161.063 55.126 174.38L55.3555 175.594C57.5833 188.161 55.2922 201.235 49.7861 212.604L49.7852 212.605C43.091 226.393 30.2735 237.297 18.5898 247.282C14.3214 258.959 7.959 269.738 -0.225586 279.145C5.93432 277.339 12.0667 275.454 18.1543 273.419L19.6504 272.914C51.021 262.239 79.5284 246.26 105.472 225.558L107.955 223.558C108.548 223.076 109.138 222.59 109.73 222.104C107.584 211.356 106.647 200.425 107.396 189.633C98.7421 179.576 94.1697 171.66 89.1143 158.946L88.6152 157.681C73.5258 119.048 82.6534 79.1135 104.993 45.1748L106.518 42.8594L107.622 45.4023Z" stroke="#44838E" stroke-width="3"/>
</g>
</svg>
