<svg width="1080" height="1149" viewBox="0 0 1080 1149" fill="none" xmlns="http://www.w3.org/2000/svg">
<mask id="mask0_334_19" style="mask-type:alpha" maskUnits="userSpaceOnUse" x="0" y="0" width="1080" height="1149">
<rect width="1080" height="1149" fill="#ECECEC"/>
</mask>
<g mask="url(#mask0_334_19)">
<rect width="1080" height="1149" fill="#ECECEC"/>
<path opacity="0.79" d="M902.883 894.401C897.606 906.529 889.751 917.428 882.216 928.705C874.721 939.921 867.574 951.472 864.039 964.672L863.854 965.38C856.253 995.161 872.395 1023.11 892.058 1044.24C893.038 1053.84 892.545 1063.63 891.021 1073.29C876.979 1061.11 863.645 1048.13 850.669 1034.78C849.585 1029.58 848.185 1021.9 846.869 1015.01C846.195 1011.48 845.543 1008.16 844.969 1005.52C844.41 1002.94 843.891 1000.83 843.463 999.85C833.188 976.303 817.297 955.237 797.655 938.692H797.654L797.348 938.446C796.548 937.83 795.173 936.925 793.437 935.839C791.416 934.575 788.812 933.012 785.837 931.27C779.886 927.785 772.423 923.572 765.108 919.599C757.798 915.627 750.614 911.882 745.229 909.339C742.545 908.072 740.263 907.082 738.62 906.515C737.819 906.238 737.066 906.024 736.46 905.962C736.179 905.933 735.746 905.914 735.315 906.066C735.079 906.15 734.788 906.305 734.544 906.59C734.289 906.888 734.162 907.237 734.134 907.572L734.004 909.183C731.426 943.026 738.588 978.565 759.131 1005.78L759.132 1005.78C780.017 1033.44 811.226 1040.63 843.136 1042.38C881.07 1081.23 922.293 1117.45 973.446 1138.13L973.445 1138.13C993.525 1146.26 1014.31 1152.15 1035.07 1157.85L1035.07 1157.86C1035.46 1157.97 1035.86 1158.07 1036.25 1158.18C1036.65 1158.29 1037.04 1158.4 1037.44 1158.51L1037.44 1158.52C1047.04 1161.16 1056.61 1163.76 1066.14 1166.56H1066.14C1068.46 1167.24 1070.77 1167.93 1073.07 1168.65C1066.8 1169.15 1060.56 1170.18 1054.43 1171.76C1031.67 1170.14 1008.7 1165.09 987.867 1182.49L987.301 1182.97C975.5 1193.12 969.047 1207.98 963.608 1222.13L962.402 1225.29C956.415 1241.12 951.055 1257.18 946.338 1273.43L945.723 1275.55L947.919 1275.34C965.885 1273.65 981.814 1263.73 996.642 1254.33H996.643C1017.94 1240.81 1040.91 1225.7 1051.21 1202.01L1051.21 1202.01C1052.79 1198.38 1054.11 1194.61 1055.48 1191.06C1056.79 1187.68 1058.16 1184.42 1059.91 1181.39C1075.38 1177.93 1091.51 1178.24 1107.11 1182.32L1107.11 1182.32C1108.24 1182.61 1109.31 1182.56 1110.26 1182.21C1126.2 1189.09 1141.5 1197.31 1155.84 1207.53L1157.24 1208.54C1180.85 1225.64 1201.15 1246.92 1217.26 1271.07C1220.73 1278.89 1224.82 1286.46 1229.48 1293.72L1229.48 1293.73C1230.09 1294.67 1230.89 1295.34 1231.78 1295.75C1232.29 1296.74 1232.79 1297.74 1233.28 1298.73L1233.29 1298.73C1234.03 1300.23 1235.23 1301.14 1236.61 1301.43C1237.94 1301.72 1239.3 1301.41 1240.4 1300.77C1242.58 1299.51 1244.23 1296.63 1242.68 1293.53L1241.78 1291.74C1237.26 1282.84 1232.26 1274.27 1226.8 1266.06C1215.78 1241.09 1211.26 1213.69 1213.71 1186.14V1186.14C1213.78 1185.44 1213.72 1184.79 1213.54 1184.18C1219.31 1177 1223.64 1168.96 1226.44 1160.16C1232.09 1155.39 1239.09 1151.04 1241.89 1149.26V1149.25C1255.13 1140.86 1261.1 1129.32 1264.52 1114.22L1264.85 1112.75C1270.21 1087.55 1265.82 1061.46 1261.14 1036.49L1260.58 1033.48L1258.54 1035.78C1250.34 1045.06 1240.4 1052.91 1231.08 1061.59C1221.83 1070.19 1213.32 1079.48 1208.52 1091.37L1208.07 1092.5C1203.63 1104.23 1203.49 1116.87 1205.34 1128.98V1128.98C1206.4 1135.9 1207.07 1143.39 1208.95 1150.39V1150.39C1209.6 1152.8 1210.44 1155.13 1211.31 1157.42C1212.11 1159.53 1212.92 1161.58 1213.65 1163.66C1211.66 1168.13 1209.16 1172.31 1206.16 1176.23C1204.57 1173.98 1202.98 1171.74 1201.39 1169.49C1199.53 1166.87 1197.68 1164.26 1195.83 1161.64C1196.96 1155.41 1198.81 1149.18 1197.98 1141.68L1197.79 1140.11C1196.79 1132.24 1194.86 1124.51 1192.86 1116.96V1116.96L1192.49 1115.61C1188.62 1101.76 1181.93 1088.61 1171.8 1078.16L1171.04 1077.38C1163.12 1069.44 1153.59 1063.33 1144.33 1057.41C1134.6 1051.17 1124.86 1044.94 1115.12 1038.71L1113.06 1037.39L1112.82 1039.82C1111 1058.09 1112.59 1076.54 1115.88 1094.51C1117.86 1105.31 1120.53 1116.24 1125.55 1126.21L1125.55 1126.21C1131.99 1139.03 1142.45 1149.63 1154.8 1156.77L1154.8 1156.77C1160.26 1159.92 1167.34 1163.98 1174.02 1165.25L1174.67 1165.36C1176.89 1165.72 1179.04 1165.87 1181.05 1166.02C1182.88 1166.16 1184.59 1166.32 1186.25 1166.64C1188.98 1170.5 1191.72 1174.37 1194.45 1178.23C1197.19 1182.11 1199.94 1185.99 1202.69 1189.87C1201.57 1206.71 1202.98 1223.55 1206.76 1239.83C1176.93 1205.63 1138.29 1179.79 1094.67 1164.42L1092.96 1163.82C1075.36 1157.7 1057.39 1152.86 1039.5 1147.96C1026.11 1137.87 1015.73 1124.41 1009.22 1109.21C1009.92 1102.25 1012.39 1096.43 1015.3 1090.5C1018.23 1084.51 1021.67 1078.31 1023.88 1070.9V1070.9C1028.89 1054.08 1030.4 1035.35 1026.43 1018.05L1026.2 1017.06C1023.71 1006.82 1019.32 997.232 1014.92 987.805C1010.36 978.027 1005.8 968.428 1003.12 958.22L1002.16 954.579L1000.35 957.878C993.653 970.088 984.73 981.167 976.602 992.895C968.53 1004.54 961.335 1016.72 958.508 1030.78L958.383 1031.42C955.831 1044.89 958.239 1058.95 964.159 1071.15V1071.16C971.246 1085.73 984.821 1097.25 997.208 1107.82C1001.76 1120.26 1008.57 1131.73 1017.33 1141.73C1010.71 1139.79 1004.11 1137.77 997.563 1135.59H997.562L995.978 1135.05C962.73 1123.76 932.518 1106.86 905.023 1084.96L902.391 1082.84C901.749 1082.32 901.109 1081.8 900.469 1081.27C902.751 1069.88 903.748 1058.3 902.949 1046.87C912.126 1036.23 916.969 1027.86 922.327 1014.41L922.855 1013.08C938.83 972.252 929.169 930.049 905.511 894.174L903.987 891.864L902.883 894.401Z" stroke="#44838E" stroke-width="3"/>
<path opacity="0.79" d="M58.6221 201.402C63.5987 212.862 71.0075 223.161 78.1221 233.827C84.975 244.101 91.5267 254.682 94.9658 266.693L95.2881 267.86L95.4639 268.531C102.646 296.723 87.3981 323.17 68.8428 343.155C67.9269 352.163 68.3859 361.359 69.8037 370.425C83.0047 358.948 95.5443 346.713 107.749 334.132C108.771 329.224 110.09 321.972 111.33 315.465C111.966 312.127 112.582 308.987 113.124 306.485C113.65 304.055 114.142 302.047 114.55 301.112C124.252 278.836 139.26 258.907 157.809 243.254L158.1 243.02C158.859 242.433 160.161 241.574 161.8 240.548C163.708 239.353 166.166 237.874 168.974 236.227C174.591 232.931 181.636 228.947 188.541 225.188C195.441 221.433 202.223 217.891 207.309 215.485C209.842 214.287 211.999 213.349 213.555 212.811C214.312 212.549 215.03 212.344 215.612 212.284C215.881 212.256 216.305 212.237 216.73 212.388C216.964 212.47 217.253 212.624 217.495 212.906C217.749 213.202 217.873 213.55 217.901 213.882L218.024 215.404C220.42 246.912 213.909 279.98 195.206 305.571L194.292 306.804C174.564 332.977 145.089 339.785 114.975 341.436C79.1751 378.173 40.2633 412.422 -8.02344 431.976L-8.02246 431.977C-26.9793 439.663 -46.6034 445.232 -66.1934 450.63L-66.1924 450.631C-66.5651 450.735 -66.9379 450.838 -67.3105 450.942L-68.4287 451.255L-68.4336 451.256C-77.4912 453.754 -86.527 456.217 -95.5156 458.86L-95.5166 458.861C-97.5731 459.465 -99.6218 460.081 -101.663 460.712C-95.8796 461.196 -90.1381 462.164 -84.4814 463.614C-63.0232 462.087 -41.3013 457.309 -21.6113 473.783L-21.0762 474.238C-9.92089 483.85 -3.82408 497.922 1.30859 511.303L2.44629 514.294C8.09773 529.262 13.1584 544.452 17.6113 559.817L18.2246 561.936L16.0303 561.729C0.109834 560.229 -14.1143 551.879 -27.3594 543.514L-29.9951 541.843C-50.0967 529.064 -71.7987 514.76 -81.5342 492.334V492.333C-83.0223 488.897 -84.2712 485.332 -85.5635 481.978C-86.7911 478.791 -88.0798 475.731 -89.7207 472.879C-104.297 469.614 -119.493 469.91 -134.19 473.766L-134.193 473.767C-135.261 474.044 -136.278 473.997 -137.181 473.671C-152.707 480.383 -167.577 488.45 -181.477 498.539V498.54C-203.755 514.703 -222.901 534.816 -238.099 557.645C-241.381 565.037 -245.236 572.203 -249.637 579.067L-249.64 579.072C-250.221 579.971 -250.971 580.61 -251.815 581C-252.294 581.936 -252.767 582.865 -253.227 583.793V583.794C-253.939 585.232 -255.091 586.111 -256.422 586.397C-257.704 586.673 -259.004 586.37 -260.057 585.761C-262.145 584.552 -263.727 581.79 -262.247 578.811L-261.397 577.116C-257.131 568.696 -252.408 560.592 -247.255 552.836C-236.866 529.239 -232.598 503.336 -234.913 477.308V477.307C-234.974 476.652 -234.923 476.034 -234.764 475.466C-240.192 468.685 -244.276 461.09 -246.912 452.777C-252.237 448.277 -258.831 444.174 -261.475 442.489V442.488C-273.997 434.538 -279.635 423.6 -282.868 409.313L-283.174 407.92C-288.238 384.07 -284.09 359.39 -279.679 335.78L-279.114 332.758L-277.08 335.063C-269.34 343.835 -259.971 351.255 -251.161 359.463C-242.432 367.596 -234.391 376.399 -229.848 387.652H-229.849C-225.239 399.062 -225.042 411.433 -226.84 423.256V423.258C-227.839 429.795 -228.478 436.892 -230.253 443.513V443.515C-230.867 445.797 -231.663 448.006 -232.479 450.164C-233.231 452.156 -233.991 454.079 -234.678 456.04C-232.822 460.209 -230.496 464.125 -227.7 467.786C-226.222 465.694 -224.745 463.602 -223.267 461.511C-221.524 459.044 -219.781 456.577 -218.038 454.11C-219.109 448.241 -220.851 442.342 -220.063 435.252C-219.182 427.293 -217.24 419.473 -215.229 411.858L-215.228 411.857L-214.882 410.587C-211.224 397.48 -204.908 385.031 -195.327 375.134C-188.662 368.238 -180.711 362.804 -172.78 357.681L-169.387 355.501C-160.203 349.6 -151.01 343.709 -141.817 337.818L-139.757 336.498L-139.515 338.934C-137.798 356.22 -139.299 373.672 -142.411 390.669C-144.279 400.888 -146.801 411.228 -151.541 420.667L-151.54 420.668C-157.628 432.807 -167.508 442.841 -179.181 449.595V449.596C-184.501 452.672 -191.458 456.665 -197.962 457.729H-197.963C-200.065 458.073 -202.102 458.208 -203.993 458.354C-205.705 458.487 -207.304 458.632 -208.856 458.933C-211.432 462.577 -214.005 466.221 -216.578 469.865C-219.164 473.527 -221.75 477.189 -224.338 480.851C-223.296 496.654 -224.601 512.464 -228.107 527.759C-199.973 495.532 -163.575 471.187 -122.498 456.679L-120.884 456.112C-104.279 450.332 -87.3166 445.754 -70.4365 441.122C-57.8198 431.594 -48.048 418.887 -41.9072 404.542C-42.5708 397.979 -44.892 392.5 -47.6318 386.9C-50.4026 381.238 -53.6496 375.37 -55.7344 368.35V368.351C-60.4747 352.437 -61.8959 334.715 -58.1465 318.341L-57.9258 317.401C-55.5787 307.707 -51.4295 298.635 -47.2793 289.722C-42.9735 280.474 -38.6709 271.404 -36.1445 261.759L-35.1885 258.112L-33.3779 261.419C-27.056 272.96 -18.64 283.426 -10.9639 294.522C-3.3438 305.538 3.45394 317.063 6.12598 330.38L6.35547 331.594C8.58333 344.161 6.29222 357.235 0.786133 368.604L0.785156 368.605C-5.90895 382.393 -18.7265 393.297 -30.4102 403.282C-34.6786 414.959 -41.041 425.738 -49.2256 435.145C-43.0657 433.339 -36.9333 431.454 -30.8457 429.419L-29.3496 428.914C2.02096 418.239 30.5284 402.26 56.4717 381.558L58.9551 379.558C59.5484 379.076 60.1385 378.59 60.7305 378.104C58.5843 367.356 57.6473 356.425 58.3965 345.633C49.7421 335.576 45.1697 327.66 40.1143 314.946L39.6152 313.681C24.5258 275.048 33.6534 235.114 55.9932 201.175L57.5176 198.859L58.6221 201.402Z" stroke="#44838E" stroke-width="3"/>
</g>
</svg>
