<svg width="227" height="158" viewBox="0 0 227 158" fill="none" xmlns="http://www.w3.org/2000/svg">
<path d="M105.948 144.052C103.522 143.764 101.663 143.053 100.235 141.815C99.6606 141.288 99.2378 140.625 99.0463 139.81C98.9984 139.762 98.9984 139.666 98.9984 139.618C98.9506 139.522 98.9506 139.426 98.9506 139.33V138.284C98.9506 138.14 98.9984 137.996 99.0463 137.853C99.2857 136.71 99.9479 135.424 101.001 133.994C101.807 132.947 102.86 131.805 104.145 130.519C105.429 129.233 106.714 128.138 107.95 127.14C109.187 126.141 110.088 125.566 110.711 125.374C110.854 125.326 110.95 125.326 111.046 125.326C111.142 125.326 111.237 125.374 111.333 125.422C111.477 125.47 111.572 125.566 111.572 125.614C111.62 125.71 111.62 125.758 111.62 125.806C111.62 125.853 111.62 125.949 111.525 126.045C111.525 126.093 111.477 126.093 111.477 126.093C111.429 126.093 111.381 126.093 111.381 126.141H110.854C110.807 126.189 110.711 126.237 110.567 126.285C109.666 126.764 108.429 127.715 106.809 129.193C105.19 130.623 103.762 132.005 102.477 133.435C101.288 134.865 100.435 136.151 100.004 137.389C99.8122 137.964 99.7165 138.436 99.7165 138.915C99.7165 139.107 99.7644 139.298 99.7644 139.442C99.908 140.113 100.243 140.681 100.762 141.208C102.19 142.446 104.137 143.165 106.714 143.301H107.049C108.668 143.301 110.288 142.965 111.9 142.35C113.663 141.727 115.274 140.776 116.798 139.49C117.086 139.251 117.421 138.963 117.796 138.587C118.171 138.212 118.466 137.876 118.649 137.637C119.647 136.447 120.269 135.208 120.508 133.922C120.604 133.634 120.604 133.347 120.604 133.067V131.733C120.46 130.83 120.173 129.872 119.702 128.921C119.415 128.394 119.08 127.827 118.657 127.204C118.226 126.58 117.612 125.726 116.75 124.679C116.607 124.439 116.415 124.2 116.224 123.968C116.08 123.729 115.937 123.537 115.793 123.393C114.844 122.011 114.221 120.773 113.982 119.678C113.934 119.391 113.934 119.055 113.934 118.728C113.934 118.344 113.934 118.057 113.982 117.777C114.221 116.635 114.836 115.588 115.889 114.534C116.934 113.487 118.171 112.576 119.694 111.865C121.266 111.106 122.647 110.723 123.74 110.723C123.835 110.723 123.979 110.723 124.123 110.771C124.314 110.771 124.505 110.819 124.649 110.819C124.793 110.867 124.936 110.915 125.128 111.01C125.798 111.346 126.125 111.865 126.125 112.632C126.125 112.728 126.077 112.824 126.077 112.92C125.982 113.727 125.455 114.685 124.553 115.828C124.41 115.971 124.17 116.211 123.843 116.539C123.508 116.922 123.133 117.298 122.702 117.729C122.319 118.112 121.992 118.44 121.801 118.632C121.561 118.871 121.418 119.015 121.322 119.111C121.226 119.255 121.178 119.303 121.178 119.351C121.131 119.494 121.083 119.542 121.035 119.59C120.987 119.638 120.939 119.686 120.843 119.686H120.7C120.7 119.638 120.652 119.638 120.556 119.59C120.508 119.542 120.508 119.494 120.46 119.447V119.303C120.46 119.207 120.508 119.063 120.556 118.919C120.652 118.823 120.796 118.632 121.035 118.392C121.274 118.104 121.657 117.721 122.128 117.25C123.029 116.347 123.652 115.628 124.083 115.157C124.466 114.629 124.793 114.158 125.032 113.679C125.224 113.247 125.271 112.92 125.271 112.632C125.271 112.345 125.224 112.153 125.08 111.961C124.841 111.674 124.37 111.53 123.748 111.53C123.077 111.53 122.367 111.674 121.514 111.961C119.559 112.672 117.899 113.679 116.519 115.013C115.33 116.203 114.708 117.441 114.708 118.728C114.708 119.303 114.804 119.87 115.091 120.493C115.282 120.972 115.57 121.492 115.897 122.067C116.28 122.642 116.846 123.449 117.564 124.4C118.091 125.071 118.466 125.59 118.753 125.925C118.992 126.309 119.232 126.636 119.423 126.924C120.421 128.45 121.043 129.784 121.282 131.022C121.378 131.454 121.426 132.021 121.426 132.692C121.426 133.738 121.234 134.737 120.803 135.696C119.902 137.741 118.234 139.602 115.809 141.272C112.953 143.133 110.001 144.132 107.009 144.132C106.817 144.132 106.626 144.084 106.434 144.084H105.956L105.948 144.052Z" fill="#77AB94"/>
<path d="M105.948 144.052C103.522 143.764 101.663 143.053 100.235 141.815C99.6606 141.288 99.2378 140.625 99.0463 139.81C98.9984 139.762 98.9984 139.666 98.9984 139.618C98.9506 139.522 98.9506 139.426 98.9506 139.33V138.284C98.9506 138.14 98.9984 137.996 99.0463 137.853C99.2857 136.71 99.9479 135.424 101.001 133.994C101.807 132.947 102.86 131.805 104.145 130.519C105.429 129.233 106.714 128.138 107.95 127.14C109.187 126.141 110.088 125.566 110.711 125.374C110.854 125.326 110.95 125.326 111.046 125.326C111.142 125.326 111.237 125.374 111.333 125.422C111.477 125.47 111.572 125.566 111.572 125.614C111.62 125.71 111.62 125.758 111.62 125.806C111.62 125.853 111.62 125.949 111.525 126.045C111.525 126.093 111.477 126.093 111.477 126.093C111.429 126.093 111.381 126.093 111.381 126.141H110.854C110.807 126.189 110.711 126.237 110.567 126.285C109.666 126.764 108.429 127.715 106.809 129.193C105.19 130.623 103.762 132.005 102.477 133.435C101.288 134.865 100.435 136.151 100.004 137.389C99.8122 137.964 99.7165 138.436 99.7165 138.915C99.7165 139.107 99.7644 139.298 99.7644 139.442C99.908 140.113 100.243 140.681 100.762 141.208C102.19 142.446 104.137 143.165 106.714 143.301H107.049C108.668 143.301 110.288 142.965 111.9 142.35C113.663 141.727 115.274 140.776 116.798 139.49C117.086 139.251 117.421 138.963 117.796 138.587C118.171 138.212 118.466 137.876 118.649 137.637C119.647 136.447 120.269 135.208 120.508 133.922C120.604 133.634 120.604 133.347 120.604 133.067V131.733C120.46 130.83 120.173 129.872 119.702 128.921C119.415 128.394 119.08 127.827 118.657 127.204C118.226 126.58 117.612 125.726 116.75 124.679C116.607 124.439 116.415 124.2 116.224 123.968C116.08 123.729 115.937 123.537 115.793 123.393C114.844 122.011 114.221 120.773 113.982 119.678C113.934 119.391 113.934 119.055 113.934 118.728C113.934 118.344 113.934 118.057 113.982 117.777C114.221 116.635 114.836 115.588 115.889 114.534C116.934 113.487 118.171 112.576 119.694 111.865C121.266 111.106 122.647 110.723 123.74 110.723C123.835 110.723 123.979 110.723 124.123 110.771C124.314 110.771 124.505 110.819 124.649 110.819C124.793 110.867 124.936 110.915 125.128 111.01C125.798 111.346 126.125 111.865 126.125 112.632C126.125 112.728 126.077 112.824 126.077 112.92C125.982 113.727 125.455 114.685 124.553 115.828C124.41 115.971 124.17 116.211 123.843 116.539C123.508 116.922 123.133 117.298 122.702 117.729C122.319 118.112 121.992 118.44 121.801 118.632C121.561 118.871 121.418 119.015 121.322 119.111C121.226 119.255 121.178 119.303 121.178 119.351C121.131 119.494 121.083 119.542 121.035 119.59C120.987 119.638 120.939 119.686 120.843 119.686H120.7C120.7 119.638 120.652 119.638 120.556 119.59C120.508 119.542 120.508 119.494 120.46 119.447V119.303C120.46 119.207 120.508 119.063 120.556 118.919C120.652 118.823 120.796 118.632 121.035 118.392C121.274 118.104 121.657 117.721 122.128 117.25C123.029 116.347 123.652 115.628 124.083 115.157C124.466 114.629 124.793 114.158 125.032 113.679C125.224 113.247 125.271 112.92 125.271 112.632C125.271 112.345 125.224 112.153 125.08 111.961C124.841 111.674 124.37 111.53 123.748 111.53C123.077 111.53 122.367 111.674 121.514 111.961C119.559 112.672 117.899 113.679 116.519 115.013C115.33 116.203 114.708 117.441 114.708 118.728C114.708 119.303 114.804 119.87 115.091 120.493C115.282 120.972 115.57 121.492 115.897 122.067C116.28 122.642 116.846 123.449 117.564 124.4C118.091 125.071 118.466 125.59 118.753 125.925C118.992 126.309 119.232 126.636 119.423 126.924C120.421 128.45 121.043 129.784 121.282 131.022C121.378 131.454 121.426 132.021 121.426 132.692C121.426 133.738 121.234 134.737 120.803 135.696C119.902 137.741 118.234 139.602 115.809 141.272C112.953 143.133 110.001 144.132 107.009 144.132C106.817 144.132 106.626 144.084 106.434 144.084H105.956L105.948 144.052Z" stroke="#77AB94" stroke-width="0.22" stroke-miterlimit="22.93"/>
<path d="M129.939 130.335C129.939 130.096 129.987 129.808 130.13 129.528C130.13 129.48 130.178 129.432 130.178 129.385L130.226 129.289C130.178 129.289 130.178 129.337 130.13 129.337C130.082 129.385 129.987 129.432 129.939 129.48C129.181 130.008 128.367 130.527 127.561 130.91C126.987 131.198 126.516 131.39 126.229 131.39H126.085C125.798 131.39 125.607 131.294 125.511 131.15C125.463 131.054 125.415 130.91 125.415 130.767C125.415 130.671 125.415 130.623 125.463 130.527C125.511 130.239 125.607 130 125.702 129.816C125.942 129.337 126.229 128.913 126.604 128.434C126.7 128.338 126.747 128.242 126.795 128.194C126.795 128.146 126.843 128.098 126.843 128.05C126.843 127.859 126.987 127.619 127.37 127.427C127.513 127.379 127.609 127.331 127.705 127.331C127.801 127.331 127.896 127.427 127.944 127.571C127.992 127.571 127.992 127.619 127.992 127.667C127.992 127.715 127.944 127.715 127.944 127.763C127.896 127.859 127.848 127.955 127.705 128.05C127.274 128.53 126.947 129.001 126.612 129.48C126.325 129.96 126.133 130.335 126.037 130.623C126.037 130.671 126.085 130.719 126.085 130.719H126.133C126.229 130.719 126.42 130.671 126.708 130.575C126.947 130.479 127.234 130.383 127.513 130.191C128.04 129.904 128.559 129.568 129.133 129.193C129.707 128.817 130.178 128.482 130.561 128.146C130.992 127.763 131.271 127.523 131.415 127.523H131.463C131.558 127.523 131.606 127.571 131.702 127.619C131.75 127.667 131.798 127.763 131.798 127.859V127.907C131.75 127.955 131.75 128.002 131.702 128.098C131.654 128.146 131.606 128.242 131.558 128.29C130.936 129.193 130.657 129.864 130.609 130.335C130.609 130.671 130.657 130.814 130.8 130.814H130.992C131.183 130.814 131.375 130.767 131.566 130.671C131.854 130.527 132.045 130.431 132.189 130.287H132.284C133.09 129.712 133.904 129.145 134.662 128.57C134.949 128.378 135.141 128.282 135.236 128.282C135.284 128.282 135.332 128.282 135.332 128.33C135.38 128.33 135.38 128.378 135.38 128.426C135.38 128.522 135.236 128.713 134.997 128.953C134.191 129.624 133.378 130.239 132.524 130.814C132.237 131.006 131.902 131.15 131.622 131.294C131.335 131.39 131.096 131.438 130.912 131.438C130.729 131.438 130.577 131.438 130.433 131.342C130.146 131.246 129.955 130.91 129.955 130.343L129.939 130.335Z" fill="#77AB94"/>
<path d="M129.939 130.335C129.939 130.096 129.987 129.808 130.13 129.528C130.13 129.48 130.178 129.432 130.178 129.385L130.226 129.289C130.178 129.289 130.178 129.337 130.13 129.337C130.082 129.385 129.987 129.432 129.939 129.48C129.181 130.008 128.367 130.527 127.561 130.91C126.987 131.198 126.516 131.39 126.229 131.39H126.085C125.798 131.39 125.607 131.294 125.511 131.15C125.463 131.054 125.415 130.91 125.415 130.767C125.415 130.671 125.415 130.623 125.463 130.527C125.511 130.239 125.607 130 125.702 129.816C125.942 129.337 126.229 128.913 126.604 128.434C126.7 128.338 126.747 128.242 126.795 128.194C126.795 128.146 126.843 128.098 126.843 128.05C126.843 127.859 126.987 127.619 127.37 127.427C127.513 127.379 127.609 127.331 127.705 127.331C127.801 127.331 127.896 127.427 127.944 127.571C127.992 127.571 127.992 127.619 127.992 127.667C127.992 127.715 127.944 127.715 127.944 127.763C127.896 127.859 127.848 127.955 127.705 128.05C127.274 128.53 126.947 129.001 126.612 129.48C126.325 129.96 126.133 130.335 126.037 130.623C126.037 130.671 126.085 130.719 126.085 130.719H126.133C126.229 130.719 126.42 130.671 126.708 130.575C126.947 130.479 127.234 130.383 127.513 130.191C128.04 129.904 128.559 129.568 129.133 129.193C129.707 128.817 130.178 128.482 130.561 128.146C130.992 127.763 131.271 127.523 131.415 127.523H131.463C131.558 127.523 131.606 127.571 131.702 127.619C131.75 127.667 131.798 127.763 131.798 127.859V127.907C131.75 127.955 131.75 128.002 131.702 128.098C131.654 128.146 131.606 128.242 131.558 128.29C130.936 129.193 130.657 129.864 130.609 130.335C130.609 130.671 130.657 130.814 130.8 130.814H130.992C131.183 130.814 131.375 130.767 131.566 130.671C131.854 130.527 132.045 130.431 132.189 130.287H132.284C133.09 129.712 133.904 129.145 134.662 128.57C134.949 128.378 135.141 128.282 135.236 128.282C135.284 128.282 135.332 128.282 135.332 128.33C135.38 128.33 135.38 128.378 135.38 128.426C135.38 128.522 135.236 128.713 134.997 128.953C134.191 129.624 133.378 130.239 132.524 130.814C132.237 131.006 131.902 131.15 131.622 131.294C131.335 131.39 131.096 131.438 130.912 131.438C130.729 131.438 130.577 131.438 130.433 131.342C130.146 131.246 129.955 130.91 129.955 130.343L129.939 130.335Z" stroke="#77AB94" stroke-width="0.22" stroke-miterlimit="22.93"/>
<path d="M134.885 131.286C134.455 131.142 134.175 130.902 134.175 130.663C134.127 130.423 134.08 130.231 134.127 130.04C134.127 129.848 134.175 129.656 134.271 129.464C134.558 128.841 134.941 128.322 135.46 127.843C136.034 127.315 136.505 126.988 136.984 126.748C137.175 126.652 137.367 126.604 137.558 126.556C137.702 126.509 137.798 126.509 137.941 126.509C138.133 126.509 138.324 126.556 138.468 126.652C138.755 126.796 138.851 126.892 138.851 127.036V127.228C138.803 127.515 138.611 127.755 138.276 127.986C137.606 128.418 136.944 128.658 136.234 128.658C135.994 128.658 135.803 128.658 135.564 128.61C135.276 128.897 135.085 129.137 134.941 129.416C134.846 129.704 134.798 129.896 134.798 129.992C134.75 130.231 134.846 130.471 135.037 130.615C135.181 130.711 135.42 130.759 135.659 130.759H135.899C136.234 130.711 136.521 130.663 136.752 130.615C137.462 130.471 138.324 130.183 139.321 129.76C139.657 129.616 139.848 129.472 139.992 129.376C140.279 129.233 140.47 129.185 140.566 129.185H140.662C140.758 129.185 140.805 129.281 140.758 129.376V129.472C140.71 129.616 140.566 129.76 140.327 129.904C140.135 130.048 139.8 130.191 139.425 130.335C138.236 130.862 137.287 131.19 136.473 131.286C136.186 131.334 135.899 131.382 135.667 131.382C135.38 131.382 135.093 131.334 134.909 131.286H134.885ZM136.505 128.09C136.792 128.042 137.127 127.947 137.407 127.851L137.742 127.659C137.981 127.467 138.125 127.371 138.125 127.275V127.228C138.077 127.18 137.981 127.132 137.837 127.132C137.79 127.132 137.694 127.18 137.598 127.18C137.407 127.228 137.119 127.371 136.744 127.611C136.649 127.659 136.553 127.755 136.457 127.851C136.266 127.947 136.17 128.042 136.122 128.09C136.122 128.138 136.17 128.138 136.218 128.138C136.266 128.138 136.361 128.138 136.505 128.09Z" fill="#77AB94"/>
<path d="M134.885 131.286C134.455 131.142 134.175 130.902 134.175 130.663C134.127 130.423 134.08 130.231 134.127 130.04C134.127 129.848 134.175 129.656 134.271 129.464C134.558 128.841 134.941 128.322 135.46 127.843C136.034 127.315 136.505 126.988 136.984 126.748C137.175 126.652 137.367 126.604 137.558 126.556C137.702 126.509 137.798 126.509 137.941 126.509C138.133 126.509 138.324 126.556 138.468 126.652C138.755 126.796 138.851 126.892 138.851 127.036V127.228C138.803 127.515 138.611 127.755 138.276 127.986C137.606 128.418 136.944 128.658 136.234 128.658C135.994 128.658 135.803 128.658 135.564 128.61C135.276 128.897 135.085 129.137 134.941 129.416C134.846 129.704 134.798 129.896 134.798 129.992C134.75 130.231 134.846 130.471 135.037 130.615C135.181 130.711 135.42 130.759 135.659 130.759H135.899C136.234 130.711 136.521 130.663 136.752 130.615C137.462 130.471 138.324 130.183 139.321 129.76C139.657 129.616 139.848 129.472 139.992 129.376C140.279 129.233 140.47 129.185 140.566 129.185H140.662C140.758 129.185 140.805 129.281 140.758 129.376V129.472C140.71 129.616 140.566 129.76 140.327 129.904C140.135 130.048 139.8 130.191 139.425 130.335C138.236 130.862 137.287 131.19 136.473 131.286C136.186 131.334 135.899 131.382 135.667 131.382C135.38 131.382 135.093 131.334 134.909 131.286H134.885ZM136.505 128.09C136.792 128.042 137.127 127.947 137.407 127.851L137.742 127.659C137.981 127.467 138.125 127.371 138.125 127.275V127.228C138.077 127.18 137.981 127.132 137.837 127.132C137.79 127.132 137.694 127.18 137.598 127.18C137.407 127.228 137.119 127.371 136.744 127.611C136.649 127.659 136.553 127.755 136.457 127.851C136.266 127.947 136.17 128.042 136.122 128.09C136.122 128.138 136.17 128.138 136.218 128.138C136.266 128.138 136.361 128.138 136.505 128.09Z" stroke="#77AB94" stroke-width="0.22" stroke-miterlimit="22.93"/>
<path d="M135.795 135.815C135.651 135.72 135.556 135.624 135.556 135.48C135.556 135.384 135.604 135.288 135.651 135.192C135.699 135.096 135.795 134.953 135.939 134.809C136.178 134.377 136.649 133.714 137.367 132.804C138.077 131.853 138.843 130.894 139.601 129.944C140.837 128.418 142.122 126.892 143.406 125.414C145.17 123.409 146.829 121.556 148.449 119.934C151.018 117.314 152.829 115.836 153.874 115.452C153.97 115.452 154.113 115.404 154.209 115.404C154.353 115.404 154.496 115.452 154.592 115.548C154.736 115.596 154.784 115.74 154.784 115.932V116.123C154.64 116.698 153.978 117.601 152.693 118.935C151.457 120.269 149.789 121.795 147.699 123.609C145.888 125.135 144.364 126.277 143.127 127.036L142.648 127.323L142.122 127.899C140.694 129.664 139.122 131.565 137.55 133.666C137.072 134.29 136.744 134.713 136.553 135.001C136.361 135.288 136.218 135.48 136.17 135.576C136.122 135.72 136.026 135.815 135.883 135.815H135.787H135.795ZM145.122 124.855C146.741 123.569 148.313 122.187 149.877 120.757C151.401 119.327 152.59 118.136 153.395 117.138C153.491 116.994 153.587 116.898 153.731 116.754C153.826 116.611 153.874 116.467 153.97 116.371C154.018 116.275 154.066 116.227 154.066 116.179L154.018 116.131L153.97 116.179L153.778 116.275C152.111 117.13 149.255 119.846 145.21 124.376C144.683 124.951 144.404 125.278 144.308 125.374V125.422C144.308 125.422 144.356 125.422 144.404 125.326C144.547 125.278 144.787 125.087 145.114 124.847L145.122 124.855Z" fill="#77AB94"/>
<path d="M135.795 135.815C135.651 135.72 135.556 135.624 135.556 135.48C135.556 135.384 135.604 135.288 135.651 135.192C135.699 135.096 135.795 134.953 135.939 134.809C136.178 134.377 136.649 133.714 137.367 132.804C138.077 131.853 138.843 130.894 139.601 129.944C140.837 128.418 142.122 126.892 143.406 125.414C145.17 123.409 146.829 121.556 148.449 119.934C151.018 117.314 152.829 115.836 153.874 115.452C153.97 115.452 154.113 115.404 154.209 115.404C154.353 115.404 154.496 115.452 154.592 115.548C154.736 115.596 154.784 115.74 154.784 115.932V116.123C154.64 116.698 153.978 117.601 152.693 118.935C151.457 120.269 149.789 121.795 147.699 123.609C145.888 125.135 144.364 126.277 143.127 127.036L142.648 127.323L142.122 127.899C140.694 129.664 139.122 131.565 137.55 133.666C137.072 134.29 136.744 134.713 136.553 135.001C136.361 135.288 136.218 135.48 136.17 135.576C136.122 135.72 136.026 135.815 135.883 135.815H135.787H135.795ZM145.122 124.855C146.741 123.569 148.313 122.187 149.877 120.757C151.401 119.327 152.59 118.136 153.395 117.138C153.491 116.994 153.587 116.898 153.731 116.754C153.826 116.611 153.874 116.467 153.97 116.371C154.018 116.275 154.066 116.227 154.066 116.179L154.018 116.131L153.97 116.179L153.778 116.275C152.111 117.13 149.255 119.846 145.21 124.376C144.683 124.951 144.404 125.278 144.308 125.374V125.422C144.308 125.422 144.356 125.422 144.404 125.326C144.547 125.278 144.787 125.087 145.114 124.847L145.122 124.855Z" stroke="#77AB94" stroke-width="0.22" stroke-miterlimit="22.93"/>
<path d="M144.412 129.137C144.651 128.705 144.986 128.33 145.361 127.899C145.6 127.659 145.792 127.419 145.983 127.275C146.127 127.132 146.271 127.036 146.366 126.988C146.414 126.988 146.414 126.94 146.462 126.94C146.558 126.94 146.654 127.036 146.749 127.132V127.371C146.749 127.419 146.702 127.563 146.606 127.707C146.51 127.851 146.414 127.946 146.319 127.946H146.223L146.175 127.994C146.127 127.994 146.079 128.042 146.031 128.09C145.983 128.138 145.936 128.234 145.84 128.33C145.361 128.857 145.082 129.281 144.89 129.616C144.699 129.952 144.555 130.191 144.555 130.375C144.555 130.559 144.699 130.711 144.986 130.711C145.13 130.711 145.321 130.663 145.561 130.615C145.896 130.519 146.271 130.423 146.749 130.183C147.324 129.992 147.986 129.704 148.656 129.376C149.366 129.041 149.893 128.753 150.276 128.522C150.515 128.378 150.707 128.282 150.85 128.282C150.946 128.282 151.042 128.33 151.042 128.426C151.09 128.426 151.09 128.474 151.09 128.522C151.09 128.665 150.946 128.857 150.611 129.049C150.419 129.193 149.989 129.432 149.422 129.76C147.85 130.519 146.614 131.046 145.76 131.286C145.473 131.334 145.233 131.382 145.002 131.382C144.476 131.382 144.148 131.19 144.005 130.854C143.957 130.758 143.909 130.615 143.909 130.423C143.909 130.087 144.101 129.664 144.436 129.137H144.412ZM147.834 125.566C147.739 125.518 147.691 125.422 147.643 125.374C147.643 125.326 147.595 125.23 147.595 125.182C147.595 125.134 147.643 125.087 147.691 124.991C147.739 124.943 147.834 124.847 147.93 124.799C148.026 124.703 148.17 124.703 148.217 124.703C148.265 124.703 148.313 124.703 148.361 124.655H148.457C148.505 124.607 148.553 124.607 148.6 124.607C148.696 124.607 148.792 124.655 148.84 124.751C148.84 124.799 148.888 124.847 148.888 124.895V124.943C148.84 124.991 148.792 125.087 148.696 125.182C148.553 125.326 148.457 125.422 148.313 125.47C148.17 125.566 148.074 125.566 147.978 125.566H147.834Z" fill="#77AB94"/>
<path d="M144.412 129.137C144.651 128.705 144.986 128.33 145.361 127.899C145.6 127.659 145.792 127.419 145.983 127.275C146.127 127.132 146.271 127.036 146.366 126.988C146.414 126.988 146.414 126.94 146.462 126.94C146.558 126.94 146.654 127.036 146.749 127.132V127.371C146.749 127.419 146.702 127.563 146.606 127.707C146.51 127.851 146.414 127.946 146.319 127.946H146.223L146.175 127.994C146.127 127.994 146.079 128.042 146.031 128.09C145.983 128.138 145.936 128.234 145.84 128.33C145.361 128.857 145.082 129.281 144.89 129.616C144.699 129.952 144.555 130.191 144.555 130.375C144.555 130.559 144.699 130.711 144.986 130.711C145.13 130.711 145.321 130.663 145.561 130.615C145.896 130.519 146.271 130.423 146.749 130.183C147.324 129.992 147.986 129.704 148.656 129.376C149.366 129.041 149.893 128.753 150.276 128.522C150.515 128.378 150.707 128.282 150.85 128.282C150.946 128.282 151.042 128.33 151.042 128.426C151.09 128.426 151.09 128.474 151.09 128.522C151.09 128.665 150.946 128.857 150.611 129.049C150.419 129.193 149.989 129.432 149.422 129.76C147.85 130.519 146.614 131.046 145.76 131.286C145.473 131.334 145.233 131.382 145.002 131.382C144.476 131.382 144.148 131.19 144.005 130.854C143.957 130.758 143.909 130.615 143.909 130.423C143.909 130.087 144.101 129.664 144.436 129.137H144.412ZM147.834 125.566C147.739 125.518 147.691 125.422 147.643 125.374C147.643 125.326 147.595 125.23 147.595 125.182C147.595 125.134 147.643 125.087 147.691 124.991C147.739 124.943 147.834 124.847 147.93 124.799C148.026 124.703 148.17 124.703 148.217 124.703C148.265 124.703 148.313 124.703 148.361 124.655H148.457C148.505 124.607 148.553 124.607 148.6 124.607C148.696 124.607 148.792 124.655 148.84 124.751C148.84 124.799 148.888 124.847 148.888 124.895V124.943C148.84 124.991 148.792 125.087 148.696 125.182C148.553 125.326 148.457 125.422 148.313 125.47C148.17 125.566 148.074 125.566 147.978 125.566H147.834Z" stroke="#77AB94" stroke-width="0.22" stroke-miterlimit="22.93"/>
<path d="M157.209 138.196C157.113 138.148 157.018 138.052 157.018 137.908C157.018 137.861 157.018 137.813 157.066 137.765C157.113 137.573 157.305 137.19 157.688 136.574C158.071 135.959 158.494 135.336 159.02 134.617C160.448 132.524 162.116 130.279 163.919 127.899C165.73 125.47 167.254 123.513 168.491 121.987C168.586 121.891 168.634 121.795 168.73 121.747C168.778 121.651 168.826 121.604 168.826 121.604C168.778 121.604 168.539 121.795 168.068 122.227C167.589 122.658 166.975 123.225 166.161 123.944C164.876 125.135 163.927 126.037 163.257 126.66C162.587 127.236 162.02 127.755 161.589 128.09C159.635 129.76 158.167 130.807 157.209 131.19C156.97 131.334 156.778 131.382 156.587 131.382C156.491 131.382 156.395 131.334 156.3 131.334C156.06 131.19 155.964 131.046 155.964 130.807C155.964 130.615 156.012 130.423 156.108 130.183C156.443 129.656 156.866 129.089 157.44 128.562C158.063 127.987 158.581 127.611 159.108 127.371C159.395 127.228 159.73 127.132 160.057 127.132H160.153C160.584 127.132 160.823 127.371 160.911 127.803L161.342 127.371C162.148 126.7 163.384 125.606 165.1 124.032C165.858 123.321 166.432 122.746 166.863 122.41C167.294 122.027 167.765 121.604 168.291 121.124C169.193 120.269 170.007 119.598 170.669 119.031C171.291 118.456 171.666 118.176 171.762 118.081C171.858 118.033 171.953 118.033 172.001 118.033C172.097 118.033 172.145 118.033 172.193 118.081C172.288 118.176 172.336 118.272 172.336 118.416V118.464C172.336 118.512 172.24 118.608 172.097 118.752C172.001 118.943 171.762 119.231 171.427 119.606C169.52 121.747 167.429 124.328 165.1 127.419C164.055 128.849 162.914 130.375 161.677 132.045C160.488 133.714 159.635 134.905 159.156 135.616C158.302 136.854 157.871 137.573 157.823 137.805C157.776 137.996 157.728 138.092 157.632 138.14C157.536 138.188 157.44 138.236 157.393 138.236C157.345 138.236 157.249 138.236 157.201 138.188L157.209 138.196ZM157.113 130.519C157.544 130.327 158.206 129.896 159.02 129.281C159.212 129.137 159.403 128.993 159.595 128.849C159.786 128.658 159.978 128.514 160.121 128.418C160.265 128.274 160.361 128.226 160.361 128.178L160.313 128.13C160.265 128.082 160.265 128.034 160.265 127.939C160.265 127.843 160.217 127.795 160.169 127.795H159.786C159.643 127.843 159.547 127.843 159.499 127.891C158.877 128.13 158.214 128.65 157.496 129.464C157.401 129.608 157.257 129.752 157.161 129.944C157.018 130.088 156.922 130.231 156.826 130.375C156.73 130.519 156.683 130.615 156.683 130.663H156.73C156.778 130.663 156.874 130.615 157.113 130.519Z" fill="#77AB94"/>
<path d="M157.209 138.196C157.113 138.148 157.018 138.052 157.018 137.908C157.018 137.861 157.018 137.813 157.066 137.765C157.113 137.573 157.305 137.189 157.688 136.574C158.071 135.959 158.494 135.336 159.02 134.617C160.448 132.524 162.116 130.279 163.919 127.899C165.73 125.47 167.254 123.513 168.491 121.987C168.586 121.891 168.634 121.795 168.73 121.747C168.778 121.651 168.826 121.604 168.826 121.604C168.778 121.604 168.539 121.795 168.068 122.227C167.589 122.658 166.975 123.225 166.161 123.944C164.876 125.135 163.927 126.037 163.257 126.66C162.587 127.236 162.02 127.755 161.589 128.09C159.635 129.76 158.167 130.807 157.209 131.19C156.97 131.334 156.778 131.382 156.587 131.382C156.491 131.382 156.395 131.334 156.3 131.334C156.06 131.19 155.964 131.046 155.964 130.807C155.964 130.615 156.012 130.423 156.108 130.183C156.443 129.656 156.866 129.089 157.44 128.562C158.063 127.987 158.581 127.611 159.108 127.371C159.395 127.228 159.73 127.132 160.057 127.132H160.153C160.584 127.132 160.823 127.371 160.911 127.803L161.342 127.371C162.148 126.7 163.384 125.606 165.1 124.032C165.858 123.321 166.432 122.746 166.863 122.41C167.294 122.027 167.765 121.604 168.291 121.124C169.193 120.269 170.007 119.598 170.669 119.031C171.291 118.456 171.666 118.176 171.762 118.081C171.858 118.033 171.953 118.033 172.001 118.033C172.097 118.033 172.145 118.033 172.193 118.081C172.288 118.176 172.336 118.272 172.336 118.416V118.464C172.336 118.512 172.24 118.608 172.097 118.752C172.001 118.943 171.762 119.231 171.427 119.606C169.52 121.747 167.429 124.328 165.1 127.419C164.055 128.849 162.914 130.375 161.677 132.045C160.488 133.714 159.635 134.905 159.156 135.616C158.302 136.854 157.871 137.573 157.823 137.805C157.776 137.996 157.728 138.092 157.632 138.14C157.536 138.188 157.44 138.236 157.393 138.236C157.345 138.236 157.249 138.236 157.201 138.188L157.209 138.196ZM157.113 130.519C157.544 130.327 158.206 129.896 159.02 129.281C159.212 129.137 159.403 128.993 159.595 128.849C159.786 128.658 159.978 128.514 160.121 128.418C160.265 128.274 160.361 128.226 160.361 128.178L160.313 128.13C160.265 128.082 160.265 128.034 160.265 127.939C160.265 127.843 160.217 127.795 160.169 127.795H159.786C159.643 127.843 159.547 127.843 159.499 127.891C158.877 128.13 158.214 128.65 157.496 129.464C157.401 129.608 157.257 129.752 157.161 129.944C157.018 130.088 156.922 130.231 156.826 130.375C156.73 130.519 156.683 130.615 156.683 130.663H156.73C156.778 130.663 156.874 130.615 157.113 130.519Z" stroke="#77AB94" stroke-width="0.22" stroke-miterlimit="22.93"/>
<path d="M167.11 131.286C166.679 131.142 166.4 130.902 166.4 130.663C166.352 130.423 166.304 130.231 166.352 130.04C166.352 129.848 166.4 129.656 166.496 129.464C166.783 128.841 167.166 128.322 167.685 127.843C168.259 127.315 168.73 126.988 169.209 126.748C169.4 126.652 169.592 126.604 169.783 126.556C169.927 126.509 170.022 126.509 170.166 126.509C170.358 126.509 170.549 126.556 170.693 126.652C170.98 126.796 171.076 126.892 171.076 127.036V127.228C171.028 127.515 170.836 127.755 170.501 127.986C169.831 128.418 169.169 128.658 168.459 128.658C168.219 128.658 168.028 128.658 167.788 128.61C167.501 128.897 167.31 129.137 167.166 129.416C167.07 129.704 167.023 129.896 167.023 129.992C166.975 130.231 167.07 130.471 167.262 130.615C167.406 130.711 167.645 130.759 167.884 130.759H168.124C168.459 130.711 168.746 130.663 168.977 130.615C169.687 130.471 170.549 130.183 171.546 129.76C171.881 129.616 172.073 129.472 172.217 129.376C172.504 129.233 172.695 129.185 172.791 129.185H172.887C172.982 129.185 173.03 129.281 172.982 129.376V129.472C172.935 129.616 172.791 129.76 172.552 129.904C172.36 130.048 172.025 130.191 171.65 130.335C170.461 130.862 169.512 131.19 168.698 131.286C168.411 131.334 168.124 131.382 167.892 131.382C167.605 131.382 167.318 131.334 167.134 131.286H167.11ZM168.73 128.09C169.017 128.042 169.352 127.947 169.631 127.851L169.967 127.659C170.206 127.467 170.35 127.371 170.35 127.275V127.228C170.302 127.18 170.206 127.132 170.062 127.132C170.014 127.132 169.919 127.18 169.823 127.18C169.631 127.228 169.344 127.371 168.969 127.611C168.874 127.659 168.778 127.755 168.682 127.851C168.491 127.947 168.395 128.042 168.347 128.09C168.347 128.138 168.395 128.138 168.443 128.138C168.491 128.138 168.586 128.138 168.73 128.09Z" fill="#77AB94"/>
<path d="M167.11 131.286C166.679 131.142 166.4 130.902 166.4 130.663C166.352 130.423 166.304 130.231 166.352 130.04C166.352 129.848 166.4 129.656 166.496 129.464C166.783 128.841 167.166 128.322 167.685 127.843C168.259 127.315 168.73 126.988 169.209 126.748C169.4 126.652 169.592 126.604 169.783 126.556C169.927 126.509 170.022 126.509 170.166 126.509C170.358 126.509 170.549 126.556 170.693 126.652C170.98 126.796 171.076 126.892 171.076 127.036V127.228C171.028 127.515 170.836 127.755 170.501 127.986C169.831 128.418 169.169 128.658 168.459 128.658C168.219 128.658 168.028 128.658 167.788 128.61C167.501 128.897 167.31 129.137 167.166 129.416C167.07 129.704 167.023 129.896 167.023 129.992C166.975 130.231 167.07 130.471 167.262 130.615C167.406 130.711 167.645 130.759 167.884 130.759H168.124C168.459 130.711 168.746 130.663 168.977 130.615C169.687 130.471 170.549 130.183 171.546 129.76C171.881 129.616 172.073 129.472 172.217 129.376C172.504 129.233 172.695 129.185 172.791 129.185H172.887C172.982 129.185 173.03 129.281 172.982 129.376V129.472C172.935 129.616 172.791 129.76 172.552 129.904C172.36 130.048 172.025 130.191 171.65 130.335C170.461 130.862 169.512 131.19 168.698 131.286C168.411 131.334 168.124 131.382 167.892 131.382C167.605 131.382 167.318 131.334 167.134 131.286H167.11ZM168.73 128.09C169.017 128.042 169.352 127.947 169.631 127.851L169.967 127.659C170.206 127.467 170.35 127.371 170.35 127.275V127.228C170.302 127.18 170.206 127.132 170.062 127.132C170.014 127.132 169.919 127.18 169.823 127.18C169.631 127.228 169.344 127.371 168.969 127.611C168.874 127.659 168.778 127.755 168.682 127.851C168.491 127.947 168.395 128.042 168.347 128.09C168.347 128.138 168.395 128.138 168.443 128.138C168.491 128.138 168.586 128.138 168.73 128.09Z" stroke="#77AB94" stroke-width="0.22" stroke-miterlimit="22.93"/>
<path d="M180.434 143.868C180.291 143.82 180.243 143.724 180.243 143.628V143.485C180.291 143.389 180.386 143.197 180.626 142.813C180.865 142.478 181.296 141.911 181.91 141.144C182.485 140.337 183.386 139.187 184.527 137.717C185.333 136.67 186.051 135.712 186.761 134.857C187.431 133.954 188.429 132.62 189.809 130.854L190.288 130.231C192.003 128.042 194.237 125.134 197.093 121.508C197.764 120.605 198.282 119.934 198.665 119.463C199.048 118.983 199.287 118.656 199.423 118.464L199.662 118.176H199.567C199.471 118.176 199.136 118.224 198.521 118.272C197.811 118.32 196.902 118.368 195.761 118.464C195.569 118.512 195.378 118.512 195.139 118.512C194.468 118.56 193.95 118.608 193.471 118.656C193.184 118.704 192.849 118.704 192.426 118.752C192.003 118.799 191.62 118.799 191.285 118.847C190.902 118.847 190.615 118.895 190.383 118.895C190.096 118.943 190 118.943 189.953 118.943C189.857 118.991 189.57 119.279 189.051 119.75C188.524 120.229 187.958 120.797 187.336 121.42C186.666 122.043 186.147 122.61 185.716 123.041C185.006 123.848 184.049 124.999 182.956 126.421C181.815 127.899 180.722 129.376 179.716 130.854C178.671 132.38 178.001 133.618 177.714 134.569V134.617C177.714 134.617 177.762 134.569 177.809 134.569C177.905 134.473 177.953 134.473 178.049 134.473H178.145C178.24 134.521 178.288 134.617 178.288 134.713V134.809L178.192 134.905C177.953 135.144 177.714 135.24 177.434 135.24C177.243 135.24 177.099 135.096 177.099 134.761V134.713C177.195 134.09 177.626 133.187 178.336 132.045C179.046 130.854 179.908 129.616 180.857 128.33C181.807 126.996 182.716 125.806 183.618 124.711C184.471 123.617 185.142 122.85 185.572 122.378C185.908 121.995 186.378 121.524 186.953 120.948C187.527 120.373 187.998 119.902 188.381 119.566C188.524 119.423 188.668 119.279 188.764 119.183L188.907 119.039H188.668C188.524 119.039 188.333 119.087 188.142 119.087C187.192 119.135 186.474 119.183 185.908 119.183C185.333 119.231 184.958 119.231 184.767 119.231H184.575C184.479 119.231 184.432 119.183 184.384 119.135C184.336 119.087 184.336 119.039 184.336 118.943C184.336 118.847 184.384 118.752 184.432 118.752C184.527 118.704 184.719 118.704 185.006 118.704C185.245 118.656 185.628 118.656 186.099 118.608C186.578 118.608 187.288 118.56 188.189 118.464C188.62 118.464 188.947 118.416 189.187 118.416C189.474 118.368 189.618 118.368 189.618 118.368C189.665 118.368 189.713 118.32 189.761 118.272C189.809 118.224 189.905 118.176 190 118.08C191.955 116.363 193.998 114.885 196 113.551C198.043 112.265 199.806 111.362 201.282 110.883C201.952 110.643 202.519 110.547 203.045 110.547C203.524 110.547 203.899 110.643 204.09 110.931C204.186 111.026 204.282 111.122 204.33 111.218C204.33 111.314 204.378 111.458 204.378 111.697V111.937C204.378 111.985 204.33 112.081 204.33 112.129C204.33 112.177 204.282 112.273 204.234 112.369C203.995 113.271 203.045 114.749 201.426 116.85L201.091 117.33L200.947 117.521H203.851C203.899 117.569 203.947 117.569 203.995 117.569C204.138 117.569 204.234 117.617 204.282 117.617C204.33 117.665 204.378 117.713 204.426 117.809V118.001C204.378 118.049 204.33 118.096 204.282 118.144C204.25 118.176 204.218 118.192 204.186 118.192H204.09C204.043 118.192 203.995 118.192 203.947 118.144C203.755 118.144 203.42 118.096 202.949 118.096C202.479 118.096 201.952 118.144 201.426 118.144H200.476L200.38 118.288C200.333 118.336 200.237 118.48 199.997 118.767C199.758 119.055 199.471 119.439 199.192 119.814C198.857 120.245 198.482 120.717 198.051 121.292C197.62 121.867 197.197 122.338 196.862 122.77C194.484 125.822 192.242 128.681 190.152 131.446C189.011 132.923 188.062 134.162 187.248 135.208C186.442 136.255 185.485 137.445 184.392 138.875C182.868 140.88 181.87 142.166 181.488 142.734C181.392 142.829 181.344 142.925 181.296 142.973C181.248 143.021 181.2 143.069 181.2 143.117C181.152 143.117 181.152 143.165 181.152 143.165V143.453C181.105 143.501 181.057 143.548 181.009 143.644C180.817 143.836 180.674 143.932 180.53 143.932C180.482 143.932 180.434 143.932 180.434 143.884V143.868ZM192.242 118.184C192.578 118.136 193 118.088 193.527 118.088C194.006 118.041 194.476 117.993 194.859 117.945C197.141 117.753 198.569 117.657 199.287 117.609C199.431 117.609 199.575 117.609 199.718 117.561H200.197L200.867 116.611C202.535 114.47 203.436 112.992 203.676 112.177C203.723 112.081 203.723 111.985 203.771 111.937V111.697C203.771 111.554 203.771 111.458 203.723 111.362C203.723 111.314 203.628 111.266 203.532 111.218C203.484 111.17 203.436 111.17 203.388 111.17C203.34 111.122 203.245 111.122 203.149 111.122C201.721 111.122 199.487 112.073 196.439 113.982C194.676 115.125 192.968 116.363 191.301 117.793C191.205 117.841 191.157 117.889 191.109 117.937C191.014 118.033 190.918 118.08 190.87 118.128C190.822 118.176 190.774 118.224 190.727 118.224V118.272H190.87C190.918 118.272 191.109 118.272 191.397 118.224C191.636 118.224 191.923 118.176 192.25 118.176L192.242 118.184Z" fill="#77AB94"/>
<path d="M180.434 143.868C180.291 143.82 180.243 143.724 180.243 143.628V143.485C180.291 143.389 180.386 143.197 180.626 142.813C180.865 142.478 181.296 141.911 181.91 141.144C182.485 140.337 183.386 139.187 184.527 137.717C185.333 136.67 186.051 135.712 186.761 134.857C187.431 133.954 188.429 132.62 189.809 130.854L190.288 130.231C192.003 128.042 194.237 125.134 197.093 121.508C197.764 120.605 198.282 119.934 198.665 119.463C199.048 118.983 199.287 118.656 199.423 118.464L199.662 118.176H199.567C199.471 118.176 199.136 118.224 198.521 118.272C197.811 118.32 196.902 118.368 195.761 118.464C195.569 118.512 195.378 118.512 195.139 118.512C194.468 118.56 193.95 118.608 193.471 118.656C193.184 118.704 192.849 118.704 192.426 118.752C192.003 118.799 191.62 118.799 191.285 118.847C190.902 118.847 190.615 118.895 190.383 118.895C190.096 118.943 190 118.943 189.953 118.943C189.857 118.991 189.57 119.279 189.051 119.75C188.524 120.229 187.958 120.797 187.336 121.42C186.666 122.043 186.147 122.61 185.716 123.041C185.006 123.848 184.049 124.999 182.956 126.421C181.815 127.899 180.722 129.376 179.716 130.854C178.671 132.38 178.001 133.618 177.714 134.569V134.617C177.714 134.617 177.762 134.569 177.809 134.569C177.905 134.473 177.953 134.473 178.049 134.473H178.145C178.24 134.521 178.288 134.617 178.288 134.713V134.809L178.192 134.905C177.953 135.144 177.714 135.24 177.434 135.24C177.243 135.24 177.099 135.096 177.099 134.761V134.713C177.195 134.09 177.626 133.187 178.336 132.045C179.046 130.854 179.908 129.616 180.857 128.33C181.807 126.996 182.716 125.806 183.618 124.711C184.471 123.617 185.142 122.85 185.572 122.378C185.908 121.995 186.378 121.524 186.953 120.948C187.527 120.373 187.998 119.902 188.381 119.566C188.524 119.423 188.668 119.279 188.764 119.183L188.907 119.039H188.668C188.524 119.039 188.333 119.087 188.142 119.087C187.192 119.135 186.474 119.183 185.908 119.183C185.333 119.231 184.958 119.231 184.767 119.231H184.575C184.479 119.231 184.432 119.183 184.384 119.135C184.336 119.087 184.336 119.039 184.336 118.943C184.336 118.847 184.384 118.752 184.432 118.752C184.527 118.704 184.719 118.704 185.006 118.704C185.245 118.656 185.628 118.656 186.099 118.608C186.578 118.608 187.288 118.56 188.189 118.464C188.62 118.464 188.947 118.416 189.187 118.416C189.474 118.368 189.618 118.368 189.618 118.368C189.665 118.368 189.713 118.32 189.761 118.272C189.809 118.224 189.905 118.176 190 118.08C191.955 116.363 193.998 114.885 196 113.551C198.043 112.265 199.806 111.362 201.282 110.883C201.952 110.643 202.519 110.547 203.045 110.547C203.524 110.547 203.899 110.643 204.09 110.931C204.186 111.026 204.282 111.122 204.33 111.218C204.33 111.314 204.378 111.458 204.378 111.697V111.937C204.378 111.985 204.33 112.081 204.33 112.129C204.33 112.177 204.282 112.273 204.234 112.369C203.995 113.271 203.045 114.749 201.426 116.85L201.091 117.33L200.947 117.521H203.851C203.899 117.569 203.947 117.569 203.995 117.569C204.138 117.569 204.234 117.617 204.282 117.617C204.33 117.665 204.378 117.713 204.426 117.809V118.001C204.378 118.049 204.33 118.096 204.282 118.144C204.25 118.176 204.218 118.192 204.186 118.192H204.09C204.043 118.192 203.995 118.192 203.947 118.144C203.755 118.144 203.42 118.096 202.949 118.096C202.479 118.096 201.952 118.144 201.426 118.144H200.476L200.38 118.288C200.333 118.336 200.237 118.48 199.997 118.767C199.758 119.055 199.471 119.439 199.192 119.814C198.857 120.245 198.482 120.717 198.051 121.292C197.62 121.867 197.197 122.338 196.862 122.77C194.484 125.822 192.242 128.681 190.152 131.446C189.011 132.923 188.062 134.162 187.248 135.208C186.442 136.255 185.485 137.445 184.392 138.875C182.868 140.88 181.87 142.166 181.488 142.734C181.392 142.829 181.344 142.925 181.296 142.973C181.248 143.021 181.2 143.069 181.2 143.117C181.152 143.117 181.152 143.165 181.152 143.165V143.453C181.105 143.501 181.057 143.548 181.009 143.644C180.817 143.836 180.674 143.932 180.53 143.932C180.482 143.932 180.434 143.932 180.434 143.884V143.868ZM192.242 118.184C192.578 118.136 193 118.088 193.527 118.088C194.006 118.041 194.476 117.993 194.859 117.945C197.141 117.753 198.569 117.657 199.287 117.609C199.431 117.609 199.575 117.609 199.718 117.561H200.197L200.867 116.611C202.535 114.47 203.436 112.992 203.676 112.177C203.723 112.081 203.723 111.985 203.771 111.937V111.697C203.771 111.554 203.771 111.458 203.723 111.362C203.723 111.314 203.628 111.266 203.532 111.218C203.484 111.17 203.436 111.17 203.388 111.17C203.34 111.122 203.245 111.122 203.149 111.122C201.721 111.122 199.487 112.073 196.439 113.982C194.676 115.125 192.968 116.363 191.301 117.793C191.205 117.841 191.157 117.889 191.109 117.937C191.014 118.033 190.918 118.08 190.87 118.128C190.822 118.176 190.774 118.224 190.727 118.224V118.272H190.87C190.918 118.272 191.109 118.272 191.397 118.224C191.636 118.224 191.923 118.176 192.25 118.176L192.242 118.184Z" stroke="#77AB94" stroke-width="0.22" stroke-miterlimit="22.93"/>
<path d="M195.29 130.519C195.386 130.375 195.577 130.135 195.769 129.848C195.96 129.608 196.152 129.369 196.391 129.137C196.487 129.041 196.631 128.849 196.822 128.658C197.013 128.418 197.205 128.178 197.396 127.899C197.684 127.515 197.923 127.228 198.067 127.092C198.21 126.9 198.306 126.756 198.354 126.66C198.402 126.612 198.497 126.517 198.545 126.421C198.689 126.181 198.785 126.085 198.833 126.085H198.976C199.072 126.085 199.12 126.133 199.168 126.229C199.168 126.229 199.216 126.277 199.216 126.325C199.216 126.421 199.168 126.517 199.12 126.612C199.12 126.66 199.024 126.756 198.976 126.9C198.88 126.996 198.833 127.14 198.737 127.236C198.641 127.331 198.593 127.427 198.545 127.475L198.497 127.523H198.641C198.833 127.523 198.928 127.571 199.072 127.667C199.216 127.763 199.359 127.907 199.455 128.098C199.599 128.53 199.838 128.721 200.125 128.721H200.173C200.508 128.674 200.843 128.53 201.218 128.338C201.362 128.242 201.505 128.194 201.601 128.194H201.649C201.745 128.194 201.793 128.242 201.793 128.386C201.793 128.482 201.745 128.578 201.649 128.721C201.457 128.865 201.218 129.009 200.939 129.105C200.604 129.249 200.317 129.297 200.085 129.297H199.846C199.511 129.201 199.224 129.009 198.992 128.674C198.944 128.578 198.896 128.53 198.849 128.482C198.801 128.338 198.753 128.242 198.705 128.242H198.561C198.513 128.242 198.37 128.29 198.178 128.386C197.891 128.578 197.604 128.865 197.277 129.241C196.95 129.616 196.654 129.912 196.471 130.191C196.375 130.287 196.327 130.383 196.232 130.479C196.184 130.575 196.088 130.671 196.04 130.719C195.992 130.815 195.944 130.862 195.897 130.91C195.753 131.102 195.561 131.198 195.466 131.198H195.418C195.322 131.198 195.226 131.15 195.226 131.054V130.862C195.226 130.767 195.226 130.671 195.322 130.527L195.29 130.519Z" fill="#77AB94"/>
<path d="M195.29 130.519C195.386 130.375 195.577 130.135 195.769 129.848C195.96 129.608 196.152 129.369 196.391 129.137C196.487 129.041 196.631 128.849 196.822 128.658C197.013 128.418 197.205 128.178 197.396 127.899C197.684 127.515 197.923 127.228 198.067 127.092C198.21 126.9 198.306 126.756 198.354 126.66C198.402 126.612 198.497 126.517 198.545 126.421C198.689 126.181 198.785 126.085 198.833 126.085H198.976C199.072 126.085 199.12 126.133 199.168 126.229C199.168 126.229 199.216 126.277 199.216 126.325C199.216 126.421 199.168 126.517 199.12 126.612C199.12 126.66 199.024 126.756 198.976 126.9C198.88 126.996 198.833 127.14 198.737 127.236C198.641 127.331 198.593 127.427 198.545 127.475L198.497 127.523H198.641C198.833 127.523 198.928 127.571 199.072 127.667C199.216 127.763 199.359 127.907 199.455 128.098C199.599 128.53 199.838 128.721 200.125 128.721H200.173C200.508 128.674 200.843 128.53 201.218 128.338C201.362 128.242 201.505 128.194 201.601 128.194H201.649C201.745 128.194 201.793 128.242 201.793 128.386C201.793 128.482 201.745 128.578 201.649 128.721C201.457 128.865 201.218 129.009 200.939 129.105C200.604 129.249 200.317 129.297 200.085 129.297H199.846C199.511 129.201 199.224 129.009 198.992 128.674C198.944 128.578 198.896 128.53 198.849 128.482C198.801 128.338 198.753 128.242 198.705 128.242H198.561C198.513 128.242 198.37 128.29 198.178 128.386C197.891 128.578 197.604 128.865 197.277 129.241C196.95 129.616 196.654 129.912 196.471 130.191C196.375 130.287 196.327 130.383 196.232 130.479C196.184 130.575 196.088 130.671 196.04 130.719C195.992 130.815 195.944 130.862 195.897 130.91C195.753 131.102 195.561 131.198 195.466 131.198H195.418C195.322 131.198 195.226 131.15 195.226 131.054V130.862C195.226 130.767 195.226 130.671 195.322 130.527L195.29 130.519Z" stroke="#77AB94" stroke-width="0.22" stroke-miterlimit="22.93"/>
<path d="M200.141 131.382C199.806 131.286 199.662 131.094 199.662 130.806C199.662 130.663 199.71 130.471 199.758 130.279C199.95 129.896 200.237 129.472 200.755 128.945C201.234 128.37 201.801 127.899 202.375 127.467C203.229 126.844 203.947 126.516 204.465 126.516C204.705 126.516 204.896 126.564 205.04 126.708C205.183 126.804 205.279 126.996 205.279 127.188C205.279 127.235 205.279 127.283 205.327 127.331V127.379C205.375 127.427 205.375 127.475 205.423 127.475C205.519 127.571 205.566 127.619 205.566 127.715V127.811C205.519 127.859 205.423 127.954 205.375 128.05C205.04 128.53 204.753 128.953 204.617 129.432C204.521 129.624 204.473 129.768 204.473 129.912C204.473 130.151 204.617 130.247 204.856 130.247H205C205.287 130.247 205.574 130.151 205.901 130.008C206.284 129.864 206.612 129.672 206.899 129.48C207.377 129.193 207.753 128.905 208.04 128.625C208.231 128.482 208.423 128.386 208.518 128.386H208.614C208.662 128.434 208.71 128.482 208.71 128.53C208.71 128.625 208.614 128.769 208.518 128.913C208.183 129.344 207.76 129.72 207.234 130.008C206.899 130.247 206.524 130.439 206.045 130.631C205.614 130.822 205.239 130.918 204.904 130.918C204.761 130.918 204.617 130.918 204.521 130.87C204.043 130.727 203.851 130.391 203.851 129.92V129.488L203.899 129.44H203.851L203.707 129.536C203.564 129.632 203.42 129.776 203.277 129.872C202.279 130.631 201.513 131.11 200.947 131.302C200.803 131.35 200.66 131.398 200.564 131.398C200.42 131.446 200.325 131.446 200.277 131.446C200.229 131.446 200.181 131.446 200.133 131.398L200.141 131.382ZM200.851 130.615C201.33 130.423 202.04 129.992 202.894 129.329C203.133 129.185 203.372 128.945 203.699 128.657C204.035 128.322 204.274 128.082 204.41 127.851C204.553 127.611 204.649 127.419 204.649 127.275V127.227C204.601 127.18 204.553 127.132 204.457 127.132H204.362C204.218 127.18 204.074 127.227 203.883 127.323C203.691 127.371 203.548 127.467 203.404 127.563C202.83 127.899 202.263 128.37 201.641 128.945C201.019 129.568 200.596 130.087 200.404 130.519C200.356 130.615 200.309 130.663 200.309 130.711C200.309 130.711 200.309 130.758 200.356 130.758H200.452C200.5 130.711 200.548 130.711 200.596 130.711C200.692 130.663 200.739 130.663 200.835 130.615H200.851Z" fill="#77AB94"/>
<path d="M200.141 131.382C199.806 131.286 199.662 131.094 199.662 130.806C199.662 130.663 199.71 130.471 199.758 130.279C199.95 129.896 200.237 129.472 200.755 128.945C201.234 128.37 201.801 127.899 202.375 127.467C203.229 126.844 203.947 126.516 204.465 126.516C204.705 126.516 204.896 126.564 205.04 126.708C205.183 126.804 205.279 126.996 205.279 127.188C205.279 127.235 205.279 127.283 205.327 127.331V127.379C205.375 127.427 205.375 127.475 205.423 127.475C205.519 127.571 205.566 127.619 205.566 127.715V127.811C205.519 127.859 205.423 127.954 205.375 128.05C205.04 128.53 204.753 128.953 204.617 129.432C204.521 129.624 204.473 129.768 204.473 129.912C204.473 130.151 204.617 130.247 204.856 130.247H205C205.287 130.247 205.574 130.151 205.901 130.008C206.284 129.864 206.612 129.672 206.899 129.48C207.377 129.193 207.753 128.905 208.04 128.625C208.231 128.482 208.423 128.386 208.518 128.386H208.614C208.662 128.434 208.71 128.482 208.71 128.53C208.71 128.625 208.614 128.769 208.518 128.913C208.183 129.344 207.76 129.72 207.234 130.008C206.899 130.247 206.524 130.439 206.045 130.631C205.614 130.822 205.239 130.918 204.904 130.918C204.761 130.918 204.617 130.918 204.521 130.87C204.043 130.727 203.851 130.391 203.851 129.92V129.488L203.899 129.44H203.851L203.707 129.536C203.564 129.632 203.42 129.776 203.277 129.872C202.279 130.631 201.513 131.11 200.947 131.302C200.803 131.35 200.66 131.398 200.564 131.398C200.42 131.446 200.325 131.446 200.277 131.446C200.229 131.446 200.181 131.446 200.133 131.398L200.141 131.382ZM200.851 130.615C201.33 130.423 202.04 129.992 202.894 129.329C203.133 129.185 203.372 128.945 203.699 128.657C204.035 128.322 204.274 128.082 204.41 127.851C204.553 127.611 204.649 127.419 204.649 127.275V127.227C204.601 127.18 204.553 127.132 204.457 127.132H204.362C204.218 127.18 204.074 127.227 203.883 127.323C203.691 127.371 203.548 127.467 203.404 127.563C202.83 127.899 202.263 128.37 201.641 128.945C201.019 129.568 200.596 130.087 200.404 130.519C200.356 130.615 200.309 130.663 200.309 130.711C200.309 130.711 200.309 130.758 200.356 130.758H200.452C200.5 130.711 200.548 130.711 200.596 130.711C200.692 130.663 200.739 130.663 200.835 130.615H200.851Z" stroke="#77AB94" stroke-width="0.22" stroke-miterlimit="22.93"/>
<path d="M211.47 130.335C211.47 130.096 211.518 129.808 211.662 129.528C211.662 129.48 211.71 129.432 211.71 129.385L211.758 129.289C211.71 129.289 211.71 129.337 211.662 129.337C211.614 129.385 211.518 129.432 211.47 129.48C210.712 130.008 209.899 130.527 209.093 130.91C208.518 131.198 208.048 131.39 207.76 131.39H207.617C207.33 131.39 207.138 131.294 207.042 131.15C206.995 131.054 206.947 130.91 206.947 130.767C206.947 130.671 206.947 130.623 206.995 130.527C207.042 130.239 207.138 130 207.234 129.816C207.473 129.337 207.76 128.913 208.135 128.434C208.231 128.338 208.279 128.242 208.327 128.194C208.327 128.146 208.375 128.098 208.375 128.05C208.375 127.859 208.518 127.619 208.901 127.427C209.045 127.379 209.141 127.331 209.236 127.331C209.332 127.331 209.428 127.427 209.476 127.571C209.524 127.571 209.524 127.619 209.524 127.667C209.524 127.715 209.476 127.715 209.476 127.763C209.428 127.859 209.38 127.955 209.236 128.05C208.806 128.53 208.479 129.001 208.143 129.48C207.856 129.96 207.665 130.335 207.569 130.623C207.569 130.671 207.617 130.719 207.617 130.719H207.665C207.76 130.719 207.952 130.671 208.239 130.575C208.479 130.479 208.766 130.383 209.045 130.191C209.572 129.904 210.09 129.568 210.665 129.193C211.239 128.817 211.71 128.482 212.093 128.146C212.524 127.763 212.803 127.523 212.946 127.523H212.994C213.09 127.523 213.138 127.571 213.234 127.619C213.282 127.667 213.329 127.763 213.329 127.859V127.907C213.282 127.955 213.282 128.002 213.234 128.098C213.186 128.146 213.138 128.242 213.09 128.29C212.468 129.193 212.188 129.864 212.141 130.335C212.141 130.671 212.188 130.814 212.332 130.814H212.524C212.715 130.814 212.907 130.767 213.098 130.671C213.385 130.527 213.577 130.431 213.72 130.287H213.816C214.622 129.712 215.436 129.145 216.194 128.57C216.481 128.378 216.672 128.282 216.768 128.282C216.816 128.282 216.864 128.282 216.864 128.33C216.912 128.33 216.912 128.378 216.912 128.426C216.912 128.522 216.768 128.713 216.529 128.953C215.723 129.624 214.909 130.239 214.055 130.814C213.768 131.006 213.433 131.15 213.154 131.294C212.867 131.39 212.627 131.438 212.444 131.438C212.26 131.438 212.109 131.438 211.965 131.342C211.678 131.246 211.486 130.91 211.486 130.343L211.47 130.335Z" fill="#77AB94"/>
<path d="M211.47 130.335C211.47 130.096 211.518 129.808 211.662 129.528C211.662 129.48 211.71 129.432 211.71 129.385L211.758 129.289C211.71 129.289 211.71 129.337 211.662 129.337C211.614 129.385 211.518 129.432 211.47 129.48C210.712 130.008 209.899 130.527 209.093 130.91C208.518 131.198 208.048 131.39 207.76 131.39H207.617C207.33 131.39 207.138 131.294 207.042 131.15C206.995 131.054 206.947 130.91 206.947 130.767C206.947 130.671 206.947 130.623 206.995 130.527C207.042 130.239 207.138 130 207.234 129.816C207.473 129.337 207.76 128.913 208.135 128.434C208.231 128.338 208.279 128.242 208.327 128.194C208.327 128.146 208.375 128.098 208.375 128.05C208.375 127.859 208.518 127.619 208.901 127.427C209.045 127.379 209.141 127.331 209.236 127.331C209.332 127.331 209.428 127.427 209.476 127.571C209.524 127.571 209.524 127.619 209.524 127.667C209.524 127.715 209.476 127.715 209.476 127.763C209.428 127.859 209.38 127.955 209.236 128.05C208.806 128.53 208.479 129.001 208.143 129.48C207.856 129.96 207.665 130.335 207.569 130.623C207.569 130.671 207.617 130.719 207.617 130.719H207.665C207.76 130.719 207.952 130.671 208.239 130.575C208.479 130.479 208.766 130.383 209.045 130.191C209.572 129.904 210.09 129.568 210.665 129.193C211.239 128.817 211.71 128.482 212.093 128.146C212.524 127.763 212.803 127.523 212.946 127.523H212.994C213.09 127.523 213.138 127.571 213.234 127.619C213.282 127.667 213.329 127.763 213.329 127.859V127.907C213.282 127.955 213.282 128.002 213.234 128.098C213.186 128.146 213.138 128.242 213.09 128.29C212.468 129.193 212.188 129.864 212.141 130.335C212.141 130.671 212.188 130.814 212.332 130.814H212.524C212.715 130.814 212.907 130.767 213.098 130.671C213.385 130.527 213.577 130.431 213.72 130.287H213.816C214.622 129.712 215.436 129.145 216.194 128.57C216.481 128.378 216.672 128.282 216.768 128.282C216.816 128.282 216.864 128.282 216.864 128.33C216.912 128.33 216.912 128.378 216.912 128.426C216.912 128.522 216.768 128.713 216.529 128.953C215.723 129.624 214.909 130.239 214.055 130.814C213.768 131.006 213.433 131.15 213.154 131.294C212.867 131.39 212.627 131.438 212.444 131.438C212.26 131.438 212.109 131.438 211.965 131.342C211.678 131.246 211.486 130.91 211.486 130.343L211.47 130.335Z" stroke="#77AB94" stroke-width="0.22" stroke-miterlimit="22.93"/>
<path d="M201.003 143.868C200.668 143.724 200.524 143.485 200.524 143.157C200.524 143.013 200.524 142.869 200.572 142.726C200.763 142.103 201.33 141.344 202.287 140.489C203.38 139.538 204.665 138.58 206.237 137.629C207.808 136.726 209.189 136.007 210.473 135.584C210.713 135.488 210.904 135.44 210.952 135.44H211C211.048 135.44 211.095 135.392 211.095 135.344C211.143 135.344 211.191 135.296 211.239 135.2C211.335 135.152 211.431 135.057 211.526 134.913C212.667 133.579 213.712 132.244 214.67 130.958C215.627 129.672 216.289 128.626 216.672 127.907C216.72 127.811 216.72 127.763 216.768 127.715C216.768 127.667 216.816 127.619 216.816 127.619V127.236L217.007 127.044C217.055 126.996 217.151 126.948 217.199 126.948H217.247C217.343 126.948 217.39 126.996 217.438 127.044C217.534 127.092 217.534 127.188 217.534 127.283V127.331C217.39 128.002 216.68 129.289 215.348 131.142C214.255 132.668 212.97 134.242 211.542 135.903C210.114 137.525 208.734 138.955 207.449 140.145C205.407 142.007 203.644 143.245 202.263 143.764C202.072 143.812 201.976 143.86 201.88 143.86C201.785 143.908 201.641 143.908 201.497 143.908H201.306C201.162 143.908 201.067 143.908 201.019 143.86L201.003 143.868ZM202 143.149C202.239 143.053 202.479 142.909 202.806 142.766C203.141 142.574 203.476 142.382 203.755 142.19C205.136 141.288 206.612 140.097 208.135 138.572C208.279 138.38 208.518 138.188 208.758 137.948C208.949 137.709 209.189 137.469 209.428 137.237C209.667 136.998 209.859 136.806 210.002 136.614C210.146 136.47 210.194 136.375 210.194 136.375C210.194 136.375 210.05 136.423 209.859 136.47C209.619 136.566 209.38 136.71 209.101 136.854C208.822 136.998 208.526 137.142 208.247 137.285C206.109 138.428 204.298 139.618 202.87 140.856C202.63 141.048 202.391 141.288 202.16 141.527C201.92 141.815 201.729 142.055 201.585 142.198C201.442 142.438 201.298 142.678 201.25 142.774C201.202 142.917 201.154 143.061 201.154 143.109C201.154 143.157 201.202 143.205 201.202 143.253H201.537C201.681 143.253 201.825 143.205 202.016 143.157L202 143.149ZM217.749 124.951C217.606 124.903 217.558 124.807 217.558 124.663V124.615C217.606 124.519 217.606 124.471 217.654 124.376C217.702 124.328 217.797 124.28 217.941 124.232C218.085 124.136 218.228 124.088 218.324 124.088C218.42 124.088 218.563 124.136 218.611 124.232C218.659 124.28 218.659 124.328 218.659 124.424V124.519C218.611 124.615 218.515 124.711 218.42 124.711H218.324C218.292 124.743 218.26 124.775 218.228 124.807C218.18 124.855 218.132 124.903 218.037 124.951C217.989 124.999 217.941 124.999 217.893 124.999H217.797L217.749 124.951Z" fill="#77AB94"/>
<path d="M201.003 143.868C200.668 143.724 200.524 143.485 200.524 143.157C200.524 143.013 200.524 142.869 200.572 142.726C200.763 142.103 201.33 141.344 202.287 140.489C203.38 139.538 204.665 138.58 206.237 137.629C207.808 136.726 209.189 136.007 210.473 135.584C210.713 135.488 210.904 135.44 210.952 135.44H211C211.048 135.44 211.095 135.392 211.095 135.344C211.143 135.344 211.191 135.296 211.239 135.2C211.335 135.152 211.431 135.057 211.526 134.913C212.667 133.579 213.712 132.244 214.67 130.958C215.627 129.672 216.289 128.626 216.672 127.907C216.72 127.811 216.72 127.763 216.768 127.715C216.768 127.667 216.816 127.619 216.816 127.619V127.236L217.008 127.044C217.055 126.996 217.151 126.948 217.199 126.948H217.247C217.343 126.948 217.39 126.996 217.438 127.044C217.534 127.092 217.534 127.188 217.534 127.283V127.331C217.39 128.002 216.68 129.289 215.348 131.142C214.255 132.668 212.97 134.242 211.542 135.903C210.114 137.525 208.734 138.955 207.449 140.145C205.407 142.007 203.644 143.245 202.263 143.764C202.072 143.812 201.976 143.86 201.88 143.86C201.785 143.908 201.641 143.908 201.497 143.908H201.306C201.162 143.908 201.067 143.908 201.019 143.86L201.003 143.868ZM202 143.149C202.239 143.053 202.479 142.909 202.806 142.766C203.141 142.574 203.476 142.382 203.755 142.19C205.136 141.288 206.612 140.097 208.135 138.572C208.279 138.38 208.518 138.188 208.758 137.948C208.949 137.709 209.189 137.469 209.428 137.237C209.667 136.998 209.859 136.806 210.002 136.614C210.146 136.47 210.194 136.375 210.194 136.375C210.194 136.375 210.05 136.423 209.859 136.47C209.619 136.566 209.38 136.71 209.101 136.854C208.822 136.998 208.526 137.142 208.247 137.285C206.109 138.428 204.298 139.618 202.87 140.856C202.63 141.048 202.391 141.288 202.16 141.527C201.92 141.815 201.729 142.055 201.585 142.198C201.442 142.438 201.298 142.678 201.25 142.774C201.202 142.917 201.154 143.061 201.154 143.109C201.154 143.157 201.202 143.205 201.202 143.253H201.537C201.681 143.253 201.825 143.205 202.016 143.157L202 143.149ZM217.749 124.951C217.606 124.903 217.558 124.807 217.558 124.663V124.615C217.606 124.519 217.606 124.471 217.654 124.376C217.702 124.328 217.797 124.28 217.941 124.232C218.085 124.136 218.228 124.088 218.324 124.088C218.42 124.088 218.563 124.136 218.611 124.232C218.659 124.28 218.659 124.328 218.659 124.424V124.519C218.611 124.615 218.515 124.711 218.42 124.711H218.324C218.292 124.743 218.26 124.775 218.228 124.807C218.18 124.855 218.132 124.903 218.037 124.951C217.989 124.999 217.941 124.999 217.893 124.999H217.797L217.749 124.951Z" stroke="#77AB94" stroke-width="0.22" stroke-miterlimit="22.93"/>
<path d="M219.034 131.382C218.938 131.334 218.89 131.334 218.842 131.286C218.795 131.19 218.747 131.142 218.699 131.094C218.699 130.998 218.651 130.902 218.651 130.806C218.651 130.519 218.747 130.231 218.938 129.856C219.225 129.281 219.608 128.713 220.031 128.138C220.51 127.515 220.933 127.092 221.364 126.708C221.603 126.469 221.89 126.325 222.122 126.325C222.169 126.325 222.217 126.325 222.265 126.373C222.552 126.421 222.744 126.66 222.84 127.132V127.467C222.84 127.851 222.792 128.178 222.6 128.562L222.505 128.801C222.648 128.801 222.792 128.849 222.935 128.849C223.558 128.849 224.124 128.61 224.699 128.226C224.842 128.178 224.938 128.178 225.034 128.178H225.129C225.225 128.178 225.273 128.226 225.321 128.322V128.37C225.321 128.466 225.225 128.562 225.129 128.658C224.651 129.041 224.228 129.281 223.749 129.329C223.318 129.424 222.991 129.472 222.704 129.472C222.465 129.472 222.273 129.424 222.082 129.377L221.938 129.568C221.603 129.904 221.228 130.239 220.797 130.567C220.414 130.902 220.039 131.142 219.704 131.278C219.608 131.326 219.513 131.374 219.417 131.374H219.034V131.382ZM219.561 130.615C220.087 130.375 220.558 129.992 221.132 129.424L221.372 129.137L221.228 129.089C221.132 129.041 221.037 128.945 220.893 128.849C220.797 128.753 220.701 128.705 220.654 128.658L220.606 128.562L220.366 128.849C220.175 129.137 219.983 129.377 219.84 129.656C219.648 129.944 219.505 130.183 219.457 130.327C219.361 130.519 219.313 130.615 219.313 130.663C219.313 130.711 219.313 130.711 219.361 130.711H219.457C219.505 130.663 219.553 130.663 219.553 130.615H219.561ZM222.273 127.331C222.273 127.188 222.225 127.092 222.177 127.092C222.13 127.044 222.082 126.996 222.034 126.996C221.986 126.996 221.89 127.044 221.795 127.092L221.364 127.523C221.172 127.715 221.076 127.859 221.029 128.002C221.029 128.05 221.029 128.098 221.124 128.146C221.172 128.242 221.268 128.29 221.364 128.386C221.459 128.434 221.555 128.53 221.603 128.53L221.795 128.626L221.89 128.434C222.13 128.098 222.273 127.723 222.273 127.339V127.331Z" fill="#77AB94"/>
<path d="M219.034 131.382C218.938 131.334 218.89 131.334 218.842 131.286C218.795 131.19 218.747 131.142 218.699 131.094C218.699 130.998 218.651 130.902 218.651 130.806C218.651 130.519 218.747 130.231 218.938 129.856C219.225 129.281 219.608 128.713 220.031 128.138C220.51 127.515 220.933 127.092 221.364 126.708C221.603 126.469 221.89 126.325 222.122 126.325C222.169 126.325 222.217 126.325 222.265 126.373C222.552 126.421 222.744 126.66 222.84 127.132V127.467C222.84 127.851 222.792 128.178 222.6 128.562L222.505 128.801C222.648 128.801 222.792 128.849 222.935 128.849C223.558 128.849 224.124 128.61 224.699 128.226C224.842 128.178 224.938 128.178 225.034 128.178H225.129C225.225 128.178 225.273 128.226 225.321 128.322V128.37C225.321 128.466 225.225 128.562 225.129 128.658C224.651 129.041 224.228 129.281 223.749 129.329C223.318 129.424 222.991 129.472 222.704 129.472C222.465 129.472 222.273 129.424 222.082 129.377L221.938 129.568C221.603 129.904 221.228 130.239 220.797 130.567C220.414 130.902 220.039 131.142 219.704 131.278C219.608 131.326 219.513 131.374 219.417 131.374H219.034V131.382ZM219.561 130.615C220.087 130.375 220.558 129.992 221.132 129.424L221.372 129.137L221.228 129.089C221.132 129.041 221.037 128.945 220.893 128.849C220.797 128.753 220.701 128.705 220.654 128.658L220.606 128.562L220.366 128.849C220.175 129.137 219.983 129.377 219.84 129.656C219.648 129.944 219.505 130.183 219.457 130.327C219.361 130.519 219.313 130.615 219.313 130.663C219.313 130.711 219.313 130.711 219.361 130.711H219.457C219.505 130.663 219.553 130.663 219.553 130.615H219.561ZM222.273 127.331C222.273 127.188 222.225 127.092 222.177 127.092C222.13 127.044 222.082 126.996 222.034 126.996C221.986 126.996 221.89 127.044 221.795 127.092L221.364 127.523C221.172 127.715 221.076 127.859 221.029 128.002C221.029 128.05 221.029 128.098 221.124 128.146C221.172 128.242 221.268 128.29 221.364 128.386C221.459 128.434 221.555 128.53 221.603 128.53L221.795 128.626L221.89 128.434C222.13 128.098 222.273 127.723 222.273 127.339V127.331Z" stroke="#77AB94" stroke-width="0.22" stroke-miterlimit="22.93"/>
<path d="M69.2389 151.705C69.2389 152.472 69.3346 153.199 69.5341 153.894C69.7336 154.565 70.0048 155.164 70.4037 155.683C70.8027 156.179 71.2973 156.578 71.8957 156.874C72.4702 157.169 73.1643 157.321 73.9781 157.321C74.4009 157.321 74.8238 157.249 75.2227 157.145C75.6216 157.017 75.9647 156.826 76.2918 156.546C76.587 156.274 76.8344 155.947 77.0338 155.579C77.2572 155.204 77.4806 154.757 77.6801 154.261L78.1747 154.389C78.0231 154.908 77.9274 155.412 77.8237 155.883C77.7519 156.354 77.6721 156.85 77.6242 157.401C76.978 157.577 76.3557 157.72 75.7333 157.824C75.0871 157.952 74.4648 158 73.8424 158C72.9249 158 72.0792 157.848 71.3053 157.577C70.5394 157.281 69.8612 156.882 69.2947 156.354C68.7522 155.835 68.2974 155.212 67.9783 154.493C67.6831 153.75 67.5076 152.951 67.5076 152.032C67.5076 151.01 67.707 150.091 68.082 149.324C68.4809 148.557 68.9756 147.91 69.6458 147.383C70.292 146.888 71.034 146.488 71.9037 146.241C72.7494 145.993 73.6669 145.841 74.6084 145.841C75.103 145.841 75.6296 145.889 76.1961 145.969C76.7386 146.041 77.2652 146.145 77.7599 146.265C77.712 146.784 77.6881 147.287 77.6641 147.734V149.228L77.1455 149.276C77.1216 148.781 77.0179 148.382 76.8743 148.03C76.6987 147.655 76.4993 147.383 76.228 147.135C75.9807 146.912 75.6536 146.736 75.3105 146.64C74.9674 146.544 74.5924 146.464 74.1696 146.464C73.3717 146.464 72.6537 146.592 72.0313 146.864C71.433 147.111 70.9144 147.463 70.4915 147.934C70.0686 148.382 69.7734 148.933 69.55 149.572C69.3266 150.211 69.2309 150.914 69.2309 151.713L69.2389 151.705ZM83.5921 157.752H83.1214C82.9458 157.752 82.7464 157.728 82.5469 157.728H80.3608C80.0896 157.752 79.8183 157.752 79.5949 157.752L79.571 157.353C79.8183 157.329 80.0417 157.305 80.1933 157.257C80.3688 157.209 80.4646 157.129 80.5683 157.033C80.6401 156.937 80.7199 156.786 80.7438 156.61C80.7677 156.41 80.7677 156.187 80.7677 155.867V152.735C80.7677 152.512 80.7677 152.312 80.7438 152.192C80.7199 152.072 80.672 151.969 80.5922 151.897C80.5124 151.825 80.3927 151.745 80.2412 151.721C80.0896 151.673 79.8662 151.625 79.6188 151.593L79.5949 151.242C79.7944 151.218 80.0178 151.17 80.2651 151.114C80.4885 151.042 80.7119 150.986 80.9353 150.938C81.1587 150.866 81.3581 150.81 81.5576 150.738C81.7571 150.69 81.9086 150.642 82.0283 150.586L82.1799 150.682C82.132 150.93 82.1081 151.178 82.1081 151.425C82.0842 151.673 82.0842 151.921 82.0842 152.144C82.3554 151.849 82.5788 151.569 82.7783 151.377C82.9778 151.186 83.1533 151.002 83.3208 150.882C83.4724 150.786 83.616 150.682 83.7676 150.658C83.9192 150.61 84.0389 150.586 84.1905 150.586C84.2862 150.586 84.4139 150.586 84.5096 150.61C84.6373 150.634 84.733 150.682 84.8288 150.738C84.9245 150.794 85.0043 150.866 85.0521 150.962C85.124 151.034 85.1479 151.138 85.1479 151.258C85.1479 151.433 85.0521 151.609 84.8527 151.801C84.6532 151.976 84.4298 152.176 84.1825 152.32C84.0309 152.192 83.9112 152.096 83.7596 152.024C83.632 151.953 83.4884 151.929 83.2889 151.929C83.1134 151.929 82.9139 152 82.6905 152.176C82.4671 152.328 82.2916 152.576 82.1719 152.871C82.1241 152.967 82.1001 153.047 82.1001 153.119C82.0762 153.167 82.0762 153.271 82.0762 153.39V156.346C82.0762 156.546 82.1001 156.698 82.1241 156.818C82.148 156.937 82.2198 157.017 82.3235 157.089C82.4272 157.161 82.5709 157.185 82.7703 157.217C82.9937 157.241 83.265 157.265 83.616 157.289L83.5921 157.736V157.752ZM89.528 157.752C89.2807 157.752 88.9536 157.752 88.6105 157.728H86.5521C86.2569 157.752 86.0096 157.752 85.7862 157.752L85.7622 157.353C86.0096 157.329 86.233 157.305 86.3846 157.257C86.5601 157.209 86.6798 157.129 86.7595 157.033C86.8553 156.937 86.9111 156.786 86.9351 156.61C86.959 156.41 86.9829 156.187 86.9829 155.867V152.687C86.9829 152.464 86.959 152.288 86.9351 152.144C86.9111 152.016 86.8633 151.921 86.7835 151.849C86.7037 151.777 86.6079 151.721 86.4643 151.673C86.3127 151.649 86.1133 151.601 85.866 151.545L85.842 151.194L86.584 151.042C86.8313 150.994 87.0787 150.946 87.3021 150.89C87.5255 150.818 87.7249 150.762 87.9004 150.714C88.076 150.666 88.1957 150.618 88.2994 150.586L88.427 150.682C88.4031 150.882 88.3792 151.106 88.3552 151.329C88.3313 151.553 88.3313 151.777 88.3313 152C88.3073 152.224 88.3074 152.424 88.3074 152.624V156.354C88.3074 156.554 88.3073 156.706 88.3313 156.826C88.3552 156.945 88.4031 157.025 88.5068 157.097C88.5786 157.169 88.7063 157.193 88.8818 157.225C89.0573 157.257 89.2807 157.273 89.5759 157.297L89.552 157.744L89.528 157.752ZM86.7276 147.679C86.7276 147.407 86.7994 147.183 86.951 147.031C87.1265 146.856 87.3499 146.784 87.5973 146.784C87.8925 146.784 88.1159 146.856 88.2675 147.031C88.443 147.183 88.5148 147.407 88.5148 147.679C88.5148 147.926 88.443 148.15 88.2675 148.326C88.1159 148.477 87.8925 148.573 87.5973 148.573C87.3499 148.573 87.1265 148.477 86.951 148.326C86.7994 148.15 86.7276 147.926 86.7276 147.679ZM94.5226 153.822C94.5465 153.774 94.5465 153.694 94.5465 153.622V152.727C94.5465 152.328 94.4507 151.984 94.2513 151.705C94.0518 151.425 93.7327 151.305 93.3098 151.305C93.0625 151.305 92.863 151.329 92.7115 151.433C92.5359 151.505 92.3923 151.633 92.2886 151.753C92.1928 151.905 92.0891 152.048 92.0413 152.224C91.9934 152.4 91.9695 152.6 91.9695 152.799C91.8418 152.895 91.6743 152.951 91.4269 152.951C91.2514 152.951 91.0759 152.903 90.9083 152.823C90.7567 152.727 90.661 152.6 90.661 152.448C90.661 152.296 90.7089 152.176 90.8126 152.024C90.9083 151.897 91.0599 151.753 91.2115 151.625C91.387 151.497 91.5865 151.377 91.7859 151.25C91.9854 151.122 92.1849 151.026 92.4083 150.93C92.9269 150.706 93.4774 150.578 93.996 150.578C94.2433 150.578 94.4906 150.602 94.714 150.674C94.9374 150.746 95.1369 150.85 95.3124 150.994C95.4879 151.138 95.6076 151.345 95.7113 151.569C95.8071 151.817 95.8629 152.088 95.8629 152.416C95.8629 152.911 95.8629 153.462 95.839 154.109C95.839 154.733 95.8151 155.452 95.8151 156.226C95.8151 156.546 95.8869 156.77 96.0145 156.969C96.1103 157.145 96.2858 157.217 96.5092 157.217C96.7086 157.217 96.9081 157.169 97.1315 157.017L97.3549 157.337C97.1794 157.513 96.956 157.656 96.6847 157.784C96.4134 157.912 96.1422 157.96 95.8629 157.96C95.5677 157.96 95.3204 157.888 95.0651 157.712C94.8417 157.561 94.6662 157.313 94.5944 156.945C94.5226 156.993 94.3949 157.073 94.2194 157.193C94.0438 157.289 93.8444 157.417 93.621 157.545C93.4215 157.672 93.1742 157.768 92.9269 157.84C92.6795 157.936 92.4322 157.992 92.2088 157.992C91.9615 157.992 91.7141 157.944 91.4907 157.84C91.2673 157.736 91.0918 157.617 90.9163 157.441C90.7647 157.265 90.645 157.089 90.5652 156.866C90.4695 156.642 90.4137 156.418 90.4137 156.171C90.4137 155.771 90.5413 155.428 90.7886 155.124C91.012 154.828 91.3312 154.605 91.7301 154.429C92.0014 154.333 92.3764 154.205 92.8471 154.078C93.3178 153.95 93.8923 153.878 94.5385 153.806L94.5226 153.822ZM94.5226 156.354V154.365C94.3231 154.389 94.0997 154.413 93.8763 154.461C93.6529 154.485 93.4295 154.533 93.23 154.589C93.0066 154.661 92.8072 154.741 92.6317 154.812C92.4322 154.908 92.2806 155.012 92.1609 155.132C91.9615 155.308 91.8657 155.531 91.8657 155.827C91.8657 156.147 91.9375 156.45 92.1131 156.674C92.2886 156.921 92.5599 157.049 92.9348 157.049C93.1822 157.049 93.4534 156.977 93.7327 156.85C94.0279 156.722 94.2752 156.578 94.5305 156.354H94.5226ZM101.504 157.752C101.256 157.752 100.961 157.752 100.634 157.728H98.6235C98.3283 157.752 98.049 157.752 97.8256 157.752L97.7778 157.353C98.049 157.329 98.2724 157.305 98.4479 157.257C98.5995 157.209 98.7431 157.129 98.8229 157.033C98.9187 156.937 98.9985 156.786 99.0224 156.61C99.0463 156.41 99.0463 156.187 99.0463 155.867V152.735C99.0463 152.512 99.0463 152.312 99.0224 152.192C98.9985 152.072 98.9506 151.969 98.8708 151.897C98.791 151.825 98.6713 151.745 98.5198 151.721C98.3682 151.673 98.1687 151.625 97.9214 151.593L97.8974 151.242C98.0969 151.218 98.3203 151.17 98.5437 151.09C98.7671 151.042 98.9905 150.994 99.2139 150.914C99.4373 150.866 99.6367 150.786 99.8362 150.738C100.036 150.69 100.187 150.642 100.307 150.586L100.459 150.682C100.435 150.858 100.411 151.002 100.387 151.178C100.363 151.353 100.363 151.497 100.363 151.673C100.81 151.321 101.256 151.05 101.751 150.874C102.246 150.674 102.716 150.578 103.139 150.578C103.434 150.578 103.714 150.626 103.961 150.706C104.232 150.802 104.456 150.954 104.631 151.154C104.807 151.353 104.95 151.625 105.078 151.921C105.174 152.24 105.23 152.616 105.23 153.063V156.346C105.23 156.546 105.254 156.698 105.277 156.818C105.301 156.937 105.349 157.017 105.429 157.089C105.509 157.161 105.629 157.185 105.78 157.217C105.932 157.249 106.131 157.265 106.402 157.289L106.379 157.736C106.107 157.736 105.836 157.736 105.509 157.712H103.57C103.275 157.736 103.028 157.736 102.804 157.736L102.756 157.337C103.004 157.313 103.227 157.289 103.379 157.241C103.53 157.217 103.65 157.145 103.73 157.041C103.801 156.969 103.857 156.818 103.881 156.642C103.905 156.466 103.929 156.242 103.929 155.923V153.359C103.929 152.711 103.778 152.24 103.482 151.968C103.211 151.673 102.836 151.521 102.413 151.521C102.094 151.521 101.767 151.593 101.416 151.721C101.065 151.849 100.722 152.016 100.371 152.24V156.346C100.371 156.546 100.395 156.698 100.395 156.818C100.419 156.945 100.466 157.017 100.546 157.089C100.642 157.161 100.77 157.185 100.921 157.217C101.073 157.249 101.296 157.265 101.544 157.289L101.52 157.736L101.504 157.752ZM114.293 144.723C114.269 144.922 114.245 145.17 114.245 145.442C114.221 145.713 114.197 145.985 114.197 146.265C114.173 146.536 114.173 146.784 114.15 147.031V155.931C114.15 156.155 114.15 156.354 114.173 156.474C114.197 156.594 114.269 156.698 114.349 156.77C114.445 156.842 114.572 156.898 114.748 156.945C114.923 156.969 115.147 157.017 115.442 157.073L115.49 157.393C115.243 157.441 114.971 157.489 114.692 157.521L113.95 157.672C113.727 157.72 113.527 157.768 113.352 157.824C113.176 157.88 113.056 157.896 112.977 157.92L112.849 157.824V157.025C112.45 157.345 112.051 157.601 111.66 157.744C111.237 157.896 110.838 157.968 110.44 157.968C110.017 157.968 109.618 157.896 109.251 157.72C108.876 157.569 108.557 157.345 108.285 157.049C108.014 156.754 107.791 156.402 107.615 155.979C107.464 155.579 107.368 155.108 107.368 154.589C107.368 154.014 107.495 153.47 107.719 152.999C107.942 152.504 108.237 152.08 108.636 151.729C109.011 151.353 109.458 151.082 109.953 150.882C110.471 150.682 111.022 150.586 111.588 150.586C111.716 150.586 111.884 150.586 112.131 150.61C112.378 150.634 112.602 150.658 112.849 150.738V146.712C112.849 146.464 112.825 146.289 112.801 146.169C112.777 146.017 112.729 145.921 112.626 145.849C112.522 145.777 112.402 145.721 112.227 145.673C112.051 145.625 111.828 145.602 111.509 145.546L111.485 145.194L112.378 145.042C112.65 144.97 112.921 144.914 113.176 144.867C113.431 144.819 113.647 144.771 113.822 144.715C113.998 144.659 114.094 144.643 114.173 144.619L114.301 144.715L114.293 144.723ZM112.849 151.961C112.626 151.713 112.354 151.513 112.051 151.417C111.756 151.289 111.429 151.218 111.11 151.218C110.735 151.218 110.392 151.289 110.112 151.465C109.817 151.617 109.594 151.841 109.418 152.112C109.219 152.384 109.067 152.687 108.995 153.031C108.9 153.382 108.844 153.726 108.844 154.101C108.844 154.501 108.892 154.844 108.995 155.22C109.091 155.571 109.243 155.867 109.442 156.139C109.666 156.41 109.913 156.61 110.184 156.786C110.479 156.937 110.83 157.033 111.205 157.033C111.557 157.033 111.852 156.985 112.123 156.882C112.394 156.754 112.642 156.634 112.841 156.458V151.961H112.849ZM116.28 154.365C116.28 153.846 116.375 153.343 116.575 152.895C116.774 152.424 117.022 152.024 117.341 151.673C117.66 151.353 118.059 151.074 118.506 150.874C118.953 150.674 119.423 150.578 119.918 150.578C120.492 150.578 120.987 150.674 121.434 150.85C121.881 151.05 122.28 151.297 122.599 151.649C122.894 151.969 123.141 152.344 123.317 152.791C123.492 153.239 123.588 153.71 123.588 154.205C123.588 154.725 123.492 155.228 123.293 155.675C123.117 156.147 122.846 156.546 122.527 156.866C122.208 157.217 121.809 157.489 121.362 157.688C120.915 157.888 120.444 157.984 119.918 157.984C119.391 157.984 118.873 157.888 118.426 157.688C117.979 157.513 117.604 157.241 117.285 156.922C116.966 156.602 116.711 156.203 116.543 155.779C116.368 155.332 116.272 154.86 116.272 154.365H116.28ZM120.101 157.401C120.452 157.401 120.748 157.305 121.019 157.153C121.266 156.977 121.466 156.754 121.641 156.482C121.817 156.211 121.936 155.907 122.016 155.587C122.096 155.268 122.112 154.916 122.112 154.589C122.112 154.189 122.088 153.79 121.984 153.398C121.913 152.999 121.761 152.632 121.585 152.304C121.386 151.984 121.163 151.705 120.867 151.481C120.572 151.281 120.197 151.186 119.798 151.186C119.423 151.186 119.104 151.258 118.857 151.433C118.609 151.585 118.41 151.809 118.234 152.08C118.083 152.352 117.963 152.656 117.883 152.975C117.804 153.295 117.756 153.646 117.756 153.974C117.756 154.349 117.804 154.741 117.883 155.14C117.979 155.539 118.131 155.907 118.306 156.234C118.482 156.586 118.729 156.858 119.024 157.081C119.32 157.281 119.671 157.401 120.093 157.401H120.101ZM137.088 156.41C136.84 156.73 136.569 157.009 136.29 157.233C136.018 157.433 135.747 157.585 135.492 157.704C135.237 157.824 135.021 157.904 134.798 157.928C134.598 157.976 134.423 158 134.303 158C133.808 158 133.338 157.904 132.915 157.704C132.492 157.505 132.149 157.257 131.846 156.906C131.55 156.586 131.303 156.21 131.152 155.763C130.976 155.316 130.904 154.868 130.904 154.373C130.904 153.83 131 153.327 131.175 152.879C131.375 152.408 131.646 152.008 131.973 151.689C132.292 151.337 132.667 151.066 133.09 150.89C133.513 150.69 133.936 150.594 134.407 150.594C134.758 150.594 135.101 150.642 135.452 150.77C135.771 150.898 136.074 151.042 136.322 151.266C136.545 151.489 136.744 151.761 136.896 152.064C137.048 152.368 137.143 152.711 137.143 153.087V153.263C137.143 153.359 137.119 153.438 137.119 153.438C137.072 153.662 136.968 153.758 136.768 153.758H132.197C132.197 154.333 132.292 154.804 132.444 155.204C132.62 155.603 132.819 155.923 133.066 156.171C133.314 156.418 133.609 156.594 133.936 156.714C134.231 156.842 134.558 156.89 134.854 156.89C135.205 156.89 135.5 156.842 135.795 156.714C136.09 156.618 136.417 156.394 136.736 156.067L137.088 156.418V156.41ZM135.3 153.199C135.452 153.199 135.572 153.175 135.596 153.127C135.643 153.055 135.667 152.951 135.667 152.807C135.667 152.584 135.643 152.384 135.572 152.184C135.5 151.984 135.372 151.833 135.252 151.689C135.101 151.537 134.933 151.417 134.734 151.337C134.51 151.265 134.287 151.21 134.04 151.21C133.84 151.21 133.641 151.258 133.465 151.361C133.266 151.433 133.09 151.561 132.923 151.737C132.771 151.913 132.628 152.112 132.5 152.36C132.372 152.608 132.3 152.903 132.253 153.207H135.308L135.3 153.199ZM146.207 151.705C146.207 152.472 146.303 153.199 146.502 153.894C146.702 154.565 146.973 155.164 147.372 155.683C147.771 156.179 148.265 156.578 148.864 156.874C149.438 157.169 150.132 157.321 150.946 157.321C151.369 157.321 151.792 157.249 152.191 157.145C152.59 157.017 152.933 156.826 153.26 156.546C153.555 156.274 153.802 155.947 154.002 155.579C154.225 155.204 154.449 154.757 154.648 154.261L155.143 154.389C154.991 154.908 154.895 155.412 154.792 155.883C154.72 156.354 154.64 156.85 154.592 157.401C153.946 157.577 153.324 157.72 152.701 157.824C152.055 157.952 151.433 158 150.81 158C149.893 158 149.047 157.848 148.273 157.577C147.507 157.281 146.829 156.882 146.263 156.354C145.72 155.835 145.265 155.212 144.946 154.493C144.651 153.75 144.476 152.951 144.476 152.032C144.476 151.01 144.675 150.091 145.05 149.324C145.449 148.557 145.944 147.91 146.614 147.383C147.26 146.888 148.002 146.488 148.872 146.241C149.717 145.993 150.635 145.841 151.576 145.841C152.071 145.841 152.598 145.889 153.164 145.969C153.707 146.041 154.233 146.145 154.728 146.265C154.68 146.784 154.656 147.287 154.632 147.734V149.228L154.113 149.276C154.09 148.781 153.986 148.382 153.842 148.03C153.667 147.655 153.467 147.383 153.196 147.135C152.949 146.912 152.622 146.736 152.278 146.64C151.935 146.544 151.56 146.464 151.138 146.464C150.34 146.464 149.622 146.592 148.999 146.864C148.401 147.111 147.882 147.463 147.459 147.934C147.037 148.382 146.741 148.933 146.518 149.572C146.295 150.211 146.199 150.914 146.199 151.713L146.207 151.705ZM156.635 154.365C156.635 153.846 156.73 153.343 156.93 152.895C157.129 152.424 157.377 152.024 157.696 151.673C158.015 151.353 158.414 151.074 158.861 150.874C159.307 150.674 159.778 150.578 160.273 150.578C160.847 150.578 161.342 150.674 161.789 150.85C162.236 151.05 162.634 151.297 162.954 151.649C163.249 151.969 163.496 152.344 163.672 152.791C163.847 153.239 163.943 153.71 163.943 154.205C163.943 154.725 163.847 155.228 163.648 155.675C163.472 156.147 163.201 156.546 162.882 156.866C162.563 157.217 162.164 157.489 161.717 157.688C161.27 157.888 160.799 157.984 160.273 157.984C159.746 157.984 159.228 157.888 158.781 157.688C158.334 157.513 157.959 157.241 157.64 156.922C157.321 156.602 157.066 156.203 156.898 155.779C156.722 155.332 156.627 154.86 156.627 154.365H156.635ZM160.464 157.401C160.815 157.401 161.111 157.305 161.382 157.153C161.629 156.977 161.829 156.754 162.004 156.482C162.18 156.211 162.299 155.907 162.379 155.587C162.459 155.268 162.475 154.916 162.475 154.589C162.475 154.189 162.451 153.79 162.347 153.398C162.275 152.999 162.124 152.632 161.948 152.304C161.749 151.984 161.525 151.705 161.23 151.481C160.935 151.281 160.56 151.186 160.161 151.186C159.786 151.186 159.467 151.258 159.22 151.433C158.972 151.585 158.773 151.809 158.597 152.08C158.446 152.352 158.326 152.656 158.246 152.975C158.167 153.295 158.119 153.646 158.119 153.974C158.119 154.349 158.167 154.741 158.246 155.14C158.342 155.539 158.494 155.907 158.669 156.234C158.845 156.586 159.092 156.858 159.387 157.081C159.682 157.281 160.033 157.401 160.456 157.401H160.464ZM169.576 152.775L165.108 153.175L164.98 153.047L165.108 152.28L169.552 152.304L169.576 152.775ZM172.384 151.705C172.384 152.472 172.48 153.199 172.679 153.894C172.879 154.565 173.15 155.164 173.549 155.683C173.948 156.179 174.443 156.578 175.041 156.874C175.615 157.169 176.309 157.321 177.123 157.321C177.546 157.321 177.969 157.249 178.368 157.145C178.767 157.017 179.11 156.826 179.437 156.546C179.732 156.274 179.98 155.947 180.179 155.579C180.402 155.204 180.626 154.757 180.825 154.261L181.32 154.389C181.168 154.908 181.073 155.412 180.969 155.883C180.897 156.354 180.817 156.85 180.769 157.401C180.123 157.577 179.501 157.72 178.879 157.824C178.232 157.952 177.61 158 176.988 158C176.07 158 175.224 157.848 174.451 157.577C173.685 157.281 173.006 156.882 172.44 156.354C171.897 155.835 171.443 155.212 171.124 154.493C170.828 153.75 170.653 152.951 170.653 152.032C170.653 151.01 170.852 150.091 171.227 149.324C171.626 148.557 172.121 147.91 172.791 147.383C173.437 146.888 174.179 146.488 175.049 146.241C175.895 145.993 176.812 145.841 177.754 145.841C178.248 145.841 178.775 145.889 179.341 145.969C179.884 146.041 180.41 146.145 180.905 146.265C180.857 146.784 180.833 147.287 180.809 147.734V149.228L180.291 149.276C180.267 148.781 180.163 148.382 180.019 148.03C179.844 147.655 179.644 147.383 179.373 147.135C179.126 146.912 178.799 146.736 178.456 146.64C178.113 146.544 177.738 146.464 177.315 146.464C176.517 146.464 175.799 146.592 175.177 146.864C174.578 147.111 174.06 147.463 173.637 147.934C173.214 148.382 172.919 148.933 172.695 149.572C172.472 150.211 172.376 150.914 172.376 151.713L172.384 151.705ZM186.737 157.752H186.267C186.091 157.752 185.892 157.728 185.692 157.728H183.506C183.235 157.752 182.964 157.752 182.74 157.752L182.716 157.353C182.964 157.329 183.187 157.305 183.339 157.257C183.514 157.209 183.61 157.129 183.713 157.033C183.785 156.937 183.865 156.786 183.889 156.61C183.913 156.41 183.913 156.187 183.913 155.867V152.735C183.913 152.512 183.913 152.312 183.889 152.192C183.865 152.072 183.817 151.969 183.737 151.897C183.658 151.825 183.538 151.745 183.386 151.721C183.235 151.673 183.011 151.625 182.764 151.593L182.74 151.242C182.94 151.218 183.163 151.17 183.41 151.114C183.634 151.042 183.857 150.986 184.08 150.938C184.304 150.866 184.503 150.81 184.703 150.738C184.902 150.69 185.054 150.642 185.174 150.586L185.325 150.682C185.277 150.93 185.253 151.178 185.253 151.425C185.229 151.673 185.229 151.921 185.229 152.144C185.501 151.849 185.724 151.569 185.924 151.377C186.123 151.186 186.299 151.002 186.466 150.882C186.618 150.786 186.761 150.682 186.913 150.658C187.064 150.61 187.184 150.586 187.336 150.586C187.431 150.586 187.559 150.586 187.655 150.61C187.782 150.634 187.878 150.682 187.974 150.738C188.07 150.794 188.149 150.866 188.197 150.962C188.269 151.034 188.293 151.138 188.293 151.258C188.293 151.433 188.197 151.609 187.998 151.801C187.798 151.976 187.575 152.176 187.328 152.32C187.176 152.192 187.056 152.096 186.905 152.024C186.777 151.953 186.634 151.929 186.434 151.929C186.259 151.929 186.059 152 185.836 152.176C185.612 152.328 185.437 152.576 185.317 152.871C185.269 152.967 185.245 153.047 185.245 153.119C185.221 153.167 185.221 153.271 185.221 153.39V156.346C185.221 156.546 185.245 156.698 185.269 156.818C185.293 156.937 185.365 157.017 185.469 157.089C185.572 157.161 185.716 157.185 185.916 157.217C186.139 157.241 186.41 157.265 186.761 157.289L186.737 157.736V157.752ZM192.673 157.752C192.426 157.752 192.099 157.752 191.756 157.728H189.697C189.402 157.752 189.155 157.752 188.931 157.752L188.907 157.353C189.155 157.329 189.378 157.305 189.53 157.257C189.705 157.209 189.825 157.129 189.905 157.033C190 156.937 190.056 156.786 190.08 156.61C190.104 156.41 190.128 156.187 190.128 155.867V152.687C190.128 152.464 190.104 152.288 190.08 152.144C190.056 152.016 190.008 151.921 189.929 151.849C189.849 151.777 189.753 151.721 189.61 151.673C189.458 151.649 189.259 151.601 189.011 151.545L188.987 151.194L189.729 151.042C189.977 150.994 190.224 150.946 190.447 150.89C190.671 150.818 190.87 150.762 191.046 150.714C191.221 150.666 191.341 150.618 191.445 150.586L191.572 150.682C191.548 150.882 191.524 151.106 191.5 151.329C191.477 151.553 191.477 151.777 191.477 152C191.453 152.224 191.453 152.424 191.453 152.624V156.354C191.453 156.554 191.453 156.706 191.477 156.826C191.5 156.945 191.548 157.025 191.652 157.097C191.724 157.169 191.851 157.193 192.027 157.225C192.203 157.257 192.426 157.273 192.721 157.297L192.697 157.744L192.673 157.752ZM189.865 147.679C189.865 147.407 189.937 147.183 190.088 147.031C190.264 146.856 190.487 146.784 190.735 146.784C191.03 146.784 191.253 146.856 191.405 147.031C191.58 147.183 191.652 147.407 191.652 147.679C191.652 147.926 191.58 148.15 191.405 148.326C191.253 148.477 191.03 148.573 190.735 148.573C190.487 148.573 190.264 148.477 190.088 148.326C189.937 148.15 189.865 147.926 189.865 147.679ZM197.668 153.822C197.692 153.774 197.692 153.694 197.692 153.622V152.727C197.692 152.328 197.596 151.984 197.396 151.705C197.197 151.425 196.878 151.305 196.455 151.305C196.208 151.305 196.008 151.329 195.857 151.433C195.681 151.505 195.538 151.633 195.434 151.753C195.338 151.905 195.234 152.048 195.186 152.224C195.139 152.4 195.115 152.6 195.115 152.799C194.987 152.895 194.819 152.951 194.572 152.951C194.397 152.951 194.221 152.903 194.054 152.823C193.902 152.727 193.806 152.6 193.806 152.448C193.806 152.296 193.854 152.176 193.958 152.024C194.054 151.897 194.205 151.753 194.357 151.625C194.532 151.497 194.732 151.377 194.931 151.25C195.131 151.122 195.33 151.026 195.553 150.93C196.072 150.706 196.623 150.578 197.141 150.578C197.389 150.578 197.636 150.602 197.859 150.674C198.083 150.746 198.282 150.85 198.458 150.994C198.633 151.138 198.753 151.345 198.857 151.569C198.952 151.817 199.008 152.088 199.008 152.416C199.008 152.911 199.008 153.462 198.984 154.109C198.984 154.733 198.96 155.452 198.96 156.226C198.96 156.546 199.032 156.77 199.16 156.969C199.255 157.145 199.431 157.217 199.654 157.217C199.854 157.217 200.053 157.169 200.277 157.017L200.5 157.337C200.325 157.513 200.101 157.656 199.83 157.784C199.559 157.912 199.287 157.96 199.008 157.96C198.713 157.96 198.466 157.888 198.21 157.712C197.987 157.561 197.811 157.313 197.74 156.945C197.668 156.993 197.54 157.073 197.365 157.193C197.189 157.289 196.99 157.417 196.766 157.545C196.567 157.672 196.319 157.768 196.072 157.84C195.825 157.936 195.577 157.992 195.354 157.992C195.107 157.992 194.859 157.944 194.636 157.84C194.413 157.736 194.237 157.617 194.062 157.441C193.91 157.265 193.79 157.089 193.71 156.866C193.615 156.642 193.559 156.418 193.559 156.171C193.559 155.771 193.687 155.428 193.934 155.124C194.157 154.828 194.476 154.605 194.875 154.429C195.147 154.333 195.522 154.205 195.992 154.078C196.463 153.95 197.037 153.878 197.684 153.806L197.668 153.822ZM197.668 156.354V154.365C197.468 154.389 197.245 154.413 197.022 154.461C196.798 154.485 196.575 154.533 196.375 154.589C196.152 154.661 195.952 154.741 195.777 154.812C195.577 154.908 195.426 155.012 195.306 155.132C195.107 155.308 195.011 155.531 195.011 155.827C195.011 156.147 195.083 156.45 195.258 156.674C195.434 156.921 195.705 157.049 196.08 157.049C196.327 157.049 196.599 156.977 196.878 156.85C197.173 156.722 197.42 156.578 197.676 156.354H197.668ZM204.641 157.752C204.394 157.752 204.098 157.752 203.771 157.728H201.761C201.466 157.752 201.186 157.752 200.963 157.752L200.915 157.353C201.186 157.329 201.41 157.305 201.585 157.257C201.737 157.209 201.88 157.129 201.96 157.033C202.056 156.937 202.136 156.786 202.16 156.61C202.184 156.41 202.184 156.187 202.184 155.867V152.735C202.184 152.512 202.184 152.312 202.16 152.192C202.136 152.072 202.088 151.969 202.008 151.897C201.928 151.825 201.809 151.745 201.657 151.721C201.505 151.673 201.306 151.625 201.059 151.593L201.035 151.242C201.234 151.218 201.458 151.17 201.681 151.09C201.904 151.042 202.128 150.994 202.351 150.914C202.575 150.866 202.774 150.786 202.973 150.738C203.173 150.69 203.324 150.642 203.444 150.586L203.596 150.682C203.572 150.858 203.548 151.002 203.524 151.178C203.5 151.353 203.5 151.497 203.5 151.673C203.947 151.321 204.394 151.05 204.888 150.874C205.383 150.674 205.854 150.578 206.276 150.578C206.572 150.578 206.851 150.626 207.098 150.706C207.37 150.802 207.593 150.954 207.768 151.154C207.944 151.353 208.088 151.625 208.215 151.921C208.311 152.24 208.367 152.616 208.367 153.063V156.346C208.367 156.546 208.391 156.698 208.415 156.818C208.439 156.937 208.487 157.017 208.566 157.089C208.646 157.161 208.766 157.185 208.917 157.217C209.069 157.249 209.268 157.265 209.54 157.289L209.516 157.736C209.244 157.736 208.973 157.736 208.646 157.712H206.707C206.412 157.736 206.165 157.736 205.941 157.736L205.894 157.337C206.141 157.313 206.364 157.289 206.516 157.241C206.667 157.217 206.787 157.145 206.867 157.041C206.939 156.969 206.995 156.818 207.019 156.642C207.042 156.466 207.066 156.242 207.066 155.923V153.359C207.066 152.711 206.915 152.24 206.62 151.968C206.348 151.673 205.973 151.521 205.55 151.521C205.231 151.521 204.904 151.593 204.553 151.721C204.202 151.849 203.859 152.016 203.508 152.24V156.346C203.508 156.546 203.532 156.698 203.532 156.818C203.556 156.945 203.604 157.017 203.684 157.089C203.779 157.161 203.907 157.185 204.058 157.217C204.21 157.249 204.433 157.265 204.681 157.289L204.657 157.736L204.641 157.752ZM217.43 144.723C217.406 144.922 217.382 145.17 217.382 145.442C217.359 145.713 217.335 145.985 217.335 146.265C217.311 146.536 217.311 146.784 217.287 147.031V155.931C217.287 156.155 217.287 156.354 217.311 156.474C217.335 156.594 217.406 156.698 217.486 156.77C217.582 156.842 217.71 156.898 217.885 156.945C218.061 156.969 218.284 157.017 218.579 157.073L218.627 157.393C218.38 157.441 218.109 157.489 217.829 157.521L217.087 157.672C216.864 157.72 216.664 157.768 216.489 157.824C216.313 157.88 216.194 157.896 216.114 157.92L215.986 157.824V157.025C215.587 157.345 215.188 157.601 214.797 157.744C214.375 157.896 213.976 157.968 213.577 157.968C213.154 157.968 212.755 157.896 212.388 157.72C212.013 157.569 211.694 157.345 211.423 157.049C211.151 156.754 210.928 156.402 210.752 155.979C210.601 155.579 210.505 155.108 210.505 154.589C210.505 154.014 210.633 153.47 210.856 152.999C211.08 152.504 211.375 152.08 211.774 151.729C212.149 151.353 212.595 151.082 213.09 150.882C213.609 150.682 214.159 150.586 214.726 150.586C214.853 150.586 215.021 150.586 215.268 150.61C215.516 150.634 215.739 150.658 215.986 150.738V146.712C215.986 146.464 215.962 146.289 215.938 146.169C215.914 146.017 215.867 145.921 215.763 145.849C215.659 145.777 215.539 145.721 215.364 145.673C215.188 145.625 214.965 145.602 214.646 145.546L214.622 145.194L215.516 145.042C215.787 144.97 216.058 144.914 216.313 144.867C216.569 144.819 216.784 144.771 216.96 144.715C217.135 144.659 217.231 144.643 217.311 144.619L217.438 144.715L217.43 144.723ZM215.994 151.961C215.771 151.713 215.5 151.513 215.196 151.417C214.901 151.289 214.574 151.218 214.255 151.218C213.88 151.218 213.537 151.289 213.258 151.465C212.962 151.617 212.739 151.841 212.564 152.112C212.364 152.384 212.212 152.687 212.141 153.031C212.045 153.382 211.989 153.726 211.989 154.101C211.989 154.501 212.037 154.844 212.141 155.22C212.236 155.571 212.388 155.867 212.587 156.139C212.811 156.41 213.058 156.61 213.329 156.786C213.625 156.937 213.976 157.033 214.351 157.033C214.702 157.033 214.997 156.985 215.268 156.882C215.539 156.754 215.787 156.634 215.986 156.458V151.961H215.994ZM219.417 154.365C219.417 153.846 219.513 153.343 219.712 152.895C219.912 152.424 220.159 152.024 220.478 151.673C220.797 151.353 221.196 151.074 221.643 150.874C222.09 150.674 222.56 150.578 223.055 150.578C223.63 150.578 224.124 150.674 224.571 150.85C225.018 151.05 225.417 151.297 225.736 151.649C226.031 151.969 226.278 152.344 226.454 152.791C226.629 153.239 226.725 153.71 226.725 154.205C226.725 154.725 226.629 155.228 226.43 155.675C226.255 156.147 225.983 156.546 225.664 156.866C225.345 157.217 224.946 157.489 224.499 157.688C224.052 157.888 223.582 157.984 223.055 157.984C222.529 157.984 222.01 157.888 221.563 157.688C221.116 157.513 220.741 157.241 220.422 156.922C220.103 156.602 219.848 156.203 219.68 155.779C219.505 155.332 219.409 154.86 219.409 154.365H219.417ZM223.247 157.401C223.598 157.401 223.893 157.305 224.164 157.153C224.411 156.977 224.611 156.754 224.786 156.482C224.962 156.211 225.082 155.907 225.161 155.587C225.241 155.268 225.257 154.916 225.257 154.589C225.257 154.189 225.233 153.79 225.13 153.398C225.058 152.999 224.906 152.632 224.731 152.304C224.531 151.984 224.308 151.705 224.013 151.481C223.717 151.281 223.342 151.186 222.943 151.186C222.568 151.186 222.249 151.258 222.002 151.433C221.755 151.585 221.555 151.809 221.38 152.08C221.228 152.352 221.108 152.656 221.029 152.975C220.949 153.295 220.901 153.646 220.901 153.974C220.901 154.349 220.949 154.741 221.029 155.14C221.124 155.539 221.276 155.907 221.451 156.234C221.627 156.586 221.874 156.858 222.17 157.081C222.465 157.281 222.816 157.401 223.239 157.401H223.247Z" fill="#548B94"/>
<path d="M74.4089 72.7525C79.196 66.3696 88.6983 58.3489 93.3178 56.5435C99.6527 54.059 109.458 49.1459 111.94 56.895C115.777 68.87 91.762 67.5998 85.9777 71.6901L83.5682 71.9776" stroke="#77AB94" stroke-width="2.83" stroke-miterlimit="22.93"/>
<path d="M109.634 63.9731C136.178 61.1451 151.425 93.1238 135.165 84.3123C127.729 80.286 112.985 81.2766 103.754 85.1751" stroke="#77AB94" stroke-width="2.83" stroke-miterlimit="22.93"/>
<path d="M72.7893 93.7309C72.7893 99.9461 79.2917 149.005 92.2726 142.023L92.3445 141.224C93.8604 139.466 94.5545 129.608 93.972 127.22C92.1051 119.574 92.6317 118.576 92.6317 110.859C92.6317 85.2389 87.334 100.37 83.6001 89.401C84.5336 90.9508 99.3814 98.4442 101.631 99.1792C110.759 102.159 114.325 90.831 98.7751 82.0275C93.8125 79.2154 90.4855 81.5721 87.2383 77.9213" stroke="#77AB94" stroke-width="2.83" stroke-miterlimit="22.93"/>
<path d="M73.1164 103.461C54.2474 114.549 55.7553 132.604 46.7157 140.936C38.6735 148.35 40.5005 106.177 41.3303 105.219L40.4926 104.116" stroke="#77AB94" stroke-width="2.83" stroke-miterlimit="22.93"/>
<path d="M62.6327 84.52C63.279 88.8259 58.3324 96.1275 54.7979 99.4029C45.3913 108.143 29.3626 104.148 40.6521 95.6003C45.4153 91.9974 52.2448 87.9152 57.9893 86.7328C58.3004 86.6689 62.6088 84.4001 62.6327 84.52Z" stroke="#77AB94" stroke-width="2.83" stroke-miterlimit="22.93"/>
<path d="M47.0748 90.9268C48.3753 91.7097 27.384 101.264 6.36083 97.4616C-10.5535 94.4019 26.9133 75.7563 30.9185 74.1665C33.2003 73.2638 36.9661 71.2027 40.3729 71.6581" stroke="#77AB94" stroke-width="2.83" stroke-miterlimit="22.93"/>
<path d="M55.859 72.8245C50.9044 72.6727 36.5512 72.4969 31.9476 69.1017C19.3976 59.8349 42.3515 60.2503 50.6092 64.8997C51.3352 65.3071 59.7764 69.0298 60.5982 69.1017" stroke="#77AB94" stroke-width="2.83" stroke-miterlimit="22.93"/>
<path d="M37.6283 61.7201C34.9954 61.113 5.73054 27.7921 9.28094 23.9895C17.6184 15.0581 52.9709 44.8959 53.0267 45.0717" stroke="#77AB94" stroke-width="2.83" stroke-miterlimit="22.93"/>
<path d="M72.9728 65.9062C66.1831 67.488 63.6699 64.7958 58.9307 59.4354C56.9521 57.2065 45.5908 27.6643 53.2581 32.4496C59.4812 36.3321 77.3051 64.8997 72.9728 65.9062Z" stroke="#77AB94" stroke-width="2.83" stroke-miterlimit="22.93"/>
<path d="M64.3082 45.8866C68.2974 36.7635 72.9249 15.6733 72.9728 8.3397C73.0925 -7.82144 84.4059 9.13058 84.4059 34.263C84.4059 43.7057 80.6481 55.7686 84.0628 63.5816" stroke="#77AB94" stroke-width="2.83" stroke-miterlimit="22.93"/>
<path fill-rule="evenodd" clip-rule="evenodd" d="M72.9728 61.7601C75.2626 61.7601 77.1136 63.6135 77.1136 65.9063C77.1136 68.199 75.2626 70.0524 72.9728 70.0524C70.683 70.0524 68.832 68.199 68.832 65.9063C68.832 63.6135 70.683 61.7601 72.9728 61.7601Z" fill="#77AB94"/>
<path d="M72.9728 61.7601C75.2626 61.7601 77.1136 63.6135 77.1136 65.9063C77.1136 68.199 75.2626 70.0524 72.9728 70.0524C70.683 70.0524 68.832 68.199 68.832 65.9063C68.832 63.6135 70.683 61.7601 72.9728 61.7601Z" stroke="#77AB94" stroke-width="2.83" stroke-miterlimit="22.93"/>
<path d="M83.4405 72.1055C85.7303 72.1055 87.5813 73.9588 87.5813 76.2516C87.5813 78.5444 85.7303 80.3977 83.4405 80.3977C81.1507 80.3977 79.2997 78.5444 79.2997 76.2516C79.2997 73.9588 81.1507 72.1055 83.4405 72.1055Z" stroke="#77AB94" stroke-width="2.83" stroke-miterlimit="22.93"/>
<path d="M72.6696 84.1125C74.9594 84.1125 76.8104 85.9659 76.8104 88.2587C76.8104 90.5514 74.9594 92.4048 72.6696 92.4048C70.3798 92.4048 68.5288 90.5514 68.5288 88.2587C68.5288 85.9659 70.3798 84.1125 72.6696 84.1125Z" stroke="#77AB94" stroke-width="2.83" stroke-miterlimit="22.93"/>
<path fill-rule="evenodd" clip-rule="evenodd" d="M62.6327 80.3738C64.9226 80.3738 66.7736 82.2272 66.7736 84.5199C66.7736 86.8127 64.9226 88.6661 62.6327 88.6661C60.3429 88.6661 58.4919 86.8127 58.4919 84.5199C58.4919 82.2272 60.3429 80.3738 62.6327 80.3738Z" fill="#77AB94"/>
<path d="M62.6327 80.3738C64.9226 80.3738 66.7736 82.2272 66.7736 84.5199C66.7736 86.8127 64.9226 88.6661 62.6327 88.6661C60.3429 88.6661 58.4919 86.8127 58.4919 84.5199C58.4919 82.2272 60.3429 80.3738 62.6327 80.3738Z" stroke="#77AB94" stroke-width="2.83" stroke-miterlimit="22.93"/>
<path d="M60.5982 69.1018C62.888 69.1018 64.739 70.9552 64.739 73.2479C64.739 75.5407 62.888 77.3941 60.5982 77.3941C58.3084 77.3941 56.4574 75.5407 56.4574 73.2479C56.4574 70.9552 58.3084 69.1018 60.5982 69.1018Z" stroke="#77AB94" stroke-width="2.83" stroke-miterlimit="22.93"/>
<path d="M72.3185 72.2812C75.0232 72.2812 77.2093 74.4781 77.2093 77.1783C77.2093 79.8785 75.0152 82.0754 72.3185 82.0754C69.6218 82.0754 67.4277 79.8785 67.4277 77.1783C67.4277 74.4781 69.6218 72.2812 72.3185 72.2812Z" stroke="#77AB94" stroke-width="2.83" stroke-miterlimit="22.93"/>
<path d="M83.5558 85.3682C83.6562 83.9556 82.5938 82.7289 81.1829 82.6283C79.7721 82.5278 78.5469 83.5915 78.4465 85.0042C78.3462 86.4169 79.4085 87.6436 80.8194 87.7441C82.2303 87.8447 83.4554 86.7809 83.5558 85.3682Z" fill="#77AB94"/>
<path d="M83.5558 85.3682C83.6562 83.9556 82.5938 82.7289 81.1829 82.6283C79.7721 82.5278 78.5469 83.5915 78.4465 85.0042C78.3462 86.4169 79.4085 87.6436 80.8194 87.7441C82.2303 87.8447 83.4554 86.7809 83.5558 85.3682Z" stroke="#77AB94" stroke-width="2.83" stroke-miterlimit="22.93"/>
<path d="M82.7145 53.0684C81.5417 38.8405 90.2541 32.6892 99.7086 24.6046C127.936 0.470783 95.9747 47.7399 100.475 54.4105" stroke="#77AB94" stroke-width="2.83" stroke-miterlimit="22.93"/>
</svg>
